<?xml version="1.0" standalone="no"?>
<!DOCTYPE svg PUBLIC "-//W3C//DTD SVG 1.1//EN" "http://www.w3.org/Graphics/SVG/1.1/DTD/svg11.dtd" >
<svg xmlns="http://www.w3.org/2000/svg" xmlns:xlink="http://www.w3.org/1999/xlink" version="1.1">
<metadata>
Created by FontForge 20190801 at Sat May 10 17:26:29 2014
 By Jimmy Wärting
Copyright 2014 Radim Pesko. All rights reserved.
</metadata>
<defs>
<font id="Agipo-Regular" horiz-adv-x="335" >
  <font-face 
    font-family="Agipo"
    font-weight="400"
    font-stretch="normal"
    units-per-em="1000"
    panose-1="2 0 5 3 4 0 0 2 0 3"
    ascent="800"
    descent="-200"
    x-height="502"
    cap-height="722"
    bbox="-130 -246 984 1128"
    underline-thickness="50"
    underline-position="-100"
    unicode-range="U+000D-FB04"
  />
<missing-glyph horiz-adv-x="500" 
 />
    <glyph glyph-name="f_f" unicode="ff" horiz-adv-x="590" 
d="M555 725v-74c-60 11 -82 -28 -82 -73v-76h92v-73h-92v-429h-93v429h-179v-429h-93v429h-83v73h83v73c0 92 49 154 140 154c13 0 25 -1 36 -4v-73c-60 11 -83 -28 -83 -73v-77h179v73c0 92 44 154 140 154c15 0 26 -1 35 -4z" />
    <glyph glyph-name="f_i" unicode="fi" horiz-adv-x="542" 
d="M383 0v429h-182v-429h-93v429h-83v73h83v73c0 92 49 154 140 154c13 0 25 -1 36 -4v-73c-60 11 -83 -28 -83 -73v-77h273v-502h-91zM489 661c0 -36 -26 -60 -61 -60s-62 24 -62 60s27 61 62 61s61 -25 61 -61z" />
    <glyph glyph-name="f_l" unicode="fl" horiz-adv-x="537" 
d="M380 0v519l6 131c-29 3 -68 5 -95 5c-65 0 -90 -26 -90 -82v-71h102v-73h-102v-429h-93v429h-83v73h83v73c0 97 55 154 152 154c32 0 95 -7 130 -7h82v-722h-92z" />
    <glyph glyph-name="f_f_i" unicode="ffi" horiz-adv-x="815" 
d="M656 0v429h-182v-429h-93v429h-180v-429h-93v429h-83v73h83v73c0 92 49 154 140 154c13 0 25 -1 36 -4v-73c-60 11 -83 -28 -83 -73v-77h180v73c0 92 44 154 140 154c15 0 26 -1 35 -4v-74c-60 11 -82 -28 -82 -73v-76h273v-502h-91zM762 661c0 -36 -26 -60 -61 -60
s-62 24 -62 60s27 61 62 61s61 -25 61 -61z" />
    <glyph glyph-name="f_f_l" unicode="ffl" horiz-adv-x="810" 
d="M653 0v519l6 131c-29 3 -68 5 -95 5c-65 0 -90 -26 -90 -82v-71h102v-73h-102v-429h-93v429h-180v-429h-93v429h-83v73h83v73c0 92 49 154 140 154c13 0 25 -1 36 -4v-73c-60 11 -83 -28 -83 -73v-77h180v73c0 97 55 154 152 154c32 0 95 -4 130 -7h82v-722h-92z" />
    <glyph glyph-name=".notdef" horiz-adv-x="500" 
 />
    <glyph glyph-name="NULL" horiz-adv-x="0" 
 />
    <glyph glyph-name="CR" unicode="&#xd;" horiz-adv-x="0" 
 />
    <glyph glyph-name="CR" horiz-adv-x="0" 
 />
    <glyph glyph-name="space" unicode=" " horiz-adv-x="260" 
 />
    <glyph glyph-name="exclam" unicode="!" horiz-adv-x="373" 
d="M244 722l-21 -524h-73l-17 524h111zM114 71c0 41 33 72 72 72s72 -31 72 -72s-33 -71 -72 -71s-72 30 -72 71z" />
    <glyph glyph-name="quotedbl" unicode="&#x22;" horiz-adv-x="400" 
d="M73 692h86l-7 -255h-64zM326 692h-86l7 -255h64z" />
    <glyph glyph-name="numbersign" unicode="#" horiz-adv-x="540" 
d="M25 197v69h93l23 149h-83v69h94l30 208h71l-31 -208h141l31 208h71l-31 -208h81v-69h-92l-22 -149h81v-69h-91l-30 -197h-72l31 197h-141l-30 -197h-71l31 197h-84zM189 266h141l23 149h-142z" />
    <glyph glyph-name="dollar" unicode="$" horiz-adv-x="550" 
d="M242 757h61v-65c107 -9 186 -70 195 -190h-94c-5 72 -48 101 -101 112v-226c131 -33 211 -90 211 -199s-82 -178 -211 -189v-131h-61v131c-96 8 -203 59 -206 211h96c0 -46 10 -114 110 -130v230c-107 30 -194 88 -194 197c0 106 80 173 194 184v65zM420 179
c0 60 -37 94 -117 117v-216c91 8 117 60 117 99zM140 512c0 -56 38 -89 102 -108v210c-65 -7 -102 -50 -102 -102z" />
    <glyph glyph-name="percent" unicode="%" horiz-adv-x="930" 
d="M240 692c97 0 154 -88 154 -186c0 -104 -62 -185 -154 -185s-154 81 -154 185c0 98 57 186 154 186zM240 381c64 0 78 79 78 124c0 43 -15 129 -78 129s-78 -86 -78 -129c0 -45 14 -124 78 -124zM264 -33h-75l474 755h75zM690 371c97 0 154 -88 154 -186
c0 -104 -62 -185 -154 -185s-154 81 -154 185c0 98 57 186 154 186zM690 60c64 0 78 79 78 124c0 43 -15 129 -78 129s-78 -86 -78 -129c0 -45 14 -124 78 -124z" />
    <glyph glyph-name="ampersand" unicode="&#x26;" horiz-adv-x="790" 
d="M303 452l225 -236c24 65 30 138 19 194h94c7 -87 -10 -178 -53 -257l147 -153h-118l-78 81c-53 -60 -125 -100 -216 -100c-143 0 -234 100 -234 217c0 99 67 175 142 213c-39 31 -86 93 -86 161c0 92 74 163 191 163c118 0 190 -84 193 -184h-95c0 65 -41 112 -101 112
c-56 0 -97 -33 -97 -90c0 -45 24 -77 67 -121zM329 60c69 0 121 30 157 77l-202 212c-67 -27 -102 -90 -102 -147c0 -91 68 -142 147 -142z" />
    <glyph glyph-name="quotesingle" unicode="'" horiz-adv-x="280" 
d="M96 692h88l-10 -255h-68z" />
    <glyph glyph-name="parenleft" unicode="(" horiz-adv-x="330" 
d="M75 318c0 150 60 305 135 429h74c-72 -131 -121 -265 -121 -429c0 -168 49 -302 121 -429h-74c-75 124 -135 280 -135 429z" />
    <glyph glyph-name="parenright" unicode=")" horiz-adv-x="330" 
d="M255 318c0 -148 -58 -307 -135 -429h-74c72 127 121 261 121 429c0 164 -49 298 -121 429h74c77 -122 135 -280 135 -429z" />
    <glyph glyph-name="asterisk" unicode="*" horiz-adv-x="545" 
d="M235 722h75l-19 -174l140 103l40 -65l-160 -68l158 -73l-37 -68l-141 107l14 -168h-73l22 171l-142 -103l-36 66l157 68l-158 70l37 67l142 -106z" />
    <glyph glyph-name="plus" unicode="+" horiz-adv-x="570" 
d="M245 0v212h-215v78h215v212h80v-212h215v-78h-215v-212h-80z" />
    <glyph glyph-name="comma" unicode="," horiz-adv-x="280" 
d="M207 37c-12 -44 -43 -94 -83 -135h-73c45 35 74 65 93 98c4 7 1 15 -8 15c-39 0 -70 28 -70 69c0 40 32 69 72 69c39 0 70 -26 73 -69c1 -16 0 -32 -4 -47z" />
    <glyph glyph-name="hyphen" unicode="-" horiz-adv-x="350" 
d="M45 225v76h260v-76h-260z" />
    <glyph glyph-name="period" unicode="." horiz-adv-x="280" 
d="M68 71c0 41 33 72 72 72s72 -31 72 -72s-33 -71 -72 -71s-72 30 -72 71z" />
    <glyph glyph-name="slash" unicode="/" horiz-adv-x="292" 
d="M-20 -96l254 818h78l-255 -818h-77z" />
    <glyph glyph-name="zero" unicode="0" horiz-adv-x="540" 
d="M41 339c0 108 33 369 229 369c179 0 229 -217 229 -353c0 -155 -52 -369 -231 -369c-166 0 -227 200 -227 353zM137 344c0 -154 42 -276 132 -276c103 0 134 154 134 278c0 166 -48 282 -132 282c-111 0 -134 -160 -134 -284z" />
    <glyph glyph-name="one" unicode="1" horiz-adv-x="450" 
d="M236 0v598h-6c-16 -27 -150 -251 -210 -315v141c48 56 157 214 186 269h124v-693h-94z" />
    <glyph glyph-name="two" unicode="2" horiz-adv-x="540" 
d="M470 0h-409c-1 9 -1 17 -1 26c0 16 0 33 1 48c13 126 72 183 150 232c32 20 64 43 99 70c41 31 73 70 73 134c0 61 -41 116 -110 116c-94 0 -124 -83 -116 -151h-97c-11 128 75 233 215 233c125 0 205 -92 205 -202c0 -84 -42 -147 -114 -200c-35 -25 -76 -52 -111 -72
c-43 -27 -111 -67 -106 -153h321v-81z" />
    <glyph glyph-name="three" unicode="3" horiz-adv-x="540" 
d="M38 197h98c-1 -80 48 -132 123 -132c69 0 116 45 116 113c0 101 -79 132 -151 135l-45 2v76l36 2c69 5 158 28 158 126c0 75 -56 109 -109 109c-55 0 -113 -34 -113 -109h-96c8 152 143 189 208 189c137 0 208 -91 208 -187c0 -63 -38 -127 -130 -162v-6
c96 -29 132 -107 132 -171c0 -104 -81 -199 -216 -199c-116 0 -216 80 -219 214z" />
    <glyph glyph-name="four" unicode="4" horiz-adv-x="540" 
d="M325 0v150h-293v110c25 39 51 82 79 129c51 84 113 188 182 311h128v-470h79v-80h-79v-150h-96zM110 229h219v373h-6c-51 -92 -104 -183 -145 -252c-23 -40 -46 -78 -68 -115v-6z" />
    <glyph glyph-name="five" unicode="5" horiz-adv-x="540" 
d="M63 194h96c-3 -74 44 -127 105 -127c85 0 127 80 127 169c0 100 -39 165 -107 165c-55 0 -100 -35 -119 -84h-76v375h374v-81h-290l-10 -192h6c21 24 63 60 131 60c128 0 186 -118 186 -237c0 -149 -85 -257 -224 -257c-108 0 -199 85 -199 209z" />
    <glyph glyph-name="six" unicode="6" horiz-adv-x="521" 
d="M458 529h-94c3 57 -20 103 -80 103c-84 0 -152 -97 -155 -279h6c21 37 72 88 155 88c94 0 187 -75 187 -222c0 -139 -87 -234 -206 -234c-147 0 -231 154 -231 334c0 151 51 389 246 389c136 0 177 -104 172 -179zM271 65c60 0 112 58 112 146c0 91 -40 150 -107 151
c-68 0 -124 -56 -127 -117c0 -90 39 -180 122 -180z" />
    <glyph glyph-name="seven" unicode="7" horiz-adv-x="505" 
d="M20 609v83h432v-96c-58 -127 -125 -275 -176 -393c-31 -69 -60 -136 -89 -203h-103l98 209c37 81 62 134 93 198l93 196v6h-348z" />
    <glyph glyph-name="eight" unicode="8" horiz-adv-x="540" 
d="M270 395c70 0 122 52 122 120s-51 115 -122 115s-122 -47 -122 -115s52 -120 122 -120zM270 69c78 0 129 58 129 119c0 76 -57 123 -129 123s-129 -47 -129 -123c0 -61 51 -119 129 -119zM270 706c143 0 215 -101 215 -185c0 -68 -35 -129 -104 -162v-6
c47 -18 115 -75 115 -170c0 -100 -87 -195 -226 -195s-226 95 -226 195c0 95 68 152 115 170v6c-69 33 -104 94 -104 162c0 84 72 185 215 185z" />
    <glyph glyph-name="nine" unicode="9" horiz-adv-x="540" 
d="M48 192h96c-4 -80 37 -129 101 -129c84 0 149 88 144 283h-6c-21 -32 -65 -83 -150 -83c-94 0 -188 74 -188 217c0 133 92 228 210 228c150 0 226 -151 226 -339c0 -154 -37 -384 -238 -384c-135 0 -200 119 -195 207zM252 627c-63 0 -114 -54 -114 -143
c0 -91 43 -138 110 -139c68 0 121 55 124 115c0 90 -36 167 -120 167z" />
    <glyph glyph-name="colon" unicode=":" horiz-adv-x="280" 
d="M68 71c0 41 33 72 72 72s72 -31 72 -72s-33 -71 -72 -71s-72 30 -72 71zM68 430c0 41 33 72 72 72s72 -31 72 -72s-33 -71 -72 -71s-72 30 -72 71z" />
    <glyph glyph-name="semicolon" unicode=";" horiz-adv-x="280" 
d="M207 37c-12 -44 -43 -94 -83 -135h-73c45 35 74 65 93 98c4 7 1 15 -8 15c-39 0 -70 28 -70 69c0 40 32 69 72 69c39 0 70 -26 73 -69c1 -16 0 -32 -4 -47zM68 430c0 41 33 72 72 72s72 -31 72 -72s-33 -71 -72 -71s-72 30 -72 71z" />
    <glyph glyph-name="less" unicode="&#x3c;" horiz-adv-x="570" 
d="M30 211v82l510 202v-84l-415 -156v-6l415 -155v-85z" />
    <glyph glyph-name="equal" unicode="=" horiz-adv-x="570" 
d="M30 315v77h510v-77h-510zM30 113v77h510v-77h-510z" />
    <glyph glyph-name="greater" unicode="&#x3e;" horiz-adv-x="570" 
d="M540 293v-82l-510 -202v85l415 155v6l-415 156v84z" />
    <glyph glyph-name="question" unicode="?" horiz-adv-x="500" 
d="M145 519h-94c-8 153 104 212 203 212c111 0 201 -75 201 -190c0 -84 -47 -139 -116 -195c-51 -40 -60 -81 -57 -130l1 -18h-83l-1 20c-5 92 28 135 87 191c48 44 73 78 73 129c0 73 -47 114 -106 114c-60 0 -119 -40 -108 -133zM171 71c0 41 33 72 72 72s72 -31 72 -72
s-33 -71 -72 -71s-72 30 -72 71z" />
    <glyph glyph-name="at" unicode="@" horiz-adv-x="860" 
d="M611 332v67c0 73 -43 112 -119 112c-173 0 -326 -125 -326 -320s152 -299 325 -299c136 0 218 54 286 125l48 -61c-81 -77 -191 -135 -335 -135c-212 0 -405 133 -405 369c0 240 201 387 407 387c116 0 203 -59 203 -179v-264c0 -17 1 -34 1 -49c0 -8 0 -16 1 -23h-88
l2 62h-6c-40 -43 -95 -77 -159 -77c-96 0 -149 63 -149 150c0 91 65 150 168 153c56 1 103 -7 146 -18zM610 189v86c-39 7 -85 13 -128 12c-64 0 -96 -38 -96 -85c0 -51 32 -86 96 -85c57 0 104 45 128 72z" />
    <glyph glyph-name="A" unicode="A" horiz-adv-x="635" 
d="M453 183h-274l-58 -183h-101l238 722h110l247 -722h-101zM204 264h222l-110 344h-6z" />
    <glyph glyph-name="B" unicode="B" horiz-adv-x="564" 
d="M70 0v722h180c139 0 240 -75 240 -194c0 -97 -71 -145 -111 -158v-6c43 -8 135 -57 135 -165c0 -129 -104 -199 -248 -199h-196zM167 322v-241l105 1c79 0 141 43 141 119c0 66 -59 120 -140 120zM166 640v-236l83 1c44 0 142 14 142 117c0 88 -83 117 -138 117z" />
    <glyph glyph-name="C" unicode="C" horiz-adv-x="700" 
d="M654 502h-103c-3 71 -57 147 -168 147c-152 0 -242 -125 -242 -291c0 -147 79 -282 242 -282c114 0 177 75 180 149h102c-16 -142 -137 -237 -283 -237c-248 0 -342 213 -342 369c0 176 107 375 342 375c145 0 261 -91 272 -230z" />
    <glyph glyph-name="D" unicode="D" horiz-adv-x="681" 
d="M70 0v722h172c220 0 399 -130 399 -367c0 -207 -151 -355 -406 -355h-165zM170 639v-557l68 1c190 3 299 109 299 271c0 156 -100 281 -290 284z" />
    <glyph glyph-name="E" unicode="E" horiz-adv-x="538" 
d="M70 0v722h417v-85h-318v-225h304v-84h-303v-240h328v-88h-428z" />
    <glyph glyph-name="F" unicode="F" horiz-adv-x="503" 
d="M70 0v722h403v-85h-301v-238h284v-84h-284v-315h-102z" />
    <glyph glyph-name="G" unicode="G" horiz-adv-x="733" 
d="M670 502h-106c-3 84 -68 153 -171 153c-161 0 -250 -131 -250 -295c0 -177 76 -294 238 -294c124 0 215 76 212 194l-298 -29v99h394l-2 -57c-8 -192 -148 -288 -308 -288c-224 0 -339 169 -339 374c0 200 132 374 353 374c148 0 269 -96 277 -231z" />
    <glyph glyph-name="H" unicode="H" horiz-adv-x="689" 
d="M70 722h100v-314h349v314h100v-722h-100v322h-349v-322h-100v722z" />
    <glyph glyph-name="I" unicode="I" horiz-adv-x="240" 
d="M70 0v722h100v-722h-100z" />
    <glyph glyph-name="J" unicode="J" horiz-adv-x="498" 
d="M20 210h101c0 -70 23 -137 100 -137c72 0 107 51 107 139v510h100v-510c0 -141 -88 -223 -209 -223c-128 0 -199 96 -199 221z" />
    <glyph glyph-name="K" unicode="K" horiz-adv-x="610" 
d="M70 0v722h99v-340h6l275 340h123l-297 -350l324 -372h-126l-299 349h-6v-349h-99z" />
    <glyph glyph-name="L" unicode="L" horiz-adv-x="485" 
d="M70 0v722h99v-633l296 1v-90h-395z" />
    <glyph glyph-name="M" unicode="M" horiz-adv-x="910" 
d="M50 0l99 722h124l182 -566h6l177 566h123l99 -722h-102l-70 573h-7l-188 -586h-73l-192 586h-7l-69 -573h-102z" />
    <glyph glyph-name="N" unicode="N" horiz-adv-x="750" 
d="M70 0v722h99l413 -566h6v566h92v-722h-100l-413 569h-6v-569h-91z" />
    <glyph glyph-name="O" unicode="O" horiz-adv-x="796" 
d="M756 362c0 -237 -167 -379 -360 -379s-356 151 -356 383c0 196 138 375 357 375s359 -174 359 -379zM652 363c0 179 -108 294 -256 294c-155 0 -252 -133 -252 -293c0 -170 97 -296 252 -296c167 0 256 135 256 295z" />
    <glyph glyph-name="P" unicode="P" horiz-adv-x="562" 
d="M70 0v722h188c148 0 274 -74 274 -221c0 -156 -135 -227 -284 -227h-78v-274h-100zM169 641v-283l79 1c67 0 179 24 179 142c0 112 -109 139 -167 139z" />
    <glyph glyph-name="Q" unicode="Q" horiz-adv-x="815" 
d="M40 360c0 238 169 379 360 379c196 0 356 -151 356 -383c0 -84 -28 -166 -77 -233c49 -31 86 -41 101 -44l-39 -79c-16 3 -65 17 -122 60c-59 -48 -132 -75 -220 -75c-219 0 -359 171 -359 375zM144 361c0 -179 108 -298 256 -298c64 0 118 22 153 55
c-82 80 -154 98 -198 106l42 79c84 -13 154 -63 213 -122c31 49 45 109 45 177c0 171 -100 298 -255 298c-167 0 -256 -135 -256 -295z" />
    <glyph glyph-name="R" unicode="R" horiz-adv-x="598" 
d="M70 0v722h170c139 0 268 -65 268 -201c0 -109 -89 -174 -193 -193l283 -328h-125l-267 316h-37v-316h-99zM167 638v-238l75 1c77 0 163 31 163 117c0 91 -89 119 -164 119z" />
    <glyph glyph-name="S" unicode="S" horiz-adv-x="596" 
d="M40 218h104c0 -53 27 -150 159 -150c118 0 151 72 151 117c0 78 -55 104 -172 131c-128 29 -231 93 -231 214c0 135 108 210 241 210c132 0 236 -73 244 -210h-103c-5 91 -71 127 -143 127c-84 0 -139 -54 -139 -122c0 -80 76 -108 173 -130c140 -32 232 -86 232 -209
c0 -126 -98 -213 -261 -213c-114 0 -252 56 -255 235z" />
    <glyph glyph-name="T" unicode="T" horiz-adv-x="565" 
d="M333 0h-99v637h-214v85h525v-85h-212v-637z" />
    <glyph glyph-name="U" unicode="U" horiz-adv-x="673" 
d="M70 722h100v-454c0 -141 70 -194 167 -194c164 0 169 143 169 195v453h97v-451c0 -213 -124 -286 -266 -286c-157 0 -267 89 -267 284v453z" />
    <glyph glyph-name="V" unicode="V" horiz-adv-x="624" 
d="M604 722l-224 -722h-117l-243 722h110l190 -607h6l177 607h101z" />
    <glyph glyph-name="W" unicode="W" horiz-adv-x="960" 
d="M30 722h109l120 -585h6l157 585h121l156 -585h6l124 585h101l-170 -722h-119l-157 599h-6l-162 -599h-118z" />
    <glyph glyph-name="X" unicode="X" horiz-adv-x="618" 
d="M29 722h122l156 -268h6l152 268h118l-214 -346l229 -376h-120l-167 290h-6l-164 -290h-121l227 374z" />
    <glyph glyph-name="Y" unicode="Y" horiz-adv-x="587" 
d="M347 266v-266h-101v266c0 10 -5 16 -14 18l-217 438h118l163 -366h6l160 366h110l-212 -438c-9 -3 -13 -9 -13 -18z" />
    <glyph glyph-name="Z" unicode="Z" horiz-adv-x="542" 
d="M30 0v98l376 530v6h-356v88h462v-103l-373 -525v-6h367v-88h-476z" />
    <glyph glyph-name="bracketleft" unicode="[" horiz-adv-x="330" 
d="M100 -129v877h175v-56h-96v-765h96v-56h-175z" />
    <glyph glyph-name="backslash" unicode="\" horiz-adv-x="332" 
d="M78 722l254 -818h-77l-255 818h78z" />
    <glyph glyph-name="bracketright" unicode="]" horiz-adv-x="330" 
d="M230 748v-877h-175v56h96v765h-96v56h175z" />
    <glyph glyph-name="asciicircum" unicode="^" horiz-adv-x="570" 
d="M70 274l178 418h74l178 -418h-84l-128 320h-6l-128 -320h-84z" />
    <glyph glyph-name="underscore" unicode="_" horiz-adv-x="490" 
d="M0 -87v68h490v-68h-490z" />
    <glyph glyph-name="grave" unicode="`" horiz-adv-x="330" 
d="M50 669l41 73l189 -121l-35 -58z" />
    <glyph glyph-name="a" unicode="a" horiz-adv-x="523" 
d="M467 0h-95l2 23c1 15 2 29 2 41h-5c-43 -45 -102 -77 -169 -77c-99 0 -157 65 -157 153c0 93 69 158 176 161c60 1 108 -9 152 -22v54c0 72 -39 112 -111 112s-109 -42 -106 -89h-101c19 88 89 160 207 160c113 0 199 -58 199 -183v-250c0 -23 -1 -56 6 -83zM371 133v89
c-39 8 -86 15 -131 14c-65 -1 -103 -38 -103 -91c0 -55 33 -86 97 -86c60 0 113 47 137 74z" />
    <glyph glyph-name="b" unicode="b" horiz-adv-x="562" 
d="M160 722v-220v-47c-1 -7 -1 -14 -1 -21h6c14 22 59 81 148 81c132 0 209 -117 209 -262c0 -139 -79 -262 -220 -262c-67 0 -111 31 -146 83h-6c0 -23 0 -53 -1 -74h-85c1 20 2 51 2 74v648h94zM424 253c0 104 -41 190 -133 190c-79 0 -128 -78 -131 -133v-122
c5 -52 56 -124 126 -124c92 0 138 76 138 189z" />
    <glyph glyph-name="c" unicode="c" horiz-adv-x="521" 
d="M486 341h-97c-3 37 -36 101 -111 101c-93 0 -139 -85 -139 -192c0 -103 49 -188 140 -188c70 0 109 55 117 106h95c-16 -97 -88 -181 -212 -181c-144 0 -239 113 -239 262c0 164 106 266 240 266c108 0 195 -75 206 -174z" />
    <glyph glyph-name="d" unicode="d" horiz-adv-x="561" 
d="M402 502v220h94v-648c0 -21 -1 -54 2 -74h-85c-1 21 -1 51 -1 74h-6c-35 -52 -82 -83 -149 -83c-141 0 -217 123 -217 262c0 145 77 262 209 262c91 0 134 -59 148 -81h6v21c-1 15 -1 30 -1 47zM138 253c0 -113 46 -189 138 -189c69 0 123 72 126 124v122
c-3 55 -52 133 -131 133c-92 0 -133 -86 -133 -190z" />
    <glyph glyph-name="e" unicode="e" horiz-adv-x="533" 
d="M491 238h-358c0 -104 51 -180 147 -180c63 0 108 40 120 97h92c-11 -83 -86 -170 -217 -170c-141 0 -235 107 -235 270c0 140 88 260 229 260c183 0 235 -159 222 -277zM137 306l261 2c0 48 -25 139 -127 139c-68 0 -125 -49 -134 -141z" />
    <glyph glyph-name="f" unicode="f" horiz-adv-x="318" 
d="M283 725v-74c-60 11 -82 -28 -82 -73v-76h92v-73h-92v-429h-93v429h-83v73h83v73c0 92 44 154 140 154c15 0 26 -1 35 -4z" />
    <glyph glyph-name="g" unicode="g" horiz-adv-x="564" 
d="M136 262c0 -113 53 -182 138 -182c70 0 121 65 126 117v123c-3 55 -54 122 -128 122c-95 0 -136 -80 -136 -180zM494 376v-359c0 -147 -93 -218 -216 -218c-147 0 -199 98 -207 165h95c5 -56 45 -100 113 -100c83 0 123 52 123 145c0 20 0 39 1 54v25h-6
c-27 -48 -80 -80 -140 -80c-141 0 -217 112 -217 248c0 145 86 253 214 253c90 0 131 -52 144 -75h6c3 19 5 43 10 68h90c-8 -37 -10 -90 -10 -126z" />
    <glyph glyph-name="h" unicode="h" horiz-adv-x="556" 
d="M65 0v722h93v-220v-26c0 -16 -1 -37 -1 -60h6c13 23 67 95 160 95c56 0 168 -29 168 -184v-327h-96v329c0 69 -31 110 -88 110c-70 0 -126 -64 -147 -147v-292h-95z" />
    <glyph glyph-name="i" unicode="i" horiz-adv-x="224" 
d="M65 0v502h94v-502h-94zM51 661c0 36 26 61 61 61s62 -25 62 -61s-27 -60 -62 -60s-61 24 -61 60z" />
    <glyph glyph-name="j" unicode="j" horiz-adv-x="233" 
d="M0 -193v71c48 0 72 15 72 86v538h94v-535c0 -59 -17 -164 -128 -164c-12 0 -26 1 -38 4zM57 661c0 36 26 61 61 61s62 -25 62 -61s-27 -60 -62 -60s-61 24 -61 60z" />
    <glyph glyph-name="k" unicode="k" horiz-adv-x="500" 
d="M65 0v722h93v-443h6l208 224h120l-232 -235l240 -268h-119l-217 251h-6v-251h-93z" />
    <glyph glyph-name="l" unicode="l" horiz-adv-x="224" 
d="M159 519v-519h-94v722h84z" />
    <glyph glyph-name="m" unicode="m" horiz-adv-x="856" 
d="M385 0v343c0 67 -35 97 -80 97c-63 0 -128 -64 -144 -151v-289h-95v413c0 28 -1 62 -6 89h98c1 -9 1 -18 1 -27v-62h6c11 21 57 102 158 102c54 0 113 -20 139 -102h6c21 36 62 102 160 102c66 0 168 -33 168 -180v-335h-95v345c0 67 -38 96 -85 96
c-57 0 -111 -52 -136 -140v-301h-95z" />
    <glyph glyph-name="n" unicode="n" horiz-adv-x="551" 
d="M65 0v416c0 25 -1 57 -5 86h97v-86h6c13 23 68 96 162 96c60 0 166 -33 166 -185v-327h-96v329c0 69 -31 110 -88 110c-70 0 -126 -64 -147 -147v-292h-95z" />
    <glyph glyph-name="o" unicode="o" horiz-adv-x="578" 
d="M40 251c0 116 78 264 251 264c172 0 247 -152 247 -265c0 -133 -87 -267 -247 -267c-159 0 -251 127 -251 268zM138 251c0 -103 47 -197 152 -197c77 0 150 61 150 198c0 128 -69 192 -150 192c-65 0 -152 -42 -152 -193z" />
    <glyph glyph-name="p" unicode="p" horiz-adv-x="561" 
d="M159 0v-193h-94v621c0 21 -1 54 -2 74h88c1 -19 1 -56 1 -75h6c35 52 82 84 149 84c139 0 214 -123 214 -262c0 -145 -77 -262 -209 -262c-89 0 -134 59 -148 81h-6c0 -7 0 -14 1 -22v-46zM423 249c0 113 -45 189 -137 189c-70 0 -122 -73 -127 -125v-121
c3 -55 52 -133 131 -133c92 0 133 86 133 190z" />
    <glyph glyph-name="q" unicode="q" horiz-adv-x="562" 
d="M402 -193v193v21c0 13 1 28 1 47h-6c-14 -22 -57 -81 -148 -81c-132 0 -209 117 -209 262c0 139 76 262 216 262c67 0 112 -32 147 -84h6c0 24 -1 51 2 75h89c-3 -23 -4 -54 -4 -74v-621h-94zM138 249c0 -104 41 -190 133 -190c79 0 128 78 131 133v121
c-3 52 -59 125 -127 125c-92 0 -137 -76 -137 -189z" />
    <glyph glyph-name="r" unicode="r" horiz-adv-x="375" 
d="M65 0v371c0 45 -1 88 -6 131h90l5 -131h6c16 65 74 139 146 139c28 0 49 -7 64 -14v-86c-15 7 -36 13 -56 13c-95 0 -149 -94 -154 -200v-223h-95z" />
    <glyph glyph-name="s" unicode="s" horiz-adv-x="463" 
d="M40 149h97c0 -41 28 -91 100 -91c56 0 94 29 94 74c0 43 -36 65 -108 84c-105 27 -179 70 -179 153c0 91 76 145 184 145c94 0 175 -54 180 -150h-95c-3 51 -41 81 -88 81c-41 0 -88 -18 -88 -69c0 -43 40 -64 115 -81c108 -25 176 -70 176 -154
c0 -96 -85 -154 -195 -154c-92 0 -188 49 -193 162z" />
    <glyph glyph-name="t" unicode="t" horiz-adv-x="355" 
d="M20 430v72h82l17 150h74v-150h142v-72h-142v-283c0 -45 22 -72 69 -72c28 0 58 8 73 15v-74c-17 -12 -49 -25 -84 -25c-97 0 -151 58 -151 155v284h-80z" />
    <glyph glyph-name="u" unicode="u" horiz-adv-x="563" 
d="M399 502h97v-416c0 -25 2 -59 7 -86h-97c-3 21 -2 58 -1 87h-6c-11 -21 -63 -94 -163 -94c-67 0 -171 37 -171 189v320h96v-321c0 -67 30 -112 95 -112c68 0 127 59 143 147v286z" />
    <glyph glyph-name="v" unicode="v" horiz-adv-x="507" 
d="M204 0l-184 502h101l138 -410h6l126 410h96l-168 -502h-115z" />
    <glyph glyph-name="w" unicode="w" horiz-adv-x="826" 
d="M707 502h99l-164 -502h-111l-119 415h-6l-125 -415h-108l-153 502h97l106 -400h6l122 400h122l111 -400h6z" />
    <glyph glyph-name="x" unicode="x" horiz-adv-x="505" 
d="M310 261l170 -261h-108l-117 194h-6l-115 -194h-109l168 256l-156 246h110l102 -181h6l107 181h107z" />
    <glyph glyph-name="y" unicode="y" horiz-adv-x="510" 
d="M392 502h98c-165 -503 -179 -539 -203 -602c-31 -79 -81 -102 -142 -102c-21 0 -49 3 -66 10v80c15 -5 41 -9 54 -9c33 0 51 12 66 41c10 20 27 64 30 80c5 23 -9 35 -29 34l-180 468h104l140 -398h6z" />
    <glyph glyph-name="z" unicode="z" horiz-adv-x="455" 
d="M30 0v89l293 336v6h-285v71h387v-82l-298 -341v-6h298v-73h-395z" />
    <glyph glyph-name="braceleft" unicode="{" horiz-adv-x="330" 
d="M30 276v70c126 8 116 78 108 142l-7 62c-13 116 34 202 182 205v-63c-113 -11 -109 -74 -101 -142l7 -62c8 -79 9 -158 -120 -174v-6c128 -16 128 -95 120 -174l-7 -63c-8 -67 -10 -131 101 -142v-63c-148 3 -195 89 -182 205l7 63c8 64 18 134 -108 142z" />
    <glyph glyph-name="bar" unicode="|" horiz-adv-x="260" 
d="M89 747h82v-930h-82v930z" />
    <glyph glyph-name="braceright" unicode="}" horiz-adv-x="330" 
d="M300 346v-70c-126 -8 -116 -78 -108 -142l7 -63c13 -116 -34 -202 -182 -205v63c113 11 109 74 101 142l-7 63c-8 79 -8 158 120 174v6c-129 16 -128 95 -120 174l7 62c8 68 12 131 -101 142v63c148 -3 195 -89 182 -205l-7 -62c-8 -64 -18 -134 108 -142z" />
    <glyph glyph-name="asciitilde" unicode="~" horiz-adv-x="570" 
d="M80 180h-62c8 71 37 153 138 153c33 0 65 -6 140 -36c68 -27 98 -38 122 -38c31 0 61 12 72 69h62c-8 -71 -36 -156 -138 -156c-33 0 -71 6 -146 39c-63 27 -92 37 -116 37c-29 0 -61 -11 -72 -68z" />
    <glyph glyph-name="nbspace" unicode="&#xa0;" horiz-adv-x="260" 
 />
    <glyph glyph-name="exclamdown" unicode="&#xa1;" horiz-adv-x="373" 
d="M223 304l21 -524h-111l17 524h73zM114 431c0 41 33 71 72 71s72 -30 72 -71s-33 -72 -72 -72s-72 31 -72 72z" />
    <glyph glyph-name="cent" unicode="&#xa2;" horiz-adv-x="550" 
d="M174 -128h-65l51 146c-75 43 -117 127 -117 231c0 164 108 266 241 266c17 0 37 -3 53 -7l42 122h65l-51 -145c55 -31 89 -83 96 -144h-97c-3 40 -29 101 -110 101c-93 0 -141 -85 -141 -192c0 -106 46 -188 142 -188c72 0 105 55 116 106h95c-16 -97 -88 -181 -212 -181
c-24 0 -46 3 -66 8z" />
    <glyph glyph-name="sterling" unicode="&#xa3;" horiz-adv-x="550" 
d="M136 414v121c0 108 76 187 199 187c127 0 192 -82 195 -189h-95c1 67 -33 116 -100 116s-104 -46 -104 -110v-125h166v-67h-166v-268h286v-79h-467v79h84v268h-84v67h86z" />
    <glyph glyph-name="currency" unicode="&#xa4;" horiz-adv-x="540" 
d="M270 550c47 0 96 -16 131 -43l60 62l55 -55l-61 -60c24 -33 43 -86 43 -130c0 -47 -16 -97 -43 -132l61 -59l-55 -54l-60 60c-36 -27 -83 -42 -131 -42s-95 15 -131 42l-60 -60l-55 54l61 59c-27 35 -43 85 -43 132c0 44 19 97 43 130l-61 60l55 55l60 -62
c35 27 84 43 131 43zM270 174c87 0 149 62 149 150c0 86 -62 149 -149 149s-149 -63 -149 -149c0 -88 62 -150 149 -150z" />
    <glyph glyph-name="yen" unicode="&#xa5;" horiz-adv-x="550" 
d="M44 345h153l-175 347h106l147 -331h6l147 331h101l-176 -347h154v-62h-182v-58h182v-62h-182v-163h-99v163h-182v62h182v58h-182v62z" />
    <glyph glyph-name="brokenbar" unicode="&#xa6;" horiz-adv-x="260" 
d="M89 157h82v-350h-82v350zM89 692h82v-350h-82v350z" />
    <glyph glyph-name="section" unicode="&#xa7;" horiz-adv-x="540" 
d="M60 336c0 56 36 94 75 121c-41 37 -65 81 -65 134c0 95 80 163 196 163c100 0 160 -51 199 -122l-76 -40c-21 52 -59 90 -124 90c-76 0 -110 -43 -110 -90c0 -41 22 -76 66 -103c37 -23 88 -53 120 -72c77 -43 138 -87 138 -172c0 -56 -38 -94 -75 -121
c40 -37 65 -82 65 -134c0 -95 -80 -163 -196 -163c-100 0 -160 51 -199 122l76 40c21 -52 59 -90 124 -90c76 0 110 43 110 90c0 41 -22 76 -66 103c-37 23 -88 53 -120 72c-77 43 -138 88 -138 172zM238 232c36 -21 79 -47 114 -70v1c23 13 43 38 43 69
c0 53 -30 80 -94 117c-36 21 -79 48 -114 69c-23 -13 -43 -38 -43 -69c0 -53 30 -80 94 -117z" />
    <glyph glyph-name="dieresis" unicode="&#xa8;" horiz-adv-x="410" 
d="M50 645c0 37 27 62 62 62s63 -25 63 -62s-28 -61 -63 -61s-62 24 -62 61zM235 645c0 37 27 62 62 62s63 -25 63 -62s-28 -61 -63 -61s-62 24 -62 61z" />
    <glyph glyph-name="copyright" unicode="&#xa9;" horiz-adv-x="800" 
d="M570 449h-66c-3 42 -32 85 -99 85c-85 0 -135 -71 -135 -170c0 -88 44 -166 136 -166c68 0 102 43 105 87h66c-11 -85 -84 -141 -171 -141c-149 0 -201 128 -201 219c0 104 60 222 201 222c88 0 156 -53 164 -136zM39 361c0 203 159 361 361 361c203 0 361 -158 361 -361
c0 -202 -158 -361 -361 -361c-202 0 -361 159 -361 361zM94 361c0 -174 134 -308 306 -308s306 134 306 308s-134 308 -306 308s-306 -134 -306 -308z" />
    <glyph glyph-name="ordfeminine" unicode="&#xaa;" horiz-adv-x="370" 
d="M314 393h-62l3 39h-6c-27 -27 -62 -48 -101 -48c-64 0 -104 39 -104 99s46 101 114 101c35 0 63 -5 96 -13v35c0 44 -26 71 -69 71s-70 -28 -67 -57h-66c11 56 59 102 132 102c70 0 128 -34 128 -115v-163c0 -12 1 -25 1 -34c0 -6 0 -12 1 -17zM253 477v57
c-25 5 -54 9 -82 9c-43 -1 -63 -25 -63 -57c0 -33 23 -56 63 -55c37 1 67 29 82 46z" />
    <glyph glyph-name="guillemotleft" unicode="&#xab;" horiz-adv-x="522" 
d="M276 53h-87l-134 200l134 198h86l-127 -198zM472 53h-87l-134 200l134 198h86l-127 -198z" />
    <glyph glyph-name="logicalnot" unicode="&#xac;" horiz-adv-x="570" 
d="M30 316v78h510v-283h-77v205h-433z" />
    <glyph glyph-name="uni00AD" unicode="&#xad;" horiz-adv-x="350" 
d="M45 225v76h260v-76h-260z" />
    <glyph glyph-name="registered" unicode="&#xae;" horiz-adv-x="800" 
d="M39 361c0 203 159 361 361 361c203 0 361 -158 361 -361c0 -202 -158 -361 -361 -361c-202 0 -361 159 -361 361zM94 361c0 -174 134 -308 306 -308s306 134 306 308s-134 308 -306 308s-306 -134 -306 -308zM270 153v426h114c88 0 162 -37 162 -120
c0 -67 -59 -104 -120 -117l164 -189h-78l-152 182h-29v-182h-61zM331 528v-143l52 1c45 0 98 18 98 72c0 57 -55 69 -98 69z" />
    <glyph glyph-name="macron" unicode="&#xaf;" horiz-adv-x="390" 
d="M50 594v71h290v-71h-290z" />
    <glyph glyph-name="degree" unicode="&#xb0;" horiz-adv-x="402" 
d="M201 692c85 0 156 -67 156 -154c0 -85 -68 -154 -156 -154c-85 0 -156 69 -156 154c0 87 71 154 156 154zM201 627c-48 0 -89 -38 -89 -89c0 -49 40 -89 89 -89c51 0 89 41 89 89c0 49 -40 89 -89 89z" />
    <glyph glyph-name="plusminus" unicode="&#xb1;" horiz-adv-x="570" 
d="M245 130v171h-215v78h215v169h80v-169h215v-78h-215v-171h-80zM540 0h-510v78h510v-78z" />
    <glyph glyph-name="two.sups" unicode="&#xb2;" 
d="M297 457h-267c-1 5 -1 10 -1 15c0 9 0 19 1 28c8 77 47 114 99 141c21 11 44 25 67 40c25 19 43 41 43 80c0 36 -26 69 -71 69c-60 0 -76 -50 -71 -89h-61c-8 77 43 139 133 139c83 0 134 -54 134 -121c0 -55 -28 -93 -76 -125c-23 -16 -47 -28 -70 -39
c-31 -15 -73 -37 -70 -89h210v-49z" />
    <glyph glyph-name="three.sups" unicode="&#xb3;" 
d="M21 576h66c0 -47 28 -76 75 -76c43 0 70 27 70 66c0 59 -49 75 -97 78l-26 1v50l27 2c48 3 95 20 95 72c0 44 -32 63 -67 63s-68 -18 -69 -62h-63c5 90 89 112 131 112c88 0 133 -55 133 -111c0 -35 -17 -77 -80 -97v-3c61 -19 82 -65 82 -104c0 -62 -48 -118 -136 -118
c-79 0 -134 50 -141 127z" />
    <glyph glyph-name="acute" unicode="&#xb4;" horiz-adv-x="330" 
d="M239 742l41 -73l-195 -106l-35 58z" />
    <glyph glyph-name="uni00B5" unicode="&#xb5;" horiz-adv-x="563" 
d="M164 16h-6c1 -21 2 -41 2 -57v-25v-127h-95v695h96v-321c0 -67 30 -112 95 -112c68 0 127 59 143 147v286h97v-416c0 -25 2 -59 7 -86h-97c-3 21 -2 58 -1 87h-6c-11 -21 -64 -94 -160 -94c-24 0 -55 6 -75 23z" />
    <glyph glyph-name="paragraph" unicode="&#xb6;" horiz-adv-x="530" 
d="M450 722v-915h-76v845h-104v-845h-77v467c-156 13 -198 129 -198 228s59 220 251 220h204z" />
    <glyph glyph-name="periodcentered" unicode="&#xb7;" horiz-adv-x="280" 
d="M68 346c0 41 33 72 72 72s72 -31 72 -72s-33 -71 -72 -71s-72 30 -72 71z" />
    <glyph glyph-name="cedilla" unicode="&#xb8;" horiz-adv-x="314" 
d="M50 -193l20 41c12 -7 38 -17 67 -17c35 0 56 16 56 43c0 23 -18 35 -45 35c-15 0 -32 -4 -44 -9l-27 22l61 87h58l-57 -65l3 -4c11 4 29 9 48 9c45 0 70 -29 70 -69c0 -49 -41 -94 -121 -94c-41 0 -66 9 -89 21z" />
    <glyph glyph-name="one.sups" unicode="&#xb9;" 
d="M176 457v355h-4c-18 -32 -92 -143 -132 -186v87c33 33 93 121 116 160h82v-416h-62z" />
    <glyph glyph-name="ordmasculine" unicode="&#xba;" horiz-adv-x="370" 
d="M38 554c0 73 47 168 157 168c108 0 155 -92 155 -167c0 -84 -56 -171 -155 -171c-100 0 -157 80 -157 170zM101 554c0 -67 30 -118 94 -118c45 0 92 34 92 119c0 76 -44 117 -92 117c-44 0 -94 -29 -94 -118z" />
    <glyph glyph-name="guillemotright" unicode="&#xbb;" horiz-adv-x="522" 
d="M333 53h-87l128 200l-127 198h86l134 -198zM137 53h-87l128 200l-127 198h86l134 -198z" />
    <glyph glyph-name="onequarter" unicode="&#xbc;" horiz-adv-x="835" 
d="M642 0v97h-190v65l51 73l119 183h83v-274h54v-48h-54v-96h-63zM503 144h142v216h-4l-94 -147l-44 -66v-3zM177 0l416 722h61l-416 -722h-61zM199 277v355h-4c-18 -32 -92 -143 -132 -186v87c33 33 93 121 116 160h82v-416h-62z" />
    <glyph glyph-name="onehalf" unicode="&#xbd;" horiz-adv-x="835" 
d="M185 277v355h-4c-18 -32 -92 -143 -132 -186v87c33 33 93 121 116 160h82v-416h-62zM164 0l416 722h61l-416 -722h-61zM757 0h-267c-1 5 -1 10 -1 15c0 9 0 19 1 28c8 77 47 115 99 142c23 12 43 24 67 40c25 19 43 42 43 79c0 36 -26 69 -71 69c-60 0 -76 -50 -71 -89
h-61c-8 77 43 139 133 139c83 0 134 -54 134 -121c0 -51 -21 -87 -68 -119c-23 -16 -53 -33 -76 -45c-30 -16 -73 -38 -70 -89h208v-49z" />
    <glyph glyph-name="threequarters" unicode="&#xbe;" horiz-adv-x="835" 
d="M642 0v97h-190v65l51 73l119 183h83v-274h54v-48h-54v-96h-63zM503 144h142v216h-4l-94 -147l-44 -66v-3zM194 0l416 722h61l-416 -722h-61zM46 396h66c0 -47 28 -76 75 -76c43 0 70 27 70 66c0 59 -49 75 -97 78l-26 1v50l27 2c48 3 95 20 95 72c0 44 -32 63 -67 63
s-68 -18 -69 -62h-63c5 90 89 112 131 112c88 0 133 -55 133 -111c0 -35 -17 -77 -80 -97v-3c61 -19 82 -65 82 -104c0 -62 -48 -118 -136 -118c-79 0 -134 50 -141 127z" />
    <glyph glyph-name="questiondown" unicode="&#xbf;" horiz-adv-x="500" 
d="M355 -17h94c8 -153 -104 -212 -203 -212c-111 0 -201 75 -201 190c0 84 47 139 116 195c51 40 60 81 57 130l-1 18h83l1 -20c5 -92 -29 -135 -87 -191c-48 -44 -73 -78 -73 -129c0 -73 47 -114 106 -114c60 0 119 40 108 133zM329 431c0 -41 -33 -72 -72 -72
s-72 31 -72 72s33 71 72 71s72 -30 72 -71z" />
    <glyph glyph-name="Agrave" unicode="&#xc0;" horiz-adv-x="635" 
d="M453 183h-274l-58 -183h-101l238 722h110l247 -722h-101zM204 264h222l-110 344h-6zM169 853l34 75l196 -102l-30 -59z" />
    <glyph glyph-name="Aacute" unicode="&#xc1;" horiz-adv-x="635" 
d="M453 183h-274l-58 -183h-101l238 722h110l247 -722h-101zM204 264h222l-110 344h-6zM424 928l34 -75l-200 -86l-30 59z" />
    <glyph glyph-name="Acircumflex" unicode="&#xc2;" horiz-adv-x="635" 
d="M453 183h-274l-58 -183h-101l238 722h110l247 -722h-101zM204 264h222l-110 344h-6zM314 934l158 -159h-95l-60 60h-6l-62 -60h-95z" />
    <glyph glyph-name="Atilde" unicode="&#xc3;" horiz-adv-x="635" 
d="M453 183h-274l-58 -183h-101l238 722h110l247 -722h-101zM204 264h222l-110 344h-6zM210 776h-50c-3 85 47 112 89 112c25 0 46 -8 67 -15c23 -7 39 -15 58 -15s40 10 43 38h50c3 -85 -47 -112 -89 -112c-25 0 -46 8 -67 15c-23 7 -39 15 -58 15s-40 -10 -43 -38z" />
    <glyph glyph-name="Adieresis" unicode="&#xc4;" horiz-adv-x="635" 
d="M453 183h-274l-58 -183h-101l238 722h110l247 -722h-101zM204 264h222l-110 344h-6zM156 837c0 36 26 61 61 61s62 -25 62 -61s-27 -60 -62 -60s-61 24 -61 60zM347 837c0 36 26 61 61 61s62 -25 62 -61s-27 -60 -62 -60s-61 24 -61 60z" />
    <glyph glyph-name="Aring" unicode="&#xc5;" horiz-adv-x="635" 
d="M453 183h-274l-58 -183h-101l238 722h110l247 -722h-101zM204 264h222l-110 344h-6zM223 849c0 51 39 86 90 86s90 -35 90 -86s-39 -87 -90 -87s-90 36 -90 87zM267 849c0 -25 21 -45 46 -45c24 0 46 20 46 45s-22 45 -46 45c-25 0 -46 -20 -46 -45z" />
    <glyph glyph-name="AE" unicode="&#xc6;" horiz-adv-x="943" 
d="M483 183h-276l-83 -183h-104l344 722h531v-85h-401l43 -225h341v-84h-327l45 -240h307v-88h-387zM469 264l-62 341h-6l-158 -341h226z" />
    <glyph glyph-name="Ccedilla" unicode="&#xc7;" horiz-adv-x="700" 
d="M248 -193l20 41c12 -7 38 -17 67 -17c35 0 56 16 56 43c0 23 -18 35 -45 35c-15 0 -32 -4 -44 -9l-27 22l49 70c-204 29 -284 222 -284 365c0 176 107 375 342 375c145 0 261 -91 272 -230h-103c-3 71 -57 147 -168 147c-152 0 -242 -125 -242 -291
c0 -147 79 -282 242 -282c114 0 177 75 180 149h102c-16 -142 -137 -237 -283 -237h-7l-38 -44l3 -4c11 4 29 9 48 9c45 0 70 -29 70 -69c0 -49 -41 -94 -121 -94c-41 0 -66 9 -89 21z" />
    <glyph glyph-name="Egrave" unicode="&#xc8;" horiz-adv-x="538" 
d="M70 0v722h417v-85h-318v-225h304v-84h-303v-240h328v-88h-428zM154 853l34 75l196 -102l-30 -59z" />
    <glyph glyph-name="Eacute" unicode="&#xc9;" horiz-adv-x="538" 
d="M70 0v722h417v-85h-318v-225h304v-84h-303v-240h328v-88h-428zM385 928l34 -75l-200 -86l-30 59z" />
    <glyph glyph-name="Ecircumflex" unicode="&#xca;" horiz-adv-x="538" 
d="M70 0v722h417v-85h-318v-225h304v-84h-303v-240h328v-88h-428zM281 934l158 -159h-95l-60 60h-6l-62 -60h-95z" />
    <glyph glyph-name="Edieresis" unicode="&#xcb;" horiz-adv-x="538" 
d="M70 0v722h417v-85h-318v-225h304v-84h-303v-240h328v-88h-428zM128 837c0 36 26 61 61 61s62 -25 62 -61s-27 -60 -62 -60s-61 24 -61 60zM319 837c0 36 26 61 61 61s62 -25 62 -61s-27 -60 -62 -60s-61 24 -61 60z" />
    <glyph glyph-name="Igrave" unicode="&#xcc;" horiz-adv-x="240" 
d="M70 0v722h100v-722h-100zM-30 853l34 75l196 -102l-30 -59z" />
    <glyph glyph-name="Iacute" unicode="&#xcd;" horiz-adv-x="240" 
d="M70 0v722h100v-722h-100zM236 928l34 -75l-200 -86l-30 59z" />
    <glyph glyph-name="Icircumflex" unicode="&#xce;" horiz-adv-x="240" 
d="M70 0v722h100v-722h-100zM121 934l158 -159h-95l-60 60h-6l-62 -60h-95z" />
    <glyph glyph-name="Idieresis" unicode="&#xcf;" horiz-adv-x="240" 
d="M70 0v722h100v-722h-100zM-37 837c0 36 26 61 61 61s62 -25 62 -61s-27 -60 -62 -60s-61 24 -61 60zM154 837c0 36 26 61 61 61s62 -25 62 -61s-27 -60 -62 -60s-61 24 -61 60z" />
    <glyph glyph-name="Eth" unicode="&#xd0;" horiz-adv-x="681" 
d="M70 0v337h-73v61h73v324h172c220 0 399 -130 399 -367c0 -207 -151 -355 -406 -355h-165zM359 337h-189v-255l68 1c190 3 299 109 299 271c0 156 -100 281 -290 284l-77 1v-241h189v-61z" />
    <glyph glyph-name="Ntilde" unicode="&#xd1;" horiz-adv-x="750" 
d="M70 0v722h99l413 -566h6v566h92v-722h-100l-413 569h-6v-569h-91zM281 776h-50c-3 85 47 112 89 112c25 0 46 -8 67 -15c23 -7 39 -15 58 -15s40 10 43 38h50c3 -85 -47 -112 -89 -112c-25 0 -46 8 -67 15c-23 7 -39 15 -58 15s-40 -10 -43 -38z" />
    <glyph glyph-name="Ograve" unicode="&#xd2;" horiz-adv-x="796" 
d="M756 362c0 -237 -167 -379 -360 -379s-356 151 -356 383c0 196 138 375 357 375s359 -174 359 -379zM652 363c0 179 -108 294 -256 294c-155 0 -252 -133 -252 -293c0 -170 97 -296 252 -296c167 0 256 135 256 295zM253 853l34 75l196 -102l-30 -59z" />
    <glyph glyph-name="Oacute" unicode="&#xd3;" horiz-adv-x="796" 
d="M756 362c0 -237 -167 -379 -360 -379s-356 151 -356 383c0 196 138 375 357 375s359 -174 359 -379zM652 363c0 179 -108 294 -256 294c-155 0 -252 -133 -252 -293c0 -170 97 -296 252 -296c167 0 256 135 256 295zM519 928l34 -75l-200 -86l-30 59z" />
    <glyph glyph-name="Ocircumflex" unicode="&#xd4;" horiz-adv-x="796" 
d="M756 362c0 -237 -167 -379 -360 -379s-356 151 -356 383c0 196 138 375 357 375s359 -174 359 -379zM652 363c0 179 -108 294 -256 294c-155 0 -252 -133 -252 -293c0 -170 97 -296 252 -296c167 0 256 135 256 295zM399 934l158 -159h-95l-60 60h-6l-62 -60h-95z" />
    <glyph glyph-name="Otilde" unicode="&#xd5;" horiz-adv-x="796" 
d="M756 362c0 -237 -167 -379 -360 -379s-356 151 -356 383c0 196 138 375 357 375s359 -174 359 -379zM652 363c0 179 -108 294 -256 294c-155 0 -252 -133 -252 -293c0 -170 97 -296 252 -296c167 0 256 135 256 295zM294 776h-50c-3 85 47 112 89 112c25 0 46 -8 67 -15
c23 -7 39 -15 58 -15s40 10 43 38h50c3 -85 -47 -112 -89 -112c-25 0 -46 8 -67 15c-23 7 -39 15 -58 15s-40 -10 -43 -38z" />
    <glyph glyph-name="Odieresis" unicode="&#xd6;" horiz-adv-x="796" 
d="M756 362c0 -237 -167 -379 -360 -379s-356 151 -356 383c0 196 138 375 357 375s359 -174 359 -379zM652 363c0 179 -108 294 -256 294c-155 0 -252 -133 -252 -293c0 -170 97 -296 252 -296c167 0 256 135 256 295zM241 837c0 36 26 61 61 61s62 -25 62 -61
s-27 -60 -62 -60s-61 24 -61 60zM432 837c0 36 26 61 61 61s62 -25 62 -61s-27 -60 -62 -60s-61 24 -61 60z" />
    <glyph glyph-name="multiply" unicode="&#xd7;" horiz-adv-x="570" 
d="M94 492l190 -191l191 191l51 -51l-191 -191l191 -190l-51 -51l-191 190l-190 -190l-51 51l190 190l-190 191z" />
    <glyph glyph-name="Oslash" unicode="&#xd8;" horiz-adv-x="796" 
d="M756 362c0 -237 -167 -379 -360 -379c-80 0 -150 23 -210 69l-80 -100l-44 36l81 102c-64 67 -103 160 -103 276c0 196 138 375 357 375c84 0 155 -25 212 -68l78 98l45 -36l-80 -100c67 -71 104 -166 104 -273zM652 363c0 80 -21 146 -60 197l-350 -438
c42 -36 93 -54 154 -54c167 0 256 135 256 295zM396 657c-155 0 -252 -133 -252 -293c0 -80 20 -148 59 -200l349 439c-43 36 -95 54 -156 54z" />
    <glyph glyph-name="Ugrave" unicode="&#xd9;" horiz-adv-x="673" 
d="M70 722h100v-454c0 -141 70 -194 167 -194c164 0 169 143 169 195v453h97v-451c0 -213 -124 -286 -266 -286c-157 0 -267 89 -267 284v453zM201 853l34 75l196 -102l-30 -59z" />
    <glyph glyph-name="Uacute" unicode="&#xda;" horiz-adv-x="673" 
d="M70 722h100v-454c0 -141 70 -194 167 -194c164 0 169 143 169 195v453h97v-451c0 -213 -124 -286 -266 -286c-157 0 -267 89 -267 284v453zM467 928l34 -75l-200 -86l-30 59z" />
    <glyph glyph-name="Ucircumflex" unicode="&#xdb;" horiz-adv-x="673" 
d="M70 722h100v-454c0 -141 70 -194 167 -194c164 0 169 143 169 195v453h97v-451c0 -213 -124 -286 -266 -286c-157 0 -267 89 -267 284v453zM337 934l158 -159h-95l-60 60h-6l-62 -60h-95z" />
    <glyph glyph-name="Udieresis" unicode="&#xdc;" horiz-adv-x="673" 
d="M70 722h100v-454c0 -141 70 -194 167 -194c164 0 169 143 169 195v453h97v-451c0 -213 -124 -286 -266 -286c-157 0 -267 89 -267 284v453zM181 837c0 36 26 61 61 61s62 -25 62 -61s-27 -60 -62 -60s-61 24 -61 60zM372 837c0 36 26 61 61 61s62 -25 62 -61
s-27 -60 -62 -60s-61 24 -61 60z" />
    <glyph glyph-name="Yacute" unicode="&#xdd;" horiz-adv-x="587" 
d="M347 266v-266h-101v266c0 10 -5 16 -14 18l-217 438h118l163 -366h6l160 366h110l-212 -438c-9 -3 -13 -9 -13 -18zM434 928l34 -75l-200 -86l-30 59z" />
    <glyph glyph-name="Thorn" unicode="&#xde;" horiz-adv-x="558" 
d="M165 601h89c148 0 274 -74 274 -221c0 -156 -135 -227 -284 -227h-79v-153h-100v722h100v-121zM165 520v-283l79 1c67 0 179 24 179 142c0 112 -109 139 -167 139z" />
    <glyph glyph-name="germandbls" unicode="&#xdf;" horiz-adv-x="588" 
d="M163 544v-544h-94c1 7 1 15 1 23c0 16 1 34 1 55v462c0 139 101 192 205 192c108 0 193 -60 193 -157c0 -51 -22 -88 -57 -120c-23 -21 -33 -34 -33 -53c0 -23 18 -49 66 -85c50 -37 108 -92 108 -171c0 -100 -74 -159 -179 -159c-96 0 -168 57 -176 152h98
c4 -47 35 -79 83 -79c47 0 80 30 80 81c0 45 -35 82 -70 109c-48 37 -104 88 -104 148c0 47 31 77 58 104c17 19 30 42 30 70c0 56 -43 86 -99 86c-67 0 -111 -42 -111 -114z" />
    <glyph glyph-name="agrave" unicode="&#xe0;" horiz-adv-x="523" 
d="M467 0h-95l2 23c1 15 2 29 2 41h-5c-43 -45 -102 -77 -169 -77c-99 0 -157 65 -157 153c0 93 69 158 176 161c60 1 108 -9 152 -22v54c0 72 -39 112 -111 112s-109 -42 -106 -89h-101c19 88 89 160 207 160c113 0 199 -58 199 -183v-250c0 -23 -1 -56 6 -83zM371 133v89
c-39 8 -86 15 -131 14c-65 -1 -103 -38 -103 -91c0 -55 33 -86 97 -86c60 0 113 47 137 74zM116 669l41 73l189 -121l-35 -58z" />
    <glyph glyph-name="aacute" unicode="&#xe1;" horiz-adv-x="523" 
d="M372 0h95c-7 27 -6 60 -6 83v250c0 125 -86 183 -199 183c-118 0 -188 -72 -207 -160h101c-3 47 34 89 106 89s111 -40 111 -112v-54c-44 13 -92 23 -152 22c-107 -3 -176 -68 -176 -161c0 -88 58 -153 157 -153c67 0 126 32 169 77h5c0 -12 -1 -26 -2 -41zM371 222v-89
c-24 -27 -77 -74 -137 -74c-64 0 -97 31 -97 86c0 53 38 90 103 91c45 1 92 -6 131 -14zM383 742l41 -73l-195 -106l-35 58z" />
    <glyph glyph-name="acircumflex" unicode="&#xe2;" horiz-adv-x="523" 
d="M467 0h-95l2 23c1 15 2 29 2 41h-5c-43 -45 -102 -77 -169 -77c-99 0 -157 65 -157 153c0 93 69 158 176 161c60 1 108 -9 152 -22v54c0 72 -39 112 -111 112s-109 -42 -106 -89h-101c19 88 89 160 207 160c113 0 199 -58 199 -183v-250c0 -23 -1 -56 6 -83zM371 133v89
c-39 8 -86 15 -131 14c-65 -1 -103 -38 -103 -91c0 -55 33 -86 97 -86c60 0 113 47 137 74zM279 738l154 -171h-87l-64 65h-6l-66 -65h-87z" />
    <glyph glyph-name="atilde" unicode="&#xe3;" horiz-adv-x="523" 
d="M372 0h95c-7 27 -6 60 -6 83v250c0 125 -86 183 -199 183c-118 0 -188 -72 -207 -160h101c-3 47 34 89 106 89s111 -40 111 -112v-54c-44 13 -92 23 -152 22c-107 -3 -176 -68 -176 -161c0 -88 58 -153 157 -153c67 0 126 32 169 77h5c0 -12 -1 -26 -2 -41zM371 222v-89
c-24 -27 -77 -74 -137 -74c-64 0 -97 31 -97 86c0 53 38 90 103 91c45 1 92 -6 131 -14zM173 584h-51c-3 85 48 115 90 115c25 0 51 -8 72 -15c23 -7 44 -15 63 -15s40 11 43 39h51c3 -85 -48 -115 -90 -115c-25 0 -51 8 -72 15c-23 7 -44 15 -63 15s-40 -11 -43 -39z" />
    <glyph glyph-name="adieresis" unicode="&#xe4;" horiz-adv-x="523" 
d="M372 0h95c-7 27 -6 60 -6 83v250c0 125 -86 183 -199 183c-118 0 -188 -72 -207 -160h101c-3 47 34 89 106 89s111 -40 111 -112v-54c-44 13 -92 23 -152 22c-107 -3 -176 -68 -176 -161c0 -88 58 -153 157 -153c67 0 126 32 169 77h5c0 -12 -1 -26 -2 -41zM371 222v-89
c-24 -27 -77 -74 -137 -74c-64 0 -97 31 -97 86c0 53 38 90 103 91c45 1 92 -6 131 -14zM110 645c0 37 27 62 62 62s63 -25 63 -62s-28 -61 -63 -61s-62 24 -62 61zM295 645c0 37 27 62 62 62s63 -25 63 -62s-28 -61 -63 -61s-62 24 -62 61z" />
    <glyph glyph-name="aring" unicode="&#xe5;" horiz-adv-x="523" 
d="M372 0h95c-7 27 -6 60 -6 83v250c0 125 -86 183 -199 183c-118 0 -188 -72 -207 -160h101c-3 47 34 89 106 89s111 -40 111 -112v-54c-44 13 -92 23 -152 22c-107 -3 -176 -68 -176 -161c0 -88 58 -153 157 -153c67 0 126 32 169 77h5c0 -12 -1 -26 -2 -41zM371 222v-89
c-24 -27 -77 -74 -137 -74c-64 0 -97 31 -97 86c0 53 38 90 103 91c45 1 92 -6 131 -14zM180 652c0 52 42 90 94 90s94 -38 94 -90s-42 -91 -94 -91s-94 39 -94 91zM224 652c0 -29 23 -49 50 -49s50 20 50 49s-23 49 -50 49s-50 -20 -50 -49z" />
    <glyph glyph-name="ae" unicode="&#xe6;" horiz-adv-x="855" 
d="M251 516c84 0 135 -30 170 -78h6c39 41 87 77 167 77c179 0 232 -159 219 -277h-356c1 -105 53 -180 146 -180c64 0 107 42 119 97h92c-11 -83 -85 -170 -211 -170c-88 0 -152 37 -192 105h-6c-43 -61 -115 -105 -200 -105c-104 0 -165 66 -165 159c0 92 78 159 181 159
c60 0 95 -7 146 -20v48c0 72 -42 115 -111 115c-72 0 -108 -43 -105 -90h-102c16 88 86 160 202 160zM460 307h259c0 56 -26 140 -128 140c-60 0 -123 -41 -131 -140zM368 224c-39 7 -86 14 -131 14c-65 0 -105 -40 -105 -92c0 -56 31 -87 95 -87c77 0 129 53 151 83
c-7 27 -9 57 -10 82z" />
    <glyph glyph-name="ccedilla" unicode="&#xe7;" horiz-adv-x="521" 
d="M163 -193l20 41c12 -7 38 -17 67 -17c35 0 56 16 56 43c0 23 -18 35 -45 35c-15 0 -32 -4 -44 -9l-27 22l48 69c-121 19 -198 123 -198 258c0 164 106 266 240 266c108 0 195 -75 206 -174h-97c-3 37 -36 101 -111 101c-93 0 -139 -85 -139 -192c0 -103 49 -188 140 -188
c70 0 109 55 117 106h95c-16 -94 -84 -176 -201 -181l-38 -43l3 -4c11 4 29 9 48 9c45 0 70 -29 70 -69c0 -49 -41 -94 -121 -94c-41 0 -66 9 -89 21z" />
    <glyph glyph-name="egrave" unicode="&#xe8;" horiz-adv-x="533" 
d="M491 238h-358c0 -104 51 -180 147 -180c63 0 108 40 120 97h92c-11 -83 -86 -170 -217 -170c-141 0 -235 107 -235 270c0 140 88 260 229 260c183 0 235 -159 222 -277zM137 306l261 2c0 48 -25 139 -127 139c-68 0 -125 -49 -134 -141zM131 669l41 73l189 -121l-35 -58z
" />
    <glyph glyph-name="eacute" unicode="&#xe9;" horiz-adv-x="533" 
d="M491 238h-358c0 -104 51 -180 147 -180c63 0 108 40 120 97h92c-11 -83 -86 -170 -217 -170c-141 0 -235 107 -235 270c0 140 88 260 229 260c183 0 235 -159 222 -277zM137 306l261 2c0 48 -25 139 -127 139c-68 0 -125 -49 -134 -141zM382 742l41 -73l-195 -106l-35 58
z" />
    <glyph glyph-name="ecircumflex" unicode="&#xea;" horiz-adv-x="533" 
d="M491 238h-358c0 -104 51 -180 147 -180c63 0 108 40 120 97h92c-11 -83 -86 -170 -217 -170c-141 0 -235 107 -235 270c0 140 88 260 229 260c183 0 235 -159 222 -277zM137 306l261 2c0 48 -25 139 -127 139c-68 0 -125 -49 -134 -141zM277 738l154 -171h-87l-64 65h-6
l-66 -65h-87z" />
    <glyph glyph-name="edieresis" unicode="&#xeb;" horiz-adv-x="533" 
d="M491 238h-358c0 -104 51 -180 147 -180c63 0 108 40 120 97h92c-11 -83 -86 -170 -217 -170c-141 0 -235 107 -235 270c0 140 88 260 229 260c183 0 235 -159 222 -277zM137 306l261 2c0 48 -25 139 -127 139c-68 0 -125 -49 -134 -141zM121 645c0 37 27 62 62 62
s63 -25 63 -62s-28 -61 -63 -61s-62 24 -62 61zM306 645c0 37 27 62 62 62s63 -25 63 -62s-28 -61 -63 -61s-62 24 -62 61z" />
    <glyph glyph-name="igrave" unicode="&#xec;" horiz-adv-x="224" 
d="M65 0v502h94v-502h-94zM-36 669l41 73l189 -121l-35 -58z" />
    <glyph glyph-name="iacute" unicode="&#xed;" horiz-adv-x="224" 
d="M65 0v502h94v-502h-94zM220 742l41 -73l-195 -106l-35 58z" />
    <glyph glyph-name="icircumflex" unicode="&#xee;" horiz-adv-x="224" 
d="M65 0v502h94v-502h-94zM113 738l154 -171h-87l-64 65h-6l-66 -65h-87z" />
    <glyph glyph-name="idieresis" unicode="&#xef;" horiz-adv-x="224" 
d="M65 0v502h94v-502h-94zM-43 645c0 37 27 62 62 62s63 -25 63 -62s-28 -61 -63 -61s-62 24 -62 61zM142 645c0 37 27 62 62 62s63 -25 63 -62s-28 -61 -63 -61s-62 24 -62 61z" />
    <glyph glyph-name="eth" unicode="&#xf0;" horiz-adv-x="585" 
d="M162 606l97 57c-49 25 -104 40 -156 45l90 59c47 -15 94 -34 139 -61l94 57l39 -41l-83 -49c84 -71 155 -193 155 -391c0 -153 -81 -299 -246 -299c-155 0 -248 123 -248 263c0 124 84 259 235 259c73 0 132 -41 165 -88h6c-16 107 -80 169 -140 213l-108 -64zM139 247
c0 -104 48 -193 153 -193c76 0 149 57 149 194c0 120 -72 186 -152 186c-63 0 -150 -40 -150 -187z" />
    <glyph glyph-name="ntilde" unicode="&#xf1;" horiz-adv-x="551" 
d="M65 0v416c0 25 -1 57 -5 86h97v-86h6c13 23 68 96 162 96c60 0 166 -33 166 -185v-327h-96v329c0 69 -31 110 -88 110c-70 0 -126 -64 -147 -147v-292h-95zM189 584h-51c-3 85 48 115 90 115c25 0 51 -8 72 -15c23 -7 44 -15 63 -15s40 11 43 39h51
c3 -85 -48 -115 -90 -115c-25 0 -51 8 -72 15c-23 7 -44 15 -63 15s-40 -11 -43 -39z" />
    <glyph glyph-name="ograve" unicode="&#xf2;" horiz-adv-x="578" 
d="M40 251c0 116 78 264 251 264c172 0 247 -152 247 -265c0 -133 -87 -267 -247 -267c-159 0 -251 127 -251 268zM138 251c0 -103 47 -197 152 -197c77 0 150 61 150 198c0 128 -69 192 -150 192c-65 0 -152 -42 -152 -193zM144 669l41 73l189 -121l-35 -58z" />
    <glyph glyph-name="oacute" unicode="&#xf3;" horiz-adv-x="578" 
d="M40 251c0 116 78 264 251 264c172 0 247 -152 247 -265c0 -133 -87 -267 -247 -267c-159 0 -251 127 -251 268zM138 251c0 -103 47 -197 152 -197c77 0 150 61 150 198c0 128 -69 192 -150 192c-65 0 -152 -42 -152 -193zM413 742l41 -73l-195 -106l-35 58z" />
    <glyph glyph-name="ocircumflex" unicode="&#xf4;" horiz-adv-x="578" 
d="M40 251c0 116 78 264 251 264c172 0 247 -152 247 -265c0 -133 -87 -267 -247 -267c-159 0 -251 127 -251 268zM138 251c0 -103 47 -197 152 -197c77 0 150 61 150 198c0 128 -69 192 -150 192c-65 0 -152 -42 -152 -193zM290 738l154 -171h-87l-64 65h-6l-66 -65h-87z
" />
    <glyph glyph-name="otilde" unicode="&#xf5;" horiz-adv-x="578" 
d="M40 251c0 116 78 264 251 264c172 0 247 -152 247 -265c0 -133 -87 -267 -247 -267c-159 0 -251 127 -251 268zM138 251c0 -103 47 -197 152 -197c77 0 150 61 150 198c0 128 -69 192 -150 192c-65 0 -152 -42 -152 -193zM180 584h-51c-3 85 48 115 90 115
c25 0 51 -8 72 -15c23 -7 44 -15 63 -15s40 11 43 39h51c3 -85 -48 -115 -90 -115c-25 0 -51 8 -72 15c-23 7 -44 15 -63 15s-40 -11 -43 -39z" />
    <glyph glyph-name="odieresis" unicode="&#xf6;" horiz-adv-x="578" 
d="M40 251c0 116 78 264 251 264c172 0 247 -152 247 -265c0 -133 -87 -267 -247 -267c-159 0 -251 127 -251 268zM138 251c0 -103 47 -197 152 -197c77 0 150 61 150 198c0 128 -69 192 -150 192c-65 0 -152 -42 -152 -193zM134 645c0 37 27 62 62 62s63 -25 63 -62
s-28 -61 -63 -61s-62 24 -62 61zM319 645c0 37 27 62 62 62s63 -25 63 -62s-28 -61 -63 -61s-62 24 -62 61z" />
    <glyph glyph-name="divide" unicode="&#xf7;" horiz-adv-x="570" 
d="M219 74c0 39 29 67 66 67s67 -28 67 -67s-30 -66 -67 -66s-66 27 -66 66zM219 427c0 39 29 67 66 67s67 -28 67 -67s-30 -66 -67 -66s-66 27 -66 66zM540 212h-510v78h510v-78z" />
    <glyph glyph-name="oslash" unicode="&#xf8;" horiz-adv-x="578" 
d="M40 251c0 116 78 264 251 264c53 0 96 -15 131 -38l68 91l43 -33l-69 -93c51 -55 74 -128 74 -192c0 -133 -87 -267 -247 -267c-55 0 -100 15 -139 40l-67 -91l-42 33l69 93c-47 51 -72 118 -72 193zM290 54c77 0 150 61 150 198c0 49 -11 89 -28 120l-213 -286
c23 -20 52 -32 91 -32zM138 251c0 -45 8 -87 27 -122l211 285c-25 20 -53 30 -86 30c-65 0 -152 -42 -152 -193z" />
    <glyph glyph-name="ugrave" unicode="&#xf9;" horiz-adv-x="563" 
d="M399 502h97v-416c0 -25 2 -59 7 -86h-97c-3 21 -2 58 -1 87h-6c-11 -21 -63 -94 -163 -94c-67 0 -171 37 -171 189v320h96v-321c0 -67 30 -112 95 -112c68 0 127 59 143 147v286zM136 669l41 73l189 -121l-35 -58z" />
    <glyph glyph-name="uacute" unicode="&#xfa;" horiz-adv-x="563" 
d="M399 502h97v-416c0 -25 2 -59 7 -86h-97c-3 21 -2 58 -1 87h-6c-11 -21 -63 -94 -163 -94c-67 0 -171 37 -171 189v320h96v-321c0 -67 30 -112 95 -112c68 0 127 59 143 147v286zM395 742l41 -73l-195 -106l-35 58z" />
    <glyph glyph-name="ucircumflex" unicode="&#xfb;" horiz-adv-x="563" 
d="M399 502h97v-416c0 -25 2 -59 7 -86h-97c-3 21 -2 58 -1 87h-6c-11 -21 -63 -94 -163 -94c-67 0 -171 37 -171 189v320h96v-321c0 -67 30 -112 95 -112c68 0 127 59 143 147v286zM282 738l154 -171h-87l-64 65h-6l-66 -65h-87z" />
    <glyph glyph-name="udieresis" unicode="&#xfc;" horiz-adv-x="563" 
d="M399 502h97v-416c0 -25 2 -59 7 -86h-97c-3 21 -2 58 -1 87h-6c-11 -21 -63 -94 -163 -94c-67 0 -171 37 -171 189v320h96v-321c0 -67 30 -112 95 -112c68 0 127 59 143 147v286zM126 645c0 37 27 62 62 62s63 -25 63 -62s-28 -61 -63 -61s-62 24 -62 61zM311 645
c0 37 27 62 62 62s63 -25 63 -62s-28 -61 -63 -61s-62 24 -62 61z" />
    <glyph glyph-name="yacute" unicode="&#xfd;" horiz-adv-x="510" 
d="M392 502h98c-165 -503 -179 -539 -203 -602c-31 -79 -81 -102 -142 -102c-21 0 -49 3 -66 10v80c15 -5 41 -9 54 -9c33 0 51 12 66 41c10 20 27 64 30 80c5 23 -9 35 -29 34l-180 468h104l140 -398h6zM399 742l41 -73l-195 -106l-35 58z" />
    <glyph glyph-name="thorn" unicode="&#xfe;" horiz-adv-x="561" 
d="M159 0v-193h-94v915h93v-220v-51c-1 -9 -1 -17 -1 -24h6c35 49 80 84 144 84c139 0 214 -123 214 -262c0 -145 -77 -262 -209 -262c-89 0 -134 59 -148 81h-6c0 -7 0 -14 1 -22v-46zM423 249c0 113 -45 189 -137 189c-70 0 -122 -73 -127 -125v-121
c3 -55 52 -133 131 -133c92 0 133 86 133 190z" />
    <glyph glyph-name="ydieresis" unicode="&#xff;" horiz-adv-x="510" 
d="M392 502h98c-165 -503 -179 -539 -203 -602c-31 -79 -81 -102 -142 -102c-21 0 -49 3 -66 10v80c15 -5 41 -9 54 -9c33 0 51 12 66 41c10 20 27 64 30 80c5 23 -9 35 -29 34l-180 468h104l140 -398h6zM104 645c0 37 27 62 62 62s63 -25 63 -62s-28 -61 -63 -61
s-62 24 -62 61zM289 645c0 37 27 62 62 62s63 -25 63 -62s-28 -61 -63 -61s-62 24 -62 61z" />
    <glyph glyph-name="Amacron" unicode="&#x100;" horiz-adv-x="635" 
d="M453 183h-274l-58 -183h-101l238 722h110l247 -722h-101zM204 264h222l-110 344h-6zM164 787v76h300v-76h-300z" />
    <glyph glyph-name="amacron" unicode="&#x101;" horiz-adv-x="523" 
d="M372 0h95c-7 27 -6 60 -6 83v250c0 125 -86 183 -199 183c-118 0 -188 -72 -207 -160h101c-3 47 34 89 106 89s111 -40 111 -112v-54c-44 13 -92 23 -152 22c-107 -3 -176 -68 -176 -161c0 -88 58 -153 157 -153c67 0 126 32 169 77h5c0 -12 -1 -26 -2 -41zM371 222v-89
c-24 -27 -77 -74 -137 -74c-64 0 -97 31 -97 86c0 53 38 90 103 91c45 1 92 -6 131 -14zM131 594v71h290v-71h-290z" />
    <glyph glyph-name="Abreve" unicode="&#x102;" horiz-adv-x="635" 
d="M453 183h-274l-58 -183h-101l238 722h110l247 -722h-101zM204 264h222l-110 344h-6zM313 831c76 0 90 59 90 78h55c3 -88 -52 -147 -145 -147c-92 0 -147 59 -144 147h55c0 -19 12 -78 89 -78z" />
    <glyph glyph-name="abreve" unicode="&#x103;" horiz-adv-x="523" 
d="M467 0h-95l2 23c1 15 2 29 2 41h-5c-43 -45 -102 -77 -169 -77c-99 0 -157 65 -157 153c0 93 69 158 176 161c60 1 108 -9 152 -22v54c0 72 -39 112 -111 112s-109 -42 -106 -89h-101c19 88 89 160 207 160c113 0 199 -58 199 -183v-250c0 -23 -1 -56 6 -83zM371 133v89
c-39 8 -86 15 -131 14c-65 -1 -103 -38 -103 -91c0 -55 33 -86 97 -86c60 0 113 47 137 74zM278 634c81 0 90 69 90 88h55c3 -99 -52 -157 -145 -157c-92 0 -147 58 -144 157h55c0 -19 7 -88 89 -88z" />
    <glyph glyph-name="Aogonek" unicode="&#x104;" horiz-adv-x="635" 
d="M628 -129v-44c-23 -12 -50 -25 -95 -25c-66 0 -88 41 -88 72c0 56 51 95 116 126h-47l-61 183h-274l-58 -183h-101l238 722h110l247 -722c-40 -27 -96 -66 -96 -104c0 -31 23 -40 50 -40c23 0 48 10 59 15zM204 264h222l-110 344h-6z" />
    <glyph glyph-name="aogonek" unicode="&#x105;" horiz-adv-x="523" 
d="M467 0h-95l2 23c1 15 2 29 2 41h-5c-43 -45 -102 -77 -169 -77c-99 0 -157 65 -157 153c0 93 69 158 176 161c60 1 108 -9 152 -22v54c0 72 -39 112 -111 112s-109 -42 -106 -89h-101c19 88 89 160 207 160c113 0 199 -58 199 -183v-250c0 -23 -1 -56 6 -83zM371 133v89
c-39 8 -86 15 -131 14c-65 -1 -103 -38 -103 -91c0 -55 33 -86 97 -86c60 0 113 47 137 74zM480 -129v-44c-23 -12 -50 -25 -95 -25c-66 0 -88 41 -88 72c0 56 51 95 116 126h54c-40 -27 -96 -66 -96 -104c0 -31 23 -40 50 -40c23 0 48 10 59 15z" />
    <glyph glyph-name="Cacute" unicode="&#x106;" horiz-adv-x="700" 
d="M654 502h-103c-3 71 -57 147 -168 147c-152 0 -242 -125 -242 -291c0 -147 79 -282 242 -282c114 0 177 75 180 149h102c-16 -142 -137 -237 -283 -237c-248 0 -342 213 -342 369c0 176 107 375 342 375c145 0 261 -91 272 -230zM501 928l34 -75l-200 -86l-30 59z" />
    <glyph glyph-name="cacute" unicode="&#x107;" horiz-adv-x="521" 
d="M486 341h-97c-3 37 -36 101 -111 101c-93 0 -139 -85 -139 -192c0 -103 49 -188 140 -188c70 0 109 55 117 106h95c-16 -97 -88 -181 -212 -181c-144 0 -239 113 -239 262c0 164 106 266 240 266c108 0 195 -75 206 -174zM413 742l41 -73l-195 -106l-35 58z" />
    <glyph glyph-name="Ccircumflex" unicode="&#x108;" horiz-adv-x="700" 
d="M654 502h-103c-3 71 -57 147 -168 147c-152 0 -242 -125 -242 -291c0 -147 79 -282 242 -282c114 0 177 75 180 149h102c-16 -142 -137 -237 -283 -237c-248 0 -342 213 -342 369c0 176 107 375 342 375c145 0 261 -91 272 -230zM378 934l158 -159h-95l-60 60h-6l-62 -60
h-95z" />
    <glyph glyph-name="ccircumflex" unicode="&#x109;" horiz-adv-x="521" 
d="M486 341h-97c-3 37 -36 101 -111 101c-93 0 -139 -85 -139 -192c0 -103 49 -188 140 -188c70 0 109 55 117 106h95c-16 -97 -88 -181 -212 -181c-144 0 -239 113 -239 262c0 164 106 266 240 266c108 0 195 -75 206 -174zM279 738l154 -171h-87l-64 65h-6l-66 -65h-87z
" />
    <glyph glyph-name="Cdotaccent" unicode="&#x10a;" horiz-adv-x="700" 
d="M654 502h-103c-3 71 -57 147 -168 147c-152 0 -242 -125 -242 -291c0 -147 79 -282 242 -282c114 0 177 75 180 149h102c-16 -142 -137 -237 -283 -237c-248 0 -342 213 -342 369c0 176 107 375 342 375c145 0 261 -91 272 -230zM318 837c0 36 26 61 61 61s62 -25 62 -61
s-27 -60 -62 -60s-61 24 -61 60z" />
    <glyph glyph-name="cdotaccent" unicode="&#x10b;" horiz-adv-x="521" 
d="M486 341h-97c-3 37 -36 101 -111 101c-93 0 -139 -85 -139 -192c0 -103 49 -188 140 -188c70 0 109 55 117 106h95c-16 -97 -88 -181 -212 -181c-144 0 -239 113 -239 262c0 164 106 266 240 266c108 0 195 -75 206 -174zM220 644c0 39 26 63 63 63s64 -24 64 -63
s-27 -62 -64 -62s-63 23 -63 62z" />
    <glyph glyph-name="Ccaron" unicode="&#x10c;" horiz-adv-x="700" 
d="M654 502h-103c-3 71 -57 147 -168 147c-152 0 -242 -125 -242 -291c0 -147 79 -282 242 -282c114 0 177 75 180 149h102c-16 -142 -137 -237 -283 -237c-248 0 -342 213 -342 369c0 176 107 375 342 375c145 0 261 -91 272 -230zM539 921l-158 -159l-160 159h95l62 -60h6
l60 60h95z" />
    <glyph glyph-name="ccaron" unicode="&#x10d;" horiz-adv-x="521" 
d="M486 341h-97c-3 37 -36 101 -111 101c-93 0 -139 -85 -139 -192c0 -103 49 -188 140 -188c70 0 109 55 117 106h95c-16 -97 -88 -181 -212 -181c-144 0 -239 113 -239 262c0 164 106 266 240 266c108 0 195 -75 206 -174zM432 722l-154 -171l-156 171h87l66 -64h6l64 64
h87z" />
    <glyph glyph-name="Dcaron" unicode="&#x10e;" horiz-adv-x="681" 
d="M70 0v722h172c220 0 399 -130 399 -367c0 -207 -151 -355 -406 -355h-165zM170 639v-557l68 1c190 3 299 109 299 271c0 156 -100 281 -290 284zM469 921l-158 -159l-160 159h95l62 -60h6l60 60h95z" />
    <glyph glyph-name="dcaron" unicode="&#x10f;" horiz-adv-x="641" 
d="M402 502v220h94v-648c0 -21 -1 -54 2 -74h-85c-1 21 -1 51 -1 74h-6c-35 -52 -82 -83 -149 -83c-141 0 -217 123 -217 262c0 145 77 262 209 262c91 0 134 -59 148 -81h6v21c-1 15 -1 30 -1 47zM138 253c0 -113 46 -189 138 -189c69 0 123 72 126 124v122
c-3 55 -52 133 -131 133c-92 0 -133 -86 -133 -190zM598 513h-61c24 21 47 47 59 72c4 8 -1 14 -9 14c-35 0 -63 24 -63 60s27 63 63 63c35 0 62 -22 65 -61c1 -15 0 -29 -3 -43c-8 -31 -27 -73 -51 -105z" />
    <glyph glyph-name="Dcroat" unicode="&#x110;" horiz-adv-x="681" 
d="M70 0v337h-73v61h73v324h172c220 0 399 -130 399 -367c0 -207 -151 -355 -406 -355h-165zM359 337h-189v-255l68 1c190 3 299 109 299 271c0 156 -100 281 -290 284l-77 1v-241h189v-61z" />
    <glyph glyph-name="dcroat" unicode="&#x111;" horiz-adv-x="562" 
d="M246 594v71h156v57h94v-57h40v-71h-40v-520c0 -21 -1 -54 2 -74h-85c-1 21 -1 51 -1 74h-6c-35 -52 -82 -83 -149 -83c-141 0 -217 123 -217 262c0 145 77 262 209 262c91 0 134 -59 148 -81h6v21c-1 15 -1 30 -1 47v92h-156zM138 253c0 -113 46 -189 138 -189
c69 0 123 72 126 124v122c-3 55 -52 133 -131 133c-92 0 -133 -86 -133 -190z" />
    <glyph glyph-name="Emacron" unicode="&#x112;" horiz-adv-x="538" 
d="M70 0v722h417v-85h-318v-225h304v-84h-303v-240h328v-88h-428zM131 787v76h300v-76h-300z" />
    <glyph glyph-name="emacron" unicode="&#x113;" horiz-adv-x="533" 
d="M491 238h-358c0 -104 51 -180 147 -180c63 0 108 40 120 97h92c-11 -83 -86 -170 -217 -170c-141 0 -235 107 -235 270c0 140 88 260 229 260c183 0 235 -159 222 -277zM137 306l261 2c0 48 -25 139 -127 139c-68 0 -125 -49 -134 -141zM131 594v71h290v-71h-290z" />
    <glyph glyph-name="Ebreve" unicode="&#x114;" horiz-adv-x="538" 
d="M70 0v722h417v-85h-318v-225h304v-84h-303v-240h328v-88h-428zM281 831c76 0 90 59 90 78h55c3 -88 -52 -147 -145 -147c-92 0 -147 59 -144 147h55c0 -19 12 -78 89 -78z" />
    <glyph glyph-name="ebreve" unicode="&#x115;" horiz-adv-x="533" 
d="M491 238h-358c0 -104 51 -180 147 -180c63 0 108 40 120 97h92c-11 -83 -86 -170 -217 -170c-141 0 -235 107 -235 270c0 140 88 260 229 260c183 0 235 -159 222 -277zM137 306l261 2c0 48 -25 139 -127 139c-68 0 -125 -49 -134 -141zM274 634c81 0 90 69 90 88h55
c3 -99 -52 -157 -145 -157c-92 0 -147 58 -144 157h55c0 -19 7 -88 89 -88z" />
    <glyph glyph-name="Edotaccent" unicode="&#x116;" horiz-adv-x="538" 
d="M70 0v722h417v-85h-318v-225h304v-84h-303v-240h328v-88h-428zM227 837c0 36 26 61 61 61s62 -25 62 -61s-27 -60 -62 -60s-61 24 -61 60z" />
    <glyph glyph-name="edotaccent" unicode="&#x117;" horiz-adv-x="533" 
d="M491 238h-358c0 -104 51 -180 147 -180c63 0 108 40 120 97h92c-11 -83 -86 -170 -217 -170c-141 0 -235 107 -235 270c0 140 88 260 229 260c183 0 235 -159 222 -277zM137 306l261 2c0 48 -25 139 -127 139c-68 0 -125 -49 -134 -141zM211 644c0 39 26 63 63 63
s64 -24 64 -63s-27 -62 -64 -62s-63 23 -63 62z" />
    <glyph glyph-name="Eogonek" unicode="&#x118;" horiz-adv-x="538" 
d="M70 0v722h417v-85h-318v-225h304v-84h-303v-240h328v-88c-40 -27 -96 -66 -96 -104c0 -31 23 -40 50 -40c23 0 48 10 59 15v-44c-23 -12 -50 -25 -95 -25c-66 0 -88 41 -88 72c0 56 51 95 116 126h-374z" />
    <glyph glyph-name="eogonek" unicode="&#x119;" horiz-adv-x="533" 
d="M491 238h-358c0 -104 51 -180 147 -180c63 0 108 40 120 97h92c-7 -49 -35 -99 -84 -132c-37 -31 -74 -86 -74 -123c0 -31 22 -43 53 -43c21 0 46 9 57 14v-44c-23 -12 -50 -25 -95 -25c-71 0 -90 42 -90 74c0 39 31 79 66 114c-16 -3 -31 -5 -50 -5
c-141 0 -235 107 -235 270c0 140 88 260 229 260c183 0 235 -159 222 -277zM137 306l261 2c0 48 -25 139 -127 139c-68 0 -125 -49 -134 -141z" />
    <glyph glyph-name="Ecaron" unicode="&#x11a;" horiz-adv-x="538" 
d="M70 0v722h417v-85h-318v-225h304v-84h-303v-240h328v-88h-428zM448 921l-158 -159l-160 159h95l62 -60h6l60 60h95z" />
    <glyph glyph-name="ecaron" unicode="&#x11b;" horiz-adv-x="533" 
d="M491 238h-358c0 -104 51 -180 147 -180c63 0 108 40 120 97h92c-11 -83 -86 -170 -217 -170c-141 0 -235 107 -235 270c0 140 88 260 229 260c183 0 235 -159 222 -277zM137 306l261 2c0 48 -25 139 -127 139c-68 0 -125 -49 -134 -141zM431 722l-154 -171l-156 171h87
l66 -64h6l64 64h87z" />
    <glyph glyph-name="Gcircumflex" unicode="&#x11c;" horiz-adv-x="733" 
d="M670 502h-106c-3 84 -68 153 -171 153c-161 0 -250 -131 -250 -295c0 -177 76 -294 238 -294c124 0 215 76 212 194l-298 -29v99h394l-2 -57c-8 -192 -148 -288 -308 -288c-224 0 -339 169 -339 374c0 200 132 374 353 374c148 0 269 -96 277 -231zM389 934l158 -159h-95
l-60 60h-6l-62 -60h-95z" />
    <glyph glyph-name="gcircumflex" unicode="&#x11d;" horiz-adv-x="564" 
d="M136 262c0 -113 53 -182 138 -182c70 0 121 65 126 117v123c-3 55 -54 122 -128 122c-95 0 -136 -80 -136 -180zM494 376v-359c0 -147 -93 -218 -216 -218c-147 0 -199 98 -207 165h95c5 -56 45 -100 113 -100c83 0 123 52 123 145c0 20 0 39 1 54v25h-6
c-27 -48 -80 -80 -140 -80c-141 0 -217 112 -217 248c0 145 86 253 214 253c90 0 131 -52 144 -75h6c3 19 5 43 10 68h90c-8 -37 -10 -90 -10 -126zM274 738l154 -171h-87l-64 65h-6l-66 -65h-87z" />
    <glyph glyph-name="Gbreve" unicode="&#x11e;" horiz-adv-x="733" 
d="M670 502h-106c-3 84 -68 153 -171 153c-161 0 -250 -131 -250 -295c0 -177 76 -294 238 -294c124 0 215 76 212 194l-298 -29v99h394l-2 -57c-8 -192 -148 -288 -308 -288c-224 0 -339 169 -339 374c0 200 132 374 353 374c148 0 269 -96 277 -231zM394 831
c76 0 90 59 90 78h55c3 -88 -52 -147 -145 -147c-92 0 -147 59 -144 147h55c0 -19 12 -78 89 -78z" />
    <glyph glyph-name="gbreve" unicode="&#x11f;" horiz-adv-x="564" 
d="M136 262c0 -113 53 -182 138 -182c70 0 121 65 126 117v123c-3 55 -54 122 -128 122c-95 0 -136 -80 -136 -180zM494 376v-359c0 -147 -93 -218 -216 -218c-147 0 -199 98 -207 165h95c5 -56 45 -100 113 -100c83 0 123 52 123 145c0 20 0 39 1 54v25h-6
c-27 -48 -80 -80 -140 -80c-141 0 -217 112 -217 248c0 145 86 253 214 253c90 0 131 -52 144 -75h6c3 19 5 43 10 68h90c-8 -37 -10 -90 -10 -126zM280 634c81 0 90 69 90 88h55c3 -99 -52 -157 -145 -157c-92 0 -147 58 -144 157h55c0 -19 7 -88 89 -88z" />
    <glyph glyph-name="Gdotaccent" unicode="&#x120;" horiz-adv-x="733" 
d="M670 502h-106c-3 84 -68 153 -171 153c-161 0 -250 -131 -250 -295c0 -177 76 -294 238 -294c124 0 215 76 212 194l-298 -29v99h394l-2 -57c-8 -192 -148 -288 -308 -288c-224 0 -339 169 -339 374c0 200 132 374 353 374c148 0 269 -96 277 -231zM335 837
c0 36 26 61 61 61s62 -25 62 -61s-27 -60 -62 -60s-61 24 -61 60z" />
    <glyph glyph-name="gdotaccent" unicode="&#x121;" horiz-adv-x="564" 
d="M136 262c0 100 41 180 136 180c74 0 125 -67 128 -122v-123c-5 -52 -56 -117 -126 -117c-85 0 -138 69 -138 182zM494 17v359c0 36 2 89 10 126h-90c-5 -25 -7 -49 -10 -68h-6c-13 23 -54 75 -144 75c-128 0 -214 -108 -214 -253c0 -136 76 -248 217 -248
c60 0 113 32 140 80h6v-25c-1 -15 -1 -34 -1 -54c0 -93 -40 -145 -123 -145c-68 0 -108 44 -113 100h-95c8 -67 60 -165 207 -165c123 0 216 71 216 218zM202 644c0 39 26 63 63 63s64 -24 64 -63s-27 -62 -64 -62s-63 23 -63 62z" />
    <glyph glyph-name="Gcommaaccent" unicode="&#x122;" horiz-adv-x="733" 
d="M670 502h-106c-3 84 -68 153 -171 153c-161 0 -250 -131 -250 -295c0 -177 76 -294 238 -294c124 0 215 76 212 194l-298 -29v99h394l-2 -57c-8 -192 -148 -288 -308 -288c-224 0 -339 169 -339 374c0 200 132 374 353 374c148 0 269 -96 277 -231zM399 -246h-58
c27 23 45 45 54 64c3 7 0 12 -7 12c-31 0 -57 23 -57 56c0 32 26 56 58 56s58 -21 59 -56c3 -43 -21 -93 -49 -132z" />
    <glyph glyph-name="gcommaaccent" unicode="&#x123;" horiz-adv-x="564" 
d="M136 262c0 100 41 180 136 180c74 0 125 -67 128 -122v-123c-5 -52 -56 -117 -126 -117c-85 0 -138 69 -138 182zM494 17v359c0 36 2 89 10 126h-90c-5 -25 -7 -49 -10 -68h-6c-13 23 -54 75 -144 75c-128 0 -214 -108 -214 -253c0 -136 76 -248 217 -248
c60 0 113 32 140 80h6v-25c-1 -15 -1 -34 -1 -54c0 -93 -40 -145 -123 -145c-68 0 -108 44 -113 100h-95c8 -67 60 -165 207 -165c123 0 216 71 216 218zM263 748h58c-27 -23 -45 -45 -54 -64c-3 -7 0 -12 7 -12c31 0 57 -23 57 -56c0 -32 -26 -56 -58 -56s-58 21 -59 56
c-3 43 21 93 49 132z" />
    <glyph glyph-name="Hcircumflex" unicode="&#x124;" horiz-adv-x="689" 
d="M70 722h100v-314h349v314h100v-722h-100v322h-349v-322h-100v722zM345 934l158 -159h-95l-60 60h-6l-62 -60h-95z" />
    <glyph glyph-name="hcircumflex" unicode="&#x125;" horiz-adv-x="556" 
d="M65 0v722h93v-220v-26c0 -16 -1 -37 -1 -60h6c13 23 67 95 160 95c56 0 168 -29 168 -184v-327h-96v329c0 69 -31 110 -88 110c-70 0 -126 -64 -147 -147v-292h-95zM259 928l154 -171h-87l-64 65h-6l-66 -65h-87z" />
    <glyph glyph-name="Hbar" unicode="&#x126;" horiz-adv-x="689" 
d="M70 722h100v-117h349v117h100v-117h60v-71h-60v-534h-100v322h-349v-322h-100v534h-60v71h60v117zM170 408h349v126h-349v-126z" />
    <glyph glyph-name="hbar" unicode="&#x127;" horiz-adv-x="556" 
d="M25 594v71h40v57h93v-57h157v-71h-157v-92v-26c0 -16 -1 -37 -1 -60h6c13 23 67 95 160 95c56 0 168 -29 168 -184v-327h-96v329c0 69 -31 110 -88 110c-70 0 -126 -64 -147 -147v-292h-95v594h-40z" />
    <glyph glyph-name="Itilde" unicode="&#x128;" horiz-adv-x="240" 
d="M70 0v722h100v-722h-100zM17 776h-50c-3 85 47 112 89 112c25 0 46 -8 67 -15c23 -7 39 -15 58 -15s40 10 43 38h50c3 -85 -47 -112 -89 -112c-25 0 -46 8 -67 15c-23 7 -39 15 -58 15s-40 -10 -43 -38z" />
    <glyph glyph-name="itilde" unicode="&#x129;" horiz-adv-x="224" 
d="M65 0v502h94v-502h-94zM4 584h-51c-3 85 48 115 90 115c25 0 51 -8 72 -15c23 -7 44 -15 63 -15s40 11 43 39h51c3 -85 -48 -115 -90 -115c-25 0 -51 8 -72 15c-23 7 -44 15 -63 15s-40 -11 -43 -39z" />
    <glyph glyph-name="Imacron" unicode="&#x12a;" horiz-adv-x="240" 
d="M70 0v722h100v-722h-100zM-30 787v76h300v-76h-300z" />
    <glyph glyph-name="imacron" unicode="&#x12b;" horiz-adv-x="224" 
d="M65 0v502h94v-502h-94zM-33 594v71h290v-71h-290z" />
    <glyph glyph-name="Ibreve" unicode="&#x12c;" horiz-adv-x="240" 
d="M70 0v722h100v-722h-100zM120 831c76 0 90 59 90 78h55c3 -88 -52 -147 -145 -147c-92 0 -147 59 -144 147h55c0 -19 12 -78 89 -78z" />
    <glyph glyph-name="ibreve" unicode="&#x12d;" horiz-adv-x="224" 
d="M65 0v502h94v-502h-94zM112 634c81 0 90 69 90 88h55c3 -99 -52 -157 -145 -157c-92 0 -147 58 -144 157h55c0 -19 7 -88 89 -88z" />
    <glyph glyph-name="Iogonek" unicode="&#x12e;" horiz-adv-x="240" 
d="M70 0v722h100v-722c-40 -27 -96 -66 -96 -104c0 -31 23 -40 50 -40c23 0 48 10 59 15v-44c-23 -12 -50 -25 -95 -25c-66 0 -88 41 -88 72c0 56 51 95 116 126h-46z" />
    <glyph glyph-name="iogonek" unicode="&#x12f;" horiz-adv-x="224" 
d="M65 0v502h94v-502c-40 -27 -96 -66 -96 -104c0 -31 23 -40 50 -40c23 0 48 10 59 15v-44c-23 -12 -50 -25 -95 -25c-66 0 -88 41 -88 72c0 56 51 95 116 126h-40zM51 661c0 36 26 61 61 61s62 -25 62 -61s-27 -60 -62 -60s-61 24 -61 60z" />
    <glyph glyph-name="Idotaccent" unicode="&#x130;" horiz-adv-x="240" 
d="M70 0v722h100v-722h-100zM59 837c0 36 26 61 61 61s62 -25 62 -61s-27 -60 -62 -60s-61 24 -61 60z" />
    <glyph glyph-name="dotlessi" unicode="&#x131;" horiz-adv-x="228" 
d="M67 0v502h94v-502h-94z" />
    <glyph glyph-name="Jcircumflex" unicode="&#x134;" horiz-adv-x="498" 
d="M20 210h101c0 -70 23 -137 100 -137c72 0 107 51 107 139v510h100v-510c0 -141 -88 -223 -209 -223c-128 0 -199 96 -199 221zM250 934l158 -159h-95l-60 60h-6l-62 -60h-95z" />
    <glyph glyph-name="jcircumflex" unicode="&#x135;" horiz-adv-x="233" 
d="M0 -193v71c48 0 72 15 72 86v538h94v-535c0 -59 -17 -164 -128 -164c-12 0 -26 1 -38 4zM118 738l154 -171h-87l-64 65h-6l-66 -65h-87z" />
    <glyph glyph-name="Kcommaaccent" unicode="&#x136;" horiz-adv-x="610" 
d="M70 0v722h99v-340h6l275 340h123l-297 -350l324 -372h-126l-299 349h-6v-349h-99zM320 -246h-58c27 23 45 45 54 64c3 7 0 12 -7 12c-31 0 -57 23 -57 56c0 32 26 56 58 56s58 -21 59 -56c3 -43 -21 -93 -49 -132z" />
    <glyph glyph-name="kcommaaccent" unicode="&#x137;" horiz-adv-x="500" 
d="M65 0v722h93v-443h6l208 224h120l-232 -235l240 -268h-119l-217 251h-6v-251h-93zM266 -246h-58c27 23 45 45 54 64c3 7 0 12 -7 12c-31 0 -57 23 -57 56c0 32 26 56 58 56s58 -21 59 -56c3 -43 -21 -93 -49 -132z" />
    <glyph glyph-name="Lacute" unicode="&#x139;" horiz-adv-x="485" 
d="M70 0v722h99v-633l296 1v-90h-395zM266 928l34 -75l-200 -86l-30 59z" />
    <glyph glyph-name="lacute" unicode="&#x13a;" horiz-adv-x="224" 
d="M159 519v-519h-94v722h84zM239 928l34 -75l-200 -86l-30 59z" />
    <glyph glyph-name="Lcommaaccent" unicode="&#x13b;" horiz-adv-x="485" 
d="M70 0v722h99v-633l296 1v-90h-395zM276 -246h-58c27 23 45 45 54 64c3 7 0 12 -7 12c-31 0 -57 23 -57 56c0 32 26 56 58 56s58 -21 59 -56c3 -43 -21 -93 -49 -132z" />
    <glyph glyph-name="lcommaaccent" unicode="&#x13c;" horiz-adv-x="224" 
d="M159 519v-519h-94v722h84zM121 -246h-58c27 23 45 45 54 64c3 7 0 12 -7 12c-31 0 -57 23 -57 56c0 32 26 56 58 56s58 -21 59 -56c3 -43 -21 -93 -49 -132z" />
    <glyph glyph-name="Lcaron" unicode="&#x13d;" horiz-adv-x="485" 
d="M70 0v722h99v-633l296 1v-90h-395zM301 513h-61c24 21 47 47 59 72c4 8 -1 14 -9 14c-35 0 -63 24 -63 60s27 63 63 63c35 0 62 -22 65 -61c1 -15 0 -29 -3 -43c-8 -31 -27 -73 -51 -105z" />
    <glyph glyph-name="lcaron" unicode="&#x13e;" horiz-adv-x="304" 
d="M159 519v-519h-94v722h84zM261 513h-61c24 21 47 47 59 72c4 8 -1 14 -9 14c-35 0 -63 24 -63 60s27 63 63 63c35 0 62 -22 65 -61c1 -15 0 -29 -3 -43c-8 -31 -27 -73 -51 -105z" />
    <glyph glyph-name="Ldot" unicode="&#x13f;" horiz-adv-x="485" 
d="M70 0v722h99v-633l296 1v-90h-395zM288 346c0 41 33 72 72 72s72 -31 72 -72s-33 -71 -72 -71s-72 30 -72 71z" />
    <glyph glyph-name="ldot" unicode="&#x140;" horiz-adv-x="374" 
d="M159 519v-519h-94v722h84zM220 346c0 41 33 72 72 72s72 -31 72 -72s-33 -71 -72 -71s-72 30 -72 71z" />
    <glyph glyph-name="Lslash" unicode="&#x141;" horiz-adv-x="496" 
d="M82 0v282l-72 -44v74l72 44v366h99v-304l195 121v-76l-195 -120v-254l296 1v-90h-395z" />
    <glyph glyph-name="lslash" unicode="&#x142;" horiz-adv-x="234" 
d="M163 519v-91l67 42v-72l-67 -42v-356h-94v298l-65 -40v72l65 40v352h84z" />
    <glyph glyph-name="Nacute" unicode="&#x143;" horiz-adv-x="750" 
d="M70 0v722h99l413 -566h6v566h92v-722h-100l-413 569h-6v-569h-91zM516 928l34 -75l-200 -86l-30 59z" />
    <glyph glyph-name="nacute" unicode="&#x144;" horiz-adv-x="551" 
d="M65 0v416c0 25 -1 57 -5 86h97v-86h6c13 23 68 96 162 96c60 0 166 -33 166 -185v-327h-96v329c0 69 -31 110 -88 110c-70 0 -126 -64 -147 -147v-292h-95zM406 742l41 -73l-195 -106l-35 58z" />
    <glyph glyph-name="Ncommaaccent" unicode="&#x145;" horiz-adv-x="750" 
d="M70 0v722h99l413 -566h6v566h92v-722h-100l-413 569h-6v-569h-91zM391 -246h-58c27 23 45 45 54 64c3 7 0 12 -7 12c-31 0 -57 23 -57 56c0 32 26 56 58 56s58 -21 59 -56c3 -43 -21 -93 -49 -132z" />
    <glyph glyph-name="ncommaaccent" unicode="&#x146;" horiz-adv-x="551" 
d="M65 0v416c0 25 -1 57 -5 86h97v-86h6c13 23 68 96 162 96c60 0 166 -33 166 -185v-327h-96v329c0 69 -31 110 -88 110c-70 0 -126 -64 -147 -147v-292h-95zM289 -246h-58c27 23 45 45 54 64c3 7 0 12 -7 12c-31 0 -57 23 -57 56c0 32 26 56 58 56s58 -21 59 -56
c3 -43 -21 -93 -49 -132z" />
    <glyph glyph-name="Ncaron" unicode="&#x147;" horiz-adv-x="750" 
d="M70 0v722h99l413 -566h6v566h92v-722h-100l-413 569h-6v-569h-91zM536 921l-158 -159l-160 159h95l62 -60h6l60 60h95z" />
    <glyph glyph-name="ncaron" unicode="&#x148;" horiz-adv-x="551" 
d="M65 0v416c0 25 -1 57 -5 86h97v-86h6c13 23 68 96 162 96c60 0 166 -33 166 -185v-327h-96v329c0 69 -31 110 -88 110c-70 0 -126 -64 -147 -147v-292h-95zM441 722l-154 -171l-156 171h87l66 -64h6l64 64h87z" />
    <glyph glyph-name="Eng" unicode="&#x14a;" horiz-adv-x="750" 
d="M285 -20h100c-1 -71 26 -119 98 -119c69 0 103 43 103 128c0 9 -5 13 -14 12l-405 568h-6v-569h-91v722h99l413 -571h6v571h92v-733c0 -137 -77 -209 -198 -209c-123 0 -197 75 -197 200z" />
    <glyph glyph-name="eng" unicode="&#x14b;" horiz-adv-x="551" 
d="M308 -193v71c51 0 87 17 87 86v365c0 69 -31 110 -88 110c-70 0 -126 -64 -147 -147v-292h-95v416c0 25 -1 57 -5 86h97v-86h6c13 23 68 96 162 96c60 0 166 -33 166 -185v-365c0 -64 -29 -159 -140 -159c-12 0 -31 1 -43 4z" />
    <glyph glyph-name="Omacron" unicode="&#x14c;" horiz-adv-x="796" 
d="M756 362c0 -237 -167 -379 -360 -379s-356 151 -356 383c0 196 138 375 357 375s359 -174 359 -379zM652 363c0 179 -108 294 -256 294c-155 0 -252 -133 -252 -293c0 -170 97 -296 252 -296c167 0 256 135 256 295zM248 787v76h300v-76h-300z" />
    <glyph glyph-name="omacron" unicode="&#x14d;" horiz-adv-x="578" 
d="M40 251c0 116 78 264 251 264c172 0 247 -152 247 -265c0 -133 -87 -267 -247 -267c-159 0 -251 127 -251 268zM138 251c0 -103 47 -197 152 -197c77 0 150 61 150 198c0 128 -69 192 -150 192c-65 0 -152 -42 -152 -193zM144 594v71h290v-71h-290z" />
    <glyph glyph-name="Obreve" unicode="&#x14e;" horiz-adv-x="796" 
d="M756 362c0 -237 -167 -379 -360 -379s-356 151 -356 383c0 196 138 375 357 375s359 -174 359 -379zM652 363c0 179 -108 294 -256 294c-155 0 -252 -133 -252 -293c0 -170 97 -296 252 -296c167 0 256 135 256 295zM399 831c76 0 90 59 90 78h55
c3 -88 -52 -147 -145 -147c-92 0 -147 59 -144 147h55c0 -19 12 -78 89 -78z" />
    <glyph glyph-name="obreve" unicode="&#x14f;" horiz-adv-x="578" 
d="M40 251c0 116 78 264 251 264c172 0 247 -152 247 -265c0 -133 -87 -267 -247 -267c-159 0 -251 127 -251 268zM138 251c0 -103 47 -197 152 -197c77 0 150 61 150 198c0 128 -69 192 -150 192c-65 0 -152 -42 -152 -193zM288 634c81 0 90 69 90 88h55
c3 -99 -52 -157 -145 -157c-92 0 -147 58 -144 157h55c0 -19 7 -88 89 -88z" />
    <glyph glyph-name="Ohungarumlaut" unicode="&#x150;" horiz-adv-x="796" 
d="M756 362c0 -237 -167 -379 -360 -379s-356 151 -356 383c0 196 138 375 357 375s359 -174 359 -379zM652 363c0 179 -108 294 -256 294c-155 0 -252 -133 -252 -293c0 -170 97 -296 252 -296c167 0 256 135 256 295zM424 935l43 -61l-155 -107l-38 50zM598 934l43 -61
l-155 -106l-38 49z" />
    <glyph glyph-name="ohungarumlaut" unicode="&#x151;" horiz-adv-x="578" 
d="M40 251c0 116 78 264 251 264c172 0 247 -152 247 -265c0 -133 -87 -267 -247 -267c-159 0 -251 127 -251 268zM138 251c0 -103 47 -197 152 -197c77 0 150 61 150 198c0 128 -69 192 -150 192c-65 0 -152 -42 -152 -193zM304 743l49 -59l-151 -120l-42 48zM471 743
l49 -59l-151 -120l-42 48z" />
    <glyph glyph-name="OE" unicode="&#x152;" horiz-adv-x="982" 
d="M942 0h-428c-36 -11 -75 -17 -116 -17c-218 0 -358 172 -358 373c0 238 166 385 358 385c39 0 80 -7 116 -19h417v-85h-318v-225h304v-84h-303v-240h328v-88zM143 362c0 -179 110 -293 258 -293c43 0 80 9 113 27v534c-33 17 -70 27 -113 27c-167 0 -258 -141 -258 -295z
" />
    <glyph glyph-name="oe" unicode="&#x153;" horiz-adv-x="935" 
d="M893 238h-358c1 -105 55 -180 148 -180c64 0 107 42 119 97h92c-11 -83 -85 -170 -211 -170c-88 0 -152 45 -192 113h-7c-40 -64 -104 -115 -195 -115c-159 0 -249 127 -249 268c0 116 77 264 250 264c92 0 155 -48 194 -109h6c39 64 100 109 180 109
c184 0 236 -159 223 -277zM138 251c0 -104 45 -196 153 -196c74 0 152 60 152 197c0 120 -69 192 -152 192c-67 0 -153 -42 -153 -193zM540 307h259c0 56 -26 140 -128 140c-60 0 -123 -41 -131 -140z" />
    <glyph glyph-name="Racute" unicode="&#x154;" horiz-adv-x="598" 
d="M70 0v722h170c139 0 268 -65 268 -201c0 -109 -89 -174 -193 -193l283 -328h-125l-267 316h-37v-316h-99zM167 638v-238l75 1c77 0 163 31 163 117c0 91 -89 119 -164 119zM380 928l34 -75l-200 -86l-30 59z" />
    <glyph glyph-name="racute" unicode="&#x155;" horiz-adv-x="375" 
d="M65 0v371c0 45 -1 88 -6 131h90l5 -131h6c16 65 74 139 146 139c28 0 49 -7 64 -14v-86c-15 7 -36 13 -56 13c-95 0 -149 -94 -154 -200v-223h-95zM338 742l41 -73l-195 -106l-35 58z" />
    <glyph glyph-name="Rcommaaccent" unicode="&#x156;" horiz-adv-x="598" 
d="M70 0v722h170c139 0 268 -65 268 -201c0 -109 -89 -174 -193 -193l283 -328h-125l-267 316h-37v-316h-99zM167 638v-238l75 1c77 0 163 31 163 117c0 91 -89 119 -164 119zM320 -246h-58c27 23 45 45 54 64c3 7 0 12 -7 12c-31 0 -57 23 -57 56c0 32 26 56 58 56
s58 -21 59 -56c3 -43 -21 -93 -49 -132z" />
    <glyph glyph-name="rcommaaccent" unicode="&#x157;" horiz-adv-x="375" 
d="M65 0v371c0 45 -1 88 -6 131h90l5 -131h6c16 65 74 139 146 139c28 0 49 -7 64 -14v-86c-15 7 -36 13 -56 13c-95 0 -149 -94 -154 -200v-223h-95zM122 -246h-58c27 23 45 45 54 64c3 7 0 12 -7 12c-31 0 -57 23 -57 56c0 32 26 56 58 56s58 -21 59 -56
c3 -43 -21 -93 -49 -132z" />
    <glyph glyph-name="Rcaron" unicode="&#x158;" horiz-adv-x="598" 
d="M70 0v722h170c139 0 268 -65 268 -201c0 -109 -89 -174 -193 -193l283 -328h-125l-267 316h-37v-316h-99zM167 638v-238l75 1c77 0 163 31 163 117c0 91 -89 119 -164 119zM428 921l-158 -159l-160 159h95l62 -60h6l60 60h95z" />
    <glyph glyph-name="rcaron" unicode="&#x159;" horiz-adv-x="375" 
d="M65 0v371c0 45 -1 88 -6 131h90l5 -131h6c16 65 74 139 146 139c28 0 49 -7 64 -14v-86c-15 7 -36 13 -56 13c-95 0 -149 -94 -154 -200v-223h-95zM373 722l-154 -171l-156 171h87l66 -64h6l64 64h87z" />
    <glyph glyph-name="Sacute" unicode="&#x15a;" horiz-adv-x="596" 
d="M40 218h104c0 -53 27 -150 159 -150c118 0 151 72 151 117c0 78 -55 104 -172 131c-128 29 -231 93 -231 214c0 135 108 210 241 210c132 0 236 -73 244 -210h-103c-5 91 -71 127 -143 127c-84 0 -139 -54 -139 -122c0 -80 76 -108 173 -130c140 -32 232 -86 232 -209
c0 -126 -98 -213 -261 -213c-114 0 -252 56 -255 235zM419 928l34 -75l-200 -86l-30 59z" />
    <glyph glyph-name="sacute" unicode="&#x15b;" horiz-adv-x="463" 
d="M40 149h97c0 -41 28 -91 100 -91c56 0 94 29 94 74c0 43 -36 65 -108 84c-105 27 -179 70 -179 153c0 91 76 145 184 145c94 0 175 -54 180 -150h-95c-3 51 -41 81 -88 81c-41 0 -88 -18 -88 -69c0 -43 40 -64 115 -81c108 -25 176 -70 176 -154
c0 -96 -85 -154 -195 -154c-92 0 -188 49 -193 162zM345 742l41 -73l-195 -106l-35 58z" />
    <glyph glyph-name="Scircumflex" unicode="&#x15c;" horiz-adv-x="596" 
d="M40 218h104c0 -53 27 -150 159 -150c118 0 151 72 151 117c0 78 -55 104 -172 131c-128 29 -231 93 -231 214c0 135 108 210 241 210c132 0 236 -73 244 -210h-103c-5 91 -71 127 -143 127c-84 0 -139 -54 -139 -122c0 -80 76 -108 173 -130c140 -32 232 -86 232 -209
c0 -126 -98 -213 -261 -213c-114 0 -252 56 -255 235zM299 934l158 -159h-95l-60 60h-6l-62 -60h-95z" />
    <glyph glyph-name="scircumflex" unicode="&#x15d;" horiz-adv-x="463" 
d="M40 149h97c0 -41 28 -91 100 -91c56 0 94 29 94 74c0 43 -36 65 -108 84c-105 27 -179 70 -179 153c0 91 76 145 184 145c94 0 175 -54 180 -150h-95c-3 51 -41 81 -88 81c-41 0 -88 -18 -88 -69c0 -43 40 -64 115 -81c108 -25 176 -70 176 -154
c0 -96 -85 -154 -195 -154c-92 0 -188 49 -193 162zM235 738l154 -171h-87l-64 65h-6l-66 -65h-87z" />
    <glyph glyph-name="Scedilla" unicode="&#x15e;" horiz-adv-x="596" 
d="M191 -193l20 41c12 -7 38 -17 67 -17c35 0 56 16 56 43c0 23 -18 35 -45 35c-15 0 -32 -4 -44 -9l-27 22l44 63c-106 11 -219 70 -222 233h104c0 -53 27 -150 159 -150c118 0 151 72 151 117c0 78 -55 104 -172 131c-128 29 -231 93 -231 214c0 135 108 210 241 210
c132 0 236 -73 244 -210h-103c-5 91 -71 127 -143 127c-84 0 -139 -54 -139 -122c0 -80 76 -108 173 -130c140 -32 232 -86 232 -209c0 -120 -91 -207 -242 -212l-34 -40l3 -4c11 4 29 9 48 9c45 0 70 -29 70 -69c0 -49 -41 -94 -121 -94c-41 0 -66 9 -89 21z" />
    <glyph glyph-name="scedilla" unicode="&#x15f;" horiz-adv-x="463" 
d="M124 -193l20 41c12 -7 38 -17 67 -17c35 0 56 16 56 43c0 23 -18 35 -45 35c-15 0 -32 -4 -44 -9l-27 22l47 68c-81 11 -153 60 -158 159h97c0 -41 28 -91 100 -91c56 0 94 29 94 74c0 43 -36 65 -108 84c-105 27 -179 70 -179 153c0 91 76 145 184 145
c94 0 175 -54 180 -150h-95c-3 51 -41 81 -88 81c-41 0 -88 -18 -88 -69c0 -43 40 -64 115 -81c108 -25 176 -70 176 -154c0 -91 -76 -148 -177 -153l-38 -44l3 -4c11 4 29 9 48 9c45 0 70 -29 70 -69c0 -49 -41 -94 -121 -94c-41 0 -66 9 -89 21z" />
    <glyph glyph-name="Scaron" unicode="&#x160;" horiz-adv-x="596" 
d="M40 218h104c0 -53 27 -150 159 -150c118 0 151 72 151 117c0 78 -55 104 -172 131c-128 29 -231 93 -231 214c0 135 108 210 241 210c132 0 236 -73 244 -210h-103c-5 91 -71 127 -143 127c-84 0 -139 -54 -139 -122c0 -80 76 -108 173 -130c140 -32 232 -86 232 -209
c0 -126 -98 -213 -261 -213c-114 0 -252 56 -255 235zM457 921l-158 -159l-160 159h95l62 -60h6l60 60h95z" />
    <glyph glyph-name="scaron" unicode="&#x161;" horiz-adv-x="463" 
d="M40 149h97c0 -41 28 -91 100 -91c56 0 94 29 94 74c0 43 -36 65 -108 84c-105 27 -179 70 -179 153c0 91 76 145 184 145c94 0 175 -54 180 -150h-95c-3 51 -41 81 -88 81c-41 0 -88 -18 -88 -69c0 -43 40 -64 115 -81c108 -25 176 -70 176 -154
c0 -96 -85 -154 -195 -154c-92 0 -188 49 -193 162zM387 722l-154 -171l-156 171h87l66 -64h6l64 64h87z" />
    <glyph glyph-name="uni0162" unicode="&#x162;" horiz-adv-x="565" 
d="M173 -193l20 41c12 -7 38 -17 67 -17c35 0 56 16 56 43c0 23 -18 35 -45 35c-15 0 -32 -4 -44 -9l-27 22l54 78h-20v637h-214v85h525v-85h-212v-637h-22l-49 -56l3 -4c11 4 29 9 48 9c45 0 70 -29 70 -69c0 -49 -41 -94 -121 -94c-41 0 -66 9 -89 21z" />
    <glyph glyph-name="uni0163" unicode="&#x163;" horiz-adv-x="355" 
d="M100 -193l20 41c12 -7 38 -17 67 -17c35 0 56 16 56 43c0 23 -18 35 -45 35c-15 0 -32 -4 -44 -9l-27 22l56 80c-55 23 -83 71 -83 144v284h-80v72h82l17 150h74v-150h142v-72h-142v-283c0 -45 22 -72 69 -72c28 0 58 8 73 15v-74c-17 -12 -49 -25 -84 -25
c-7 0 -13 1 -20 1l-42 -48l3 -4c11 4 29 9 48 9c45 0 70 -29 70 -69c0 -49 -41 -94 -121 -94c-41 0 -66 9 -89 21z" />
    <glyph glyph-name="Tcaron" unicode="&#x164;" horiz-adv-x="565" 
d="M333 0h-99v637h-214v85h525v-85h-212v-637zM442 921l-158 -159l-160 159h95l62 -60h6l60 60h95z" />
    <glyph glyph-name="tcaron" unicode="&#x165;" horiz-adv-x="355" 
d="M20 430v72h82l17 150h74v-150h142v-72h-142v-283c0 -45 22 -72 69 -72c28 0 58 8 73 15v-74c-17 -12 -49 -25 -84 -25c-97 0 -151 58 -151 155v284h-80zM300 555h-61c24 21 47 47 59 72c4 8 -1 14 -9 14c-35 0 -63 24 -63 60s27 63 63 63c35 0 62 -22 65 -61
c1 -15 0 -29 -3 -43c-8 -31 -27 -73 -51 -105z" />
    <glyph glyph-name="Tbar" unicode="&#x166;" horiz-adv-x="565" 
d="M139 324v71h95v242h-214v85h525v-85h-212v-242h96v-71h-96v-324h-99v324h-95z" />
    <glyph glyph-name="tbar" unicode="&#x167;" horiz-adv-x="355" 
d="M20 430v72h82l17 150h74v-150h142v-72h-142v-129h142v-71h-142v-83c0 -45 22 -72 69 -72c28 0 58 8 73 15v-74c-17 -12 -49 -25 -84 -25c-97 0 -151 58 -151 155v84h-80v71h80v129h-80z" />
    <glyph glyph-name="Utilde" unicode="&#x168;" horiz-adv-x="673" 
d="M70 722h100v-454c0 -141 70 -194 167 -194c164 0 169 143 169 195v453h97v-451c0 -213 -124 -286 -266 -286c-157 0 -267 89 -267 284v453zM233 776h-50c-3 85 47 112 89 112c25 0 46 -8 67 -15c23 -7 39 -15 58 -15s40 10 43 38h50c3 -85 -47 -112 -89 -112
c-25 0 -46 8 -67 15c-23 7 -39 15 -58 15s-40 -10 -43 -38z" />
    <glyph glyph-name="utilde" unicode="&#x169;" horiz-adv-x="563" 
d="M399 502h97v-416c0 -25 2 -59 7 -86h-97c-3 21 -2 58 -1 87h-6c-11 -21 -63 -94 -163 -94c-67 0 -171 37 -171 189v320h96v-321c0 -67 30 -112 95 -112c68 0 127 59 143 147v286zM173 584h-51c-3 85 48 115 90 115c25 0 51 -8 72 -15c23 -7 44 -15 63 -15s40 11 43 39h51
c3 -85 -48 -115 -90 -115c-25 0 -51 8 -72 15c-23 7 -44 15 -63 15s-40 -11 -43 -39z" />
    <glyph glyph-name="Umacron" unicode="&#x16a;" horiz-adv-x="673" 
d="M70 722h100v-454c0 -141 70 -194 167 -194c164 0 169 143 169 195v453h97v-451c0 -213 -124 -286 -266 -286c-157 0 -267 89 -267 284v453zM188 787v76h300v-76h-300z" />
    <glyph glyph-name="umacron" unicode="&#x16b;" horiz-adv-x="563" 
d="M399 502h97v-416c0 -25 2 -59 7 -86h-97c-3 21 -2 58 -1 87h-6c-11 -21 -63 -94 -163 -94c-67 0 -171 37 -171 189v320h96v-321c0 -67 30 -112 95 -112c68 0 127 59 143 147v286zM136 594v71h290v-71h-290z" />
    <glyph glyph-name="Ubreve" unicode="&#x16c;" horiz-adv-x="673" 
d="M70 722h100v-454c0 -141 70 -194 167 -194c164 0 169 143 169 195v453h97v-451c0 -213 -124 -286 -266 -286c-157 0 -267 89 -267 284v453zM337 831c76 0 90 59 90 78h55c3 -88 -52 -147 -145 -147c-92 0 -147 59 -144 147h55c0 -19 12 -78 89 -78z" />
    <glyph glyph-name="ubreve" unicode="&#x16d;" horiz-adv-x="563" 
d="M399 502h97v-416c0 -25 2 -59 7 -86h-97c-3 21 -2 58 -1 87h-6c-11 -21 -63 -94 -163 -94c-67 0 -171 37 -171 189v320h96v-321c0 -67 30 -112 95 -112c68 0 127 59 143 147v286zM283 634c81 0 90 69 90 88h55c3 -99 -52 -157 -145 -157c-92 0 -147 58 -144 157h55
c0 -19 7 -88 89 -88z" />
    <glyph glyph-name="Uring" unicode="&#x16e;" horiz-adv-x="673" 
d="M70 722h100v-454c0 -141 70 -194 167 -194c164 0 169 143 169 195v453h97v-451c0 -213 -124 -286 -266 -286c-157 0 -267 89 -267 284v453zM247 849c0 51 39 86 90 86s90 -35 90 -86s-39 -87 -90 -87s-90 36 -90 87zM291 849c0 -25 21 -45 46 -45c24 0 46 20 46 45
s-22 45 -46 45c-25 0 -46 -20 -46 -45z" />
    <glyph glyph-name="uring" unicode="&#x16f;" horiz-adv-x="563" 
d="M399 502h97v-416c0 -25 2 -59 7 -86h-97c-3 21 -2 58 -1 87h-6c-11 -21 -63 -94 -163 -94c-67 0 -171 37 -171 189v320h96v-321c0 -67 30 -112 95 -112c68 0 127 59 143 147v286zM193 652c0 52 42 90 94 90s94 -38 94 -90s-42 -91 -94 -91s-94 39 -94 91zM237 652
c0 -29 23 -49 50 -49s50 20 50 49s-23 49 -50 49s-50 -20 -50 -49z" />
    <glyph glyph-name="Uhungarumlaut" unicode="&#x170;" horiz-adv-x="673" 
d="M70 722h100v-454c0 -141 70 -194 167 -194c164 0 169 143 169 195v453h97v-451c0 -213 -124 -286 -266 -286c-157 0 -267 89 -267 284v453zM356 935l43 -61l-155 -107l-38 50zM530 934l43 -61l-155 -106l-38 49z" />
    <glyph glyph-name="uhungarumlaut" unicode="&#x171;" horiz-adv-x="563" 
d="M399 502h97v-416c0 -25 2 -59 7 -86h-97c-3 21 -2 58 -1 87h-6c-11 -21 -63 -94 -163 -94c-67 0 -171 37 -171 189v320h96v-321c0 -67 30 -112 95 -112c68 0 127 59 143 147v286zM280 743l49 -59l-151 -120l-42 48zM447 743l49 -59l-151 -120l-42 48z" />
    <glyph glyph-name="Uogonek" unicode="&#x172;" horiz-adv-x="673" 
d="M452 -129v-44c-23 -12 -50 -25 -95 -25c-66 0 -88 41 -88 72c0 48 37 83 88 112c-7 -1 -13 -1 -20 -1c-157 0 -267 89 -267 284v453h100v-454c0 -141 70 -194 167 -194c164 0 169 143 169 195v453h97v-451c0 -159 -70 -242 -165 -271c-40 -26 -95 -66 -95 -104
c0 -31 23 -40 50 -40c23 0 48 10 59 15z" />
    <glyph glyph-name="uogonek" unicode="&#x173;" horiz-adv-x="563" 
d="M516 -129v-44c-23 -12 -50 -25 -95 -25c-66 0 -88 41 -88 72c0 56 51 95 116 126h-43c-3 21 -2 58 -1 87h-6c-11 -21 -63 -94 -163 -94c-67 0 -171 37 -171 189v320h96v-321c0 -67 30 -112 95 -112c68 0 127 59 143 147v286h97v-416c0 -25 2 -59 7 -86
c-40 -27 -96 -66 -96 -104c0 -31 23 -40 50 -40c23 0 48 10 59 15z" />
    <glyph glyph-name="Wcircumflex" unicode="&#x174;" horiz-adv-x="960" 
d="M30 722h109l120 -585h6l157 585h121l156 -585h6l124 585h101l-170 -722h-119l-157 599h-6l-162 -599h-118zM482 934l158 -159h-95l-60 60h-6l-62 -60h-95z" />
    <glyph glyph-name="wcircumflex" unicode="&#x175;" horiz-adv-x="826" 
d="M707 502h99l-164 -502h-111l-119 415h-6l-125 -415h-108l-153 502h97l106 -400h6l122 400h122l111 -400h6zM410 738l154 -171h-87l-64 65h-6l-66 -65h-87z" />
    <glyph glyph-name="Ycircumflex" unicode="&#x176;" horiz-adv-x="587" 
d="M347 266v-266h-101v266c0 10 -5 16 -14 18l-217 438h118l163 -366h6l160 366h110l-212 -438c-9 -3 -13 -9 -13 -18zM294 934l158 -159h-95l-60 60h-6l-62 -60h-95z" />
    <glyph glyph-name="ycircumflex" unicode="&#x177;" horiz-adv-x="510" 
d="M392 502h98c-165 -503 -179 -539 -203 -602c-31 -79 -81 -102 -142 -102c-21 0 -49 3 -66 10v80c15 -5 41 -9 54 -9c33 0 51 12 66 41c10 20 27 64 30 80c5 23 -9 35 -29 34l-180 468h104l140 -398h6zM261 738l154 -171h-87l-64 65h-6l-66 -65h-87z" />
    <glyph glyph-name="Ydieresis" unicode="&#x178;" horiz-adv-x="587" 
d="M347 266v-266h-101v266c0 10 -5 16 -14 18l-217 438h118l163 -366h6l160 366h110l-212 -438c-9 -3 -13 -9 -13 -18zM142 837c0 36 26 61 61 61s62 -25 62 -61s-27 -60 -62 -60s-61 24 -61 60zM333 837c0 36 26 61 61 61s62 -25 62 -61s-27 -60 -62 -60s-61 24 -61 60z
" />
    <glyph glyph-name="Zacute" unicode="&#x179;" horiz-adv-x="542" 
d="M30 0v98l376 530v6h-356v88h462v-103l-373 -525v-6h367v-88h-476zM375 928l34 -75l-200 -86l-30 59z" />
    <glyph glyph-name="zacute" unicode="&#x17a;" horiz-adv-x="455" 
d="M30 0v89l293 336v6h-285v71h387v-82l-298 -341v-6h298v-73h-395zM326 742l41 -73l-195 -106l-35 58z" />
    <glyph glyph-name="Zdotaccent" unicode="&#x17b;" horiz-adv-x="542" 
d="M30 0v98l376 530v6h-356v88h462v-103l-373 -525v-6h367v-88h-476zM218 837c0 36 26 61 61 61s62 -25 62 -61s-27 -60 -62 -60s-61 24 -61 60z" />
    <glyph glyph-name="zdotaccent" unicode="&#x17c;" horiz-adv-x="455" 
d="M30 0v89l293 336v6h-285v71h387v-82l-298 -341v-6h298v-73h-395zM172 644c0 39 26 63 63 63s64 -24 64 -63s-27 -62 -64 -62s-63 23 -63 62z" />
    <glyph glyph-name="Zcaron" unicode="&#x17d;" horiz-adv-x="542" 
d="M30 0v98l376 530v6h-356v88h462v-103l-373 -525v-6h367v-88h-476zM445 921l-158 -159l-160 159h95l62 -60h6l60 60h95z" />
    <glyph glyph-name="zcaron" unicode="&#x17e;" horiz-adv-x="455" 
d="M30 0v89l293 336v6h-285v71h387v-82l-298 -341v-6h298v-73h-395zM389 722l-154 -171l-156 171h87l66 -64h6l64 64h87z" />
    <glyph glyph-name="florin" unicode="&#x192;" horiz-adv-x="545" 
d="M178 -24c5 20 44 263 63 380h-77v71h90l18 114c16 101 75 157 163 157c17 0 35 -2 56 -6v-71c-9 1 -33 3 -46 3c-61 0 -80 -41 -88 -86l-17 -111h81v-71h-94l-61 -386c-17 -101 -79 -153 -167 -153c-19 0 -33 1 -54 6v71c9 -1 33 -3 46 -3c60 0 79 38 87 85z" />
    <glyph glyph-name="Aringacute" unicode="&#x1fa;" horiz-adv-x="635" 
d="M453 183h-274l-58 -183h-101l238 722h110l247 -722h-101zM204 264h222l-110 344h-6zM223 849c0 51 39 86 90 86s90 -35 90 -86s-39 -87 -90 -87s-90 36 -90 87zM267 849c0 -25 21 -45 46 -45c24 0 46 20 46 45s-22 45 -46 45c-25 0 -46 -20 -46 -45zM418 1128l34 -75
l-200 -86l-30 59z" />
    <glyph glyph-name="aringacute" unicode="&#x1fb;" horiz-adv-x="523" 
d="M372 0h95c-7 27 -6 60 -6 83v250c0 125 -86 183 -199 183c-118 0 -188 -72 -207 -160h101c-3 47 34 89 106 89s111 -40 111 -112v-54c-44 13 -92 23 -152 22c-107 -3 -176 -68 -176 -161c0 -88 58 -153 157 -153c67 0 126 32 169 77h5c0 -12 -1 -26 -2 -41zM371 222v-89
c-24 -27 -77 -74 -137 -74c-64 0 -97 31 -97 86c0 53 38 90 103 91c45 1 92 -6 131 -14zM187 652c0 52 42 90 94 90s94 -38 94 -90s-42 -91 -94 -91s-94 39 -94 91zM231 652c0 -29 23 -49 50 -49s50 20 50 49s-23 49 -50 49s-50 -20 -50 -49zM385 942l41 -73l-195 -106
l-35 58z" />
    <glyph glyph-name="AEacute" unicode="&#x1fc;" horiz-adv-x="943" 
d="M483 183h-276l-83 -183h-104l344 722h531v-85h-401l43 -225h341v-84h-327l45 -240h307v-88h-387zM469 264l-62 341h-6l-158 -341h226zM750 928l34 -75l-200 -86l-30 59z" />
    <glyph glyph-name="aeacute" unicode="&#x1fd;" horiz-adv-x="855" 
d="M251 516c-116 0 -186 -72 -202 -160h102c-3 47 33 90 105 90c69 0 111 -43 111 -115v-48c-51 13 -86 20 -146 20c-103 0 -181 -67 -181 -159c0 -93 61 -159 165 -159c85 0 157 44 200 105h6c40 -68 104 -105 192 -105c126 0 200 87 211 170h-92c-12 -55 -55 -97 -119 -97
c-93 0 -145 75 -146 180h356c13 118 -40 277 -219 277c-80 0 -128 -36 -167 -77h-6c-35 48 -86 78 -170 78zM719 307h-259c8 99 71 140 131 140c102 0 128 -84 128 -140zM368 224c1 -25 3 -55 10 -82c-22 -30 -74 -83 -151 -83c-64 0 -95 31 -95 87c0 52 40 92 105 92
c45 0 92 -7 131 -14zM581 742l41 -73l-195 -106l-35 58z" />
    <glyph glyph-name="Oslashacute" unicode="&#x1fe;" horiz-adv-x="796" 
d="M756 362c0 107 -37 202 -104 273l80 100l-45 36l-78 -98c-57 43 -128 68 -212 68c-219 0 -357 -179 -357 -375c0 -116 39 -209 103 -276l-81 -102l44 -36l80 100c60 -46 130 -69 210 -69c193 0 360 142 360 379zM652 363c0 -160 -89 -295 -256 -295
c-61 0 -112 18 -154 54l350 438c39 -51 60 -117 60 -197zM396 657c61 0 113 -18 156 -54l-349 -439c-39 52 -59 120 -59 200c0 160 97 293 252 293zM519 928l34 -75l-200 -86l-30 59z" />
    <glyph glyph-name="oslashacute" unicode="&#x1ff;" horiz-adv-x="578" 
d="M40 251c0 -75 25 -142 72 -193l-69 -93l42 -33l67 91c39 -25 84 -40 139 -40c160 0 247 134 247 267c0 64 -23 137 -74 192l69 93l-43 33l-68 -91c-35 23 -78 38 -131 38c-173 0 -251 -148 -251 -264zM290 54c-39 0 -68 12 -91 32l213 286c17 -31 28 -71 28 -120
c0 -137 -73 -198 -150 -198zM138 251c0 151 87 193 152 193c33 0 61 -10 86 -30l-211 -285c-19 35 -27 77 -27 122zM423 742l41 -73l-195 -106l-35 58z" />
    <glyph glyph-name="uni0218" unicode="&#x218;" horiz-adv-x="596" 
d="M40 218h104c0 -53 27 -150 159 -150c118 0 151 72 151 117c0 78 -55 104 -172 131c-128 29 -231 93 -231 214c0 135 108 210 241 210c132 0 236 -73 244 -210h-103c-5 91 -71 127 -143 127c-84 0 -139 -54 -139 -122c0 -80 76 -108 173 -130c140 -32 232 -86 232 -209
c0 -126 -98 -213 -261 -213c-114 0 -252 56 -255 235zM314 -246h-58c27 23 45 45 54 64c3 7 0 12 -7 12c-31 0 -57 23 -57 56c0 32 26 56 58 56s58 -21 59 -56c3 -43 -21 -93 -49 -132z" />
    <glyph glyph-name="uni0219" unicode="&#x219;" horiz-adv-x="463" 
d="M40 149h97c0 -41 28 -91 100 -91c56 0 94 29 94 74c0 43 -36 65 -108 84c-105 27 -179 70 -179 153c0 91 76 145 184 145c94 0 175 -54 180 -150h-95c-3 51 -41 81 -88 81c-41 0 -88 -18 -88 -69c0 -43 40 -64 115 -81c108 -25 176 -70 176 -154
c0 -96 -85 -154 -195 -154c-92 0 -188 49 -193 162zM243 -246h-58c27 23 45 45 54 64c3 7 0 12 -7 12c-31 0 -57 23 -57 56c0 32 26 56 58 56s58 -21 59 -56c3 -43 -21 -93 -49 -132z" />
    <glyph glyph-name="uni021A" unicode="&#x21a;" horiz-adv-x="565" 
d="M333 0h-99v637h-214v85h525v-85h-212v-637zM294 -246h-58c27 23 45 45 54 64c3 7 0 12 -7 12c-31 0 -57 23 -57 56c0 32 26 56 58 56s58 -21 59 -56c3 -43 -21 -93 -49 -132z" />
    <glyph glyph-name="uni021B" unicode="&#x21b;" horiz-adv-x="355" 
d="M20 430v72h82l17 150h74v-150h142v-72h-142v-283c0 -45 22 -72 69 -72c28 0 58 8 73 15v-74c-17 -12 -49 -25 -84 -25c-97 0 -151 58 -151 155v284h-80zM224 -246h-58c27 23 45 45 54 64c3 7 0 12 -7 12c-31 0 -57 23 -57 56c0 32 26 56 58 56s58 -21 59 -56
c3 -43 -21 -93 -49 -132z" />
    <glyph glyph-name="circumflex" unicode="&#x2c6;" horiz-adv-x="410" 
d="M206 738l154 -171h-87l-64 65h-6l-66 -65h-87z" />
    <glyph glyph-name="caron" unicode="&#x2c7;" horiz-adv-x="410" 
d="M360 722l-154 -171l-156 171h87l66 -64h6l64 64h87z" />
    <glyph glyph-name="breve" unicode="&#x2d8;" horiz-adv-x="391" 
d="M195 634c81 0 90 69 90 88h55c3 -99 -52 -157 -145 -157c-92 0 -147 58 -144 157h55c0 -19 7 -88 89 -88z" />
    <glyph glyph-name="dotaccent" unicode="&#x2d9;" horiz-adv-x="227" 
d="M50 644c0 39 26 63 63 63s64 -24 64 -63s-27 -62 -64 -62s-63 23 -63 62z" />
    <glyph glyph-name="ring" unicode="&#x2da;" horiz-adv-x="288" 
d="M50 652c0 52 42 90 94 90s94 -38 94 -90s-42 -91 -94 -91s-94 39 -94 91zM94 652c0 -29 23 -49 50 -49s50 20 50 49s-23 49 -50 49s-50 -20 -50 -49z" />
    <glyph glyph-name="ogonek" unicode="&#x2db;" horiz-adv-x="289" 
d="M232 -129v-44c-23 -12 -50 -25 -95 -25c-66 0 -88 41 -88 72c0 56 51 95 116 126h54c-40 -27 -96 -66 -96 -104c0 -31 23 -40 50 -40c23 0 48 10 59 15z" />
    <glyph glyph-name="tilde" unicode="&#x2dc;" horiz-adv-x="421" 
d="M102 584h-51c-3 85 48 115 90 115c25 0 51 -8 72 -15c23 -7 44 -15 63 -15s40 11 43 39h51c3 -85 -48 -115 -90 -115c-25 0 -51 8 -72 15c-23 7 -44 15 -63 15s-40 -11 -43 -39z" />
    <glyph glyph-name="hungarumlaut" unicode="&#x2dd;" horiz-adv-x="460" 
d="M194 743l49 -59l-151 -120l-42 48zM361 743l49 -59l-151 -120l-42 48z" />
    <glyph glyph-name="pi" unicode="&#x3c0;" horiz-adv-x="575" 
d="M555 84v-73c-23 -12 -51 -20 -80 -20c-71 0 -98 41 -98 112v319h-189v-422h-90v421h-78l5 81h530v-81h-88v-304c0 -29 11 -45 42 -45c15 0 31 5 46 12z" />
    <glyph glyph-name="afii10023" unicode="&#x401;" horiz-adv-x="538" 
d="M70 0v722h417v-85h-318v-225h304v-84h-303v-240h328v-88h-428zM112 837c0 36 26 61 61 61s62 -25 62 -61s-27 -60 -62 -60s-61 24 -61 60zM303 837c0 36 26 61 61 61s62 -25 62 -61s-27 -60 -62 -60s-61 24 -61 60z" />
    <glyph glyph-name="afii10051" unicode="&#x402;" horiz-adv-x="725" 
d="M563 159v161c0 69 -31 108 -88 108c-69 0 -122 -60 -142 -144v-284h-99v637h-214v85h530v-85h-219v-135v-29c0 -19 -1 -41 -1 -65h6c13 23 61 94 155 94c56 0 169 -29 169 -184v-157c0 -59 -20 -164 -131 -164c-12 0 -26 1 -38 4v73c48 0 72 16 72 85z" />
    <glyph glyph-name="afii10052" unicode="&#x403;" horiz-adv-x="485" 
d="M70 722v-722h100v633l295 -1v90h-395zM392 928l34 -75l-200 -86l-30 59z" />
    <glyph glyph-name="afii10053" unicode="&#x404;" horiz-adv-x="670" 
d="M626 502h-99c-3 72 -56 148 -167 148c-129 0 -204 -101 -217 -241l274 1v-84l-276 1c8 -135 77 -252 218 -252c112 0 171 72 176 147h100c-16 -142 -130 -234 -277 -234c-232 0 -318 210 -318 369c0 175 97 374 318 374c146 0 257 -89 268 -229z" />
    <glyph glyph-name="afii10054" unicode="&#x405;" horiz-adv-x="596" 
d="M40 218h104c0 -52 27 -149 159 -149c118 0 151 72 151 116c0 79 -55 105 -172 132c-128 29 -231 92 -231 213c0 135 108 210 241 210c132 0 236 -73 244 -210h-103c-5 91 -71 127 -143 127c-84 0 -139 -54 -139 -122c0 -80 76 -108 173 -130c140 -32 232 -86 232 -209
c0 -126 -98 -213 -261 -213c-114 0 -252 56 -255 235z" />
    <glyph glyph-name="afii10055" unicode="&#x406;" horiz-adv-x="240" 
d="M70 0v722h100v-722h-100z" />
    <glyph glyph-name="afii10056" unicode="&#x407;" horiz-adv-x="240" 
d="M70 0v722h100v-722h-100zM-37 837c0 36 26 61 61 61s62 -25 62 -61s-27 -60 -62 -60s-61 24 -61 60zM154 837c0 36 26 61 61 61s62 -25 62 -61s-27 -60 -62 -60s-61 24 -61 60z" />
    <glyph glyph-name="afii10057" unicode="&#x408;" horiz-adv-x="498" 
d="M20 210h101c0 -70 23 -137 100 -137c72 0 107 51 107 139v510h100v-510c0 -141 -88 -223 -209 -223c-128 0 -199 96 -199 221z" />
    <glyph glyph-name="afii10058" unicode="&#x409;" horiz-adv-x="835" 
d="M10 1v74c62 0 113 29 121 165l25 482h317v-286h60c141 0 267 -69 267 -213c0 -151 -132 -223 -277 -223h-149v638h-122l-20 -405c-8 -171 -79 -239 -175 -239c-15 0 -34 2 -47 7zM473 354v-270l51 1c67 0 172 23 172 137c0 109 -102 131 -160 131z" />
    <glyph glyph-name="afii10059" unicode="&#x40a;" horiz-adv-x="792" 
d="M331 351h-161v-351h-100v722h100v-285h161v285h99v-286h60c141 0 267 -69 267 -213c0 -151 -132 -223 -277 -223h-149v351zM430 354v-270l51 1c67 0 172 23 172 137c0 109 -102 131 -160 131z" />
    <glyph glyph-name="afii10060" unicode="&#x40b;" horiz-adv-x="725" 
d="M234 0v637h-214v85h530v-85h-219v-176h119c116 0 210 -61 210 -193v-268h-97v265c0 80 -44 119 -124 120l-107 2v-387h-98z" />
    <glyph glyph-name="afii10061" unicode="&#x40c;" horiz-adv-x="610" 
d="M70 0v722h99v-350h6l275 350h123l-298 -360l325 -362h-126l-299 339h-6v-339h-99zM436 928l34 -75l-200 -86l-30 59z" />
    <glyph glyph-name="afii10062" unicode="&#x40e;" horiz-adv-x="584" 
d="M569 722l-248 -615c-35 -85 -85 -113 -157 -113c-24 0 -57 7 -74 15v80c15 -5 46 -9 65 -9c36 0 60 16 73 48l35 84c11 28 -9 52 -38 47l-210 463h114l171 -411h6l154 411h109zM291 831c76 0 90 59 90 78h55c3 -88 -52 -147 -145 -147c-92 0 -147 59 -144 147h55
c0 -19 12 -78 89 -78z" />
    <glyph glyph-name="afii10145" unicode="&#x40f;" horiz-adv-x="675" 
d="M288 -140l-2 140h-216v722h101v-635h335v635h99v-722h-216l-2 -140h-99z" />
    <glyph glyph-name="afii10017" unicode="&#x410;" horiz-adv-x="635" 
d="M453 183h-274l-58 -183h-101l238 722h110l247 -722h-101zM204 264h222l-110 344h-6z" />
    <glyph glyph-name="afii10018" unicode="&#x411;" horiz-adv-x="572" 
d="M70 0v722h424v-90l-326 1v-197h89c146 0 275 -66 275 -213c0 -152 -136 -223 -285 -223h-177zM169 354v-270l79 1c67 0 179 21 179 137c0 109 -109 131 -167 131z" />
    <glyph glyph-name="afii10019" unicode="&#x412;" horiz-adv-x="564" 
d="M70 0v722h180c139 0 240 -75 240 -194c0 -97 -71 -145 -111 -158v-6c43 -8 135 -57 135 -165c0 -129 -104 -199 -248 -199h-196zM167 322v-241l105 1c79 0 141 43 141 119c0 66 -59 120 -140 120zM166 640v-236l83 1c44 0 142 14 142 117c0 88 -83 117 -138 117z" />
    <glyph glyph-name="afii10020" unicode="&#x413;" horiz-adv-x="485" 
d="M70 0v722h395v-90l-295 1v-633h-100z" />
    <glyph glyph-name="afii10021" unicode="&#x414;" horiz-adv-x="760" 
d="M30 88h31c63 0 108 29 124 165l51 469h388v-634h101l-4 -227h-97v139h-493v-139h-97zM525 86v553h-200l-39 -393c-8 -79 -29 -128 -58 -160h297z" />
    <glyph glyph-name="afii10022" unicode="&#x415;" horiz-adv-x="538" 
d="M70 0v722h417v-85h-318v-225h304v-84h-303v-240h328v-88h-428z" />
    <glyph glyph-name="afii10024" unicode="&#x416;" horiz-adv-x="904" 
d="M404 363l-1 359h98l-1 -359h6l246 359h116l-265 -363l291 -359h-120l-268 338h-6l1 -338h-98l1 338h-6l-268 -338h-120l291 359l-265 363h116l246 -359h6z" />
    <glyph glyph-name="afii10025" unicode="&#x417;" horiz-adv-x="582" 
d="M35 196h114c7 -76 62 -126 142 -126s134 47 134 122c0 87 -61 128 -148 135c-24 2 -50 3 -77 3v81c21 0 42 1 62 3c83 8 155 35 155 125c0 75 -57 114 -124 114c-69 0 -119 -42 -134 -110h-108c21 124 122 193 242 193c125 0 225 -68 225 -189c0 -73 -32 -129 -116 -170
v-6c89 -32 130 -98 130 -178c0 -127 -97 -210 -244 -210c-140 0 -240 90 -253 213z" />
    <glyph glyph-name="afii10026" unicode="&#x418;" horiz-adv-x="750" 
d="M680 722v-722h-92v579h-6l-412 -579h-100v722h93v-575h6l412 575h99z" />
    <glyph glyph-name="afii10027" unicode="&#x419;" horiz-adv-x="750" 
d="M680 722v-722h-92v579h-6l-412 -579h-100v722h93v-575h6l412 575h99zM374 831c76 0 90 59 90 78h55c3 -88 -52 -147 -145 -147c-92 0 -147 59 -144 147h55c0 -19 12 -78 89 -78z" />
    <glyph glyph-name="afii10028" unicode="&#x41a;" horiz-adv-x="610" 
d="M70 0v722h99v-350h6l275 350h123l-298 -360l325 -362h-126l-299 339h-6v-339h-99z" />
    <glyph glyph-name="afii10029" unicode="&#x41b;" horiz-adv-x="690" 
d="M10 1v74c62 0 113 29 121 165l25 482h464v-722h-99v638h-269l-21 -405c-8 -171 -78 -239 -174 -239c-15 0 -34 2 -47 7z" />
    <glyph glyph-name="afii10030" unicode="&#x41c;" horiz-adv-x="910" 
d="M50 0l99 722h124l182 -566h6l177 566h123l99 -722h-102l-70 573h-7l-188 -586h-73l-192 586h-7l-69 -573h-102z" />
    <glyph glyph-name="afii10031" unicode="&#x41d;" horiz-adv-x="689" 
d="M70 722h100v-314h349v314h100v-722h-100v322h-349v-322h-100v722z" />
    <glyph glyph-name="afii10032" unicode="&#x41e;" horiz-adv-x="796" 
d="M756 362c0 -237 -167 -379 -360 -379s-356 151 -356 383c0 196 138 375 357 375s359 -174 359 -379zM652 363c0 179 -108 294 -256 294c-155 0 -252 -133 -252 -293c0 -170 97 -296 252 -296c167 0 256 135 256 295z" />
    <glyph glyph-name="afii10033" unicode="&#x41f;" horiz-adv-x="675" 
d="M70 722h535v-722h-99v636h-335v-636h-101v722z" />
    <glyph glyph-name="afii10034" unicode="&#x420;" horiz-adv-x="562" 
d="M70 0v722h188c148 0 274 -74 274 -221c0 -156 -135 -227 -284 -227h-78v-274h-100zM169 641v-283l79 1c67 0 179 24 179 142c0 112 -109 139 -167 139z" />
    <glyph glyph-name="afii10035" unicode="&#x421;" horiz-adv-x="700" 
d="M654 502h-103c-3 71 -57 147 -168 147c-152 0 -242 -125 -242 -291c0 -147 79 -282 242 -282c114 0 177 75 180 149h102c-16 -142 -137 -237 -283 -237c-248 0 -342 213 -342 369c0 176 105 375 342 375c145 0 261 -91 272 -230z" />
    <glyph glyph-name="afii10036" unicode="&#x422;" horiz-adv-x="565" 
d="M333 0h-99v637h-214v85h525v-85h-212v-637z" />
    <glyph glyph-name="afii10037" unicode="&#x423;" horiz-adv-x="584" 
d="M569 722l-248 -615c-35 -85 -85 -113 -157 -113c-24 0 -57 7 -74 15v80c15 -5 46 -9 65 -9c36 0 60 16 73 48l35 84c11 28 -9 52 -38 47l-210 463h114l171 -411h6l154 411h109z" />
    <glyph glyph-name="afii10038" unicode="&#x424;" horiz-adv-x="813" 
d="M456 -55h-99v121c-176 16 -322 123 -322 292c0 165 142 278 322 294v112h99v-111c200 -19 322 -143 322 -295s-125 -273 -322 -292v-121zM677 358c0 123 -90 195 -221 208v-412c137 15 221 88 221 204zM136 358c0 -118 90 -189 221 -205v413c-145 -15 -221 -95 -221 -208
z" />
    <glyph glyph-name="afii10039" unicode="&#x425;" horiz-adv-x="618" 
d="M29 722h122l156 -268h6l152 268h118l-214 -346l229 -376h-120l-167 290h-6l-164 -290h-121l227 374z" />
    <glyph glyph-name="afii10040" unicode="&#x426;" horiz-adv-x="726" 
d="M590 -139v139h-520v722h101v-636h320v636h99v-634h101l-4 -227h-97z" />
    <glyph glyph-name="afii10041" unicode="&#x427;" horiz-adv-x="605" 
d="M535 722v-722h-99v309h-163c-141 0 -233 76 -233 213v200h99v-197c0 -88 51 -131 140 -132l157 -2v331h99z" />
    <glyph glyph-name="afii10042" unicode="&#x428;" horiz-adv-x="937" 
d="M867 0h-797v722h101v-636h250v636h97v-636h250v636h99v-722z" />
    <glyph glyph-name="afii10043" unicode="&#x429;" horiz-adv-x="969" 
d="M833 -139v139h-763v722h101v-636h233v636h97v-636h233v636h99v-634h101l-4 -227h-97z" />
    <glyph glyph-name="afii10044" unicode="&#x42a;" horiz-adv-x="672" 
d="M180 634l-160 -2v90h259v-286h83c146 0 275 -66 275 -213c0 -152 -136 -223 -285 -223h-172v634zM279 354v-270l74 1c67 0 179 21 179 137c0 109 -109 131 -167 131z" />
    <glyph glyph-name="afii10045" unicode="&#x42b;" horiz-adv-x="770" 
d="M70 0v722h99v-286h60c141 0 267 -69 267 -213c0 -151 -132 -223 -277 -223h-149zM169 354v-270l51 1c67 0 172 23 172 137c0 109 -102 131 -160 131zM600 0v722h100v-722h-100z" />
    <glyph glyph-name="afii10046" unicode="&#x42c;" horiz-adv-x="557" 
d="M70 0v722h99v-286h78c146 0 275 -66 275 -213c0 -152 -136 -223 -285 -223h-167zM169 354v-270l69 1c67 0 179 21 179 137c0 109 -109 131 -167 131z" />
    <glyph glyph-name="afii10047" unicode="&#x42d;" horiz-adv-x="670" 
d="M143 502h-99c13 140 120 229 268 229c221 0 318 -199 318 -374c0 -159 -86 -369 -318 -369c-146 0 -261 92 -277 234h100c5 -75 64 -147 176 -147c142 0 209 117 217 252l-275 -1v84l274 -1c-13 140 -88 241 -217 241c-113 0 -162 -76 -167 -148z" />
    <glyph glyph-name="afii10048" unicode="&#x42e;" horiz-adv-x="965" 
d="M925 362c0 -238 -146 -378 -318 -378c-165 0 -298 133 -311 345h-117l1 -329h-100v722h100l-1 -307h118c19 175 130 324 311 324c196 0 317 -172 317 -377zM822 363c0 179 -82 292 -215 292c-139 0 -210 -131 -210 -291c0 -171 73 -295 210 -295c150 0 215 135 215 294z
" />
    <glyph glyph-name="afii10049" unicode="&#x42f;" horiz-adv-x="598" 
d="M528 722v-722h-99v311h-46l-252 -311h-126l276 323c-103 18 -192 84 -192 193c0 136 130 206 269 206h170zM431 396v242l-74 -1c-75 0 -164 -31 -164 -122c0 -85 86 -118 163 -118z" />
    <glyph glyph-name="afii10065" unicode="&#x430;" horiz-adv-x="523" 
d="M467 0h-95l2 23c1 15 2 29 2 41h-5c-43 -45 -102 -77 -169 -77c-99 0 -157 69 -157 154c0 93 69 157 176 160c60 1 108 -9 152 -22v54c0 72 -39 112 -111 112s-109 -42 -106 -89h-101c19 88 89 160 207 160c113 0 199 -58 199 -183v-250c0 -23 -1 -56 6 -83zM371 133v89
c-39 8 -86 15 -131 14c-65 -1 -103 -38 -103 -91c0 -55 33 -86 97 -86c60 0 113 47 137 74z" />
    <glyph glyph-name="afii10066" unicode="&#x431;" horiz-adv-x="562" 
d="M109 343h6c24 62 80 159 194 159c135 0 213 -122 213 -255c0 -138 -84 -264 -232 -264c-202 0 -254 217 -249 382c5 160 68 335 236 335c67 0 116 -39 159 -39c18 0 26 10 24 31h48c11 -88 -9 -132 -60 -132c-59 0 -109 51 -178 51c-119 3 -164 -162 -161 -268zM424 241
c0 137 -60 184 -132 184c-76 0 -138 -69 -138 -185c0 -112 60 -184 135 -184c91 0 135 80 135 185z" />
    <glyph glyph-name="afii10067" unicode="&#x432;" horiz-adv-x="485" 
d="M65 0v502h146c129 0 215 -48 215 -132c0 -64 -60 -95 -103 -106v-6c44 -5 117 -41 117 -115c0 -92 -82 -143 -221 -143h-154zM159 223v-152l65 1c79 1 122 28 122 76c0 45 -49 73 -122 74zM158 432v-140l57 1c40 0 119 10 119 69c0 54 -68 69 -120 69z" />
    <glyph glyph-name="afii10068" unicode="&#x433;" horiz-adv-x="401" 
d="M391 502v-80l-231 3v-425h-95v502h326z" />
    <glyph glyph-name="afii10069" unicode="&#x434;" horiz-adv-x="624" 
d="M117 0v-117h-88l-4 198h39c49 3 83 47 94 151l26 270h318v-421h92l-4 -198h-88v117h-385zM410 79v349h-142l-18 -202c-6 -64 -23 -113 -52 -147h212z" />
    <glyph glyph-name="afii10070" unicode="&#x435;" horiz-adv-x="533" 
d="M491 238h-358c0 -104 51 -180 147 -180c63 0 108 40 120 97h92c-11 -83 -86 -170 -217 -170c-141 0 -235 107 -235 270c0 140 88 260 229 260c183 0 235 -159 222 -277zM137 306l261 2c0 48 -25 139 -127 139c-68 0 -125 -49 -134 -141z" />
    <glyph glyph-name="afii10072" unicode="&#x436;" horiz-adv-x="718" 
d="M315 260l-1 242h90l-1 -242h6l165 242h108l-187 -252l213 -250h-112l-187 231h-6l1 -231h-90l1 231h-6l-187 -231h-112l213 251l-187 251h108l165 -242h6z" />
    <glyph glyph-name="afii10073" unicode="&#x437;" horiz-adv-x="483" 
d="M30 146h99c8 -51 51 -88 115 -88c68 0 105 32 105 77c0 50 -38 79 -115 86c-21 2 -42 3 -63 3v69c19 0 39 0 56 3c73 9 113 29 113 76c0 44 -37 72 -97 72c-56 0 -92 -25 -107 -73h-96c19 88 98 144 203 144c112 0 194 -50 194 -136c0 -49 -36 -90 -107 -114v-6
c76 -19 118 -66 118 -126c0 -91 -79 -148 -208 -148c-124 0 -199 76 -210 161z" />
    <glyph glyph-name="afii10074" unicode="&#x438;" horiz-adv-x="574" 
d="M397 502h112v-502h-90l1 384h-6l-239 -384h-110v502h90l-1 -383h6z" />
    <glyph glyph-name="afii10075" unicode="&#x439;" horiz-adv-x="574" 
d="M397 502h112v-502h-90l1 384h-6l-239 -384h-110v502h90l-1 -383h6zM286 634c81 0 90 69 90 88h55c3 -99 -52 -157 -145 -157c-92 0 -147 58 -144 157h55c0 -19 7 -88 89 -88z" />
    <glyph glyph-name="afii10076" unicode="&#x43a;" horiz-adv-x="500" 
d="M65 0v502h93v-238h6l208 238h120l-232 -248l240 -254h-119l-217 236h-6v-236h-93z" />
    <glyph glyph-name="afii10077" unicode="&#x43b;" horiz-adv-x="556" 
d="M15 1v71c50 0 86 30 91 136l14 294h371v-502h-94v426h-187l-10 -224c-5 -119 -43 -205 -142 -205c-12 0 -31 1 -43 4z" />
    <glyph glyph-name="afii10078" unicode="&#x43c;" horiz-adv-x="726" 
d="M139 502h113l111 -377h6l107 377h110l105 -502h-94l-69 384h-6l-121 -398h-75l-122 398h-6l-68 -384h-95z" />
    <glyph glyph-name="afii10079" unicode="&#x43d;" horiz-adv-x="564" 
d="M405 304v198h94v-502h-94v228h-246v-228h-94v502h94v-198h246z" />
    <glyph glyph-name="afii10080" unicode="&#x43e;" horiz-adv-x="578" 
d="M40 251c0 116 78 264 251 264c172 0 247 -152 247 -265c0 -133 -87 -267 -247 -267c-159 0 -251 127 -251 268zM138 251c0 -103 47 -197 152 -197c77 0 150 61 150 198c0 128 -69 192 -150 192c-65 0 -152 -42 -152 -193z" />
    <glyph glyph-name="afii10081" unicode="&#x43f;" horiz-adv-x="564" 
d="M499 502v-502h-94v425h-245v-425h-95v502h434z" />
    <glyph glyph-name="afii10082" unicode="&#x440;" horiz-adv-x="562" 
d="M160 0v-193h-94v621c0 21 -1 54 -2 74h88c1 -19 1 -56 1 -75h6c35 52 82 84 149 84c139 0 214 -123 214 -262c0 -145 -77 -262 -209 -262c-89 0 -134 59 -148 81h-6c0 -7 0 -14 1 -22v-46zM424 249c0 113 -45 189 -137 189c-70 0 -122 -73 -127 -125v-121
c3 -55 52 -133 131 -133c92 0 133 86 133 190z" />
    <glyph glyph-name="afii10083" unicode="&#x441;" horiz-adv-x="521" 
d="M486 341h-97c-3 37 -36 101 -111 101c-93 0 -139 -85 -139 -192c0 -103 49 -188 140 -188c70 0 109 55 117 106h95c-16 -97 -88 -181 -212 -181c-144 0 -239 113 -239 262c0 164 106 266 240 266c108 0 195 -75 206 -174z" />
    <glyph glyph-name="afii10084" unicode="&#x442;" horiz-adv-x="446" 
d="M431 502v-76l-161 1v-427h-94v427l-161 -1v76h416z" />
    <glyph glyph-name="afii10085" unicode="&#x443;" horiz-adv-x="510" 
d="M392 502h98c-165 -503 -179 -539 -203 -602c-31 -79 -81 -102 -142 -102c-21 0 -49 3 -66 10v80c15 -5 41 -9 54 -9c33 0 51 12 66 41c10 20 27 64 30 80c5 23 -9 35 -29 34l-180 468h104l140 -398h6z" />
    <glyph glyph-name="afii10086" unicode="&#x444;" horiz-adv-x="819" 
d="M671 249c0 111 -27 188 -107 188c-49 0 -89 -45 -108 -96v-179c17 -56 50 -102 110 -102c80 0 105 86 105 189zM148 249c0 -103 25 -189 105 -189c60 0 93 46 110 102v179c-19 51 -59 96 -108 96c-80 0 -107 -77 -107 -188zM363 -193v193c0 15 0 28 1 39v18h-6
c-14 -22 -44 -69 -125 -69c-123 0 -178 121 -178 261c0 133 60 261 184 261c51 0 93 -28 120 -69h6v20c-1 12 -1 26 -1 41v114h78l13 -114l-1 -61h6c27 41 70 69 121 69c124 0 183 -128 183 -261c0 -140 -55 -261 -178 -261c-81 0 -111 47 -125 69h-6c0 -5 0 -11 1 -18v-39
v-193h-93z" />
    <glyph glyph-name="afii10087" unicode="&#x445;" horiz-adv-x="505" 
d="M310 261l170 -261h-108l-117 194h-6l-115 -194h-109l168 256l-156 246h110l102 -181h6l107 181h107z" />
    <glyph glyph-name="afii10088" unicode="&#x446;" horiz-adv-x="610" 
d="M488 -117v117h-423v502h95v-423h235v423h93v-421h92l-4 -198h-88z" />
    <glyph glyph-name="afii10089" unicode="&#x447;" horiz-adv-x="535" 
d="M470 502v-502h-94l1 244h-6c-19 -27 -69 -82 -161 -82c-64 0 -165 38 -165 174v166h95v-164c0 -64 32 -99 88 -99c69 0 124 48 147 128v135h95z" />
    <glyph glyph-name="afii10090" unicode="&#x448;" horiz-adv-x="805" 
d="M448 502v-423h200v423h92v-502h-675v502h92v-423h201v423h90z" />
    <glyph glyph-name="afii10091" unicode="&#x449;" horiz-adv-x="822" 
d="M428 502v-424h180v424h92v-421h92l-4 -198h-88v117h-635v502h92v-424h181v424h90z" />
    <glyph glyph-name="afii10092" unicode="&#x44a;" horiz-adv-x="547" 
d="M235 303h68c101 0 214 -40 214 -146c0 -96 -80 -157 -217 -157h-159v425l-121 -3v80h215v-199zM235 232v-160l69 1c76 1 117 34 117 81s-43 76 -114 77z" />
    <glyph glyph-name="afii10093" unicode="&#x44b;" horiz-adv-x="642" 
d="M160 232v-160l38 1c72 1 111 34 111 81s-43 76 -108 77zM160 303h38c99 0 207 -41 207 -146c0 -95 -77 -157 -210 -157h-130v502h95v-199zM478 0v502h94v-502h-94z" />
    <glyph glyph-name="afii10094" unicode="&#x44c;" horiz-adv-x="481" 
d="M159 232v-160l79 1c76 1 117 34 117 81s-43 76 -114 77zM159 303h78c101 0 214 -40 214 -146c0 -96 -80 -157 -217 -157h-169v502h94v-199z" />
    <glyph glyph-name="afii10095" unicode="&#x44d;" horiz-adv-x="521" 
d="M132 343h-95c11 99 98 172 206 172c133 0 238 -102 238 -266c0 -149 -90 -263 -237 -263c-123 0 -198 83 -214 179h96c11 -51 47 -103 118 -103c84 0 133 70 141 160h-178v75l176 -2c-11 84 -58 147 -138 147c-76 0 -110 -63 -113 -99z" />
    <glyph glyph-name="afii10096" unicode="&#x44e;" horiz-adv-x="740" 
d="M472 515c165 0 228 -152 228 -265c0 -132 -73 -266 -228 -266c-143 0 -222 108 -230 239h-84l1 -223h-94v502h94l-1 -203h86c16 104 87 216 228 216zM337 251c0 -100 36 -195 133 -195c76 0 132 63 132 196c0 125 -56 192 -133 192c-63 0 -132 -46 -132 -193z" />
    <glyph glyph-name="afii10097" unicode="&#x44f;" horiz-adv-x="497" 
d="M339 280v152l-81 -1c-76 -1 -118 -31 -118 -76c0 -44 47 -73 118 -74zM126 0h-116l180 222c-63 8 -146 50 -146 133c0 88 81 147 218 147h170v-502h-93v209h-56z" />
    <glyph glyph-name="afii10071" unicode="&#x451;" horiz-adv-x="533" 
d="M491 238h-358c0 -104 51 -180 147 -180c63 0 108 40 120 97h92c-11 -83 -86 -170 -217 -170c-141 0 -235 107 -235 270c0 140 88 260 229 260c183 0 235 -159 222 -277zM137 306l261 2c0 48 -25 139 -127 139c-68 0 -125 -49 -134 -141zM111 645c0 37 27 62 62 62
s63 -25 63 -62s-28 -61 -63 -61s-62 24 -62 61zM296 645c0 37 27 62 62 62s63 -25 63 -62s-28 -61 -63 -61s-62 24 -62 61z" />
    <glyph glyph-name="afii10099" unicode="&#x452;" horiz-adv-x="591" 
d="M340 575h-147v-73v-29c0 -19 -1 -41 -1 -66h6c13 23 67 95 160 95c56 0 168 -29 168 -184v-351c0 -59 -18 -164 -129 -164c-12 0 -26 1 -38 4v71c48 0 71 15 71 86v356c0 69 -31 110 -88 110c-70 0 -126 -64 -147 -147v-283h-95v575h-80v69h80v78h93v-78h147v-69z" />
    <glyph glyph-name="afii10100" unicode="&#x453;" horiz-adv-x="401" 
d="M391 422v80h-326v-502h95v425zM330 742l41 -73l-195 -106l-35 58z" />
    <glyph glyph-name="afii10101" unicode="&#x454;" horiz-adv-x="521" 
d="M484 343h-95c-3 36 -37 99 -113 99c-80 0 -128 -63 -139 -147l176 2v-75h-177c8 -90 57 -160 141 -160c71 0 107 52 118 103h96c-16 -96 -91 -179 -214 -179c-146 0 -237 114 -237 263c0 164 105 266 238 266c108 0 195 -73 206 -172z" />
    <glyph glyph-name="afii10102" unicode="&#x455;" horiz-adv-x="463" 
d="M40 149h97c0 -41 28 -91 100 -91c56 0 94 29 94 74c0 43 -36 65 -108 84c-105 27 -179 70 -179 153c0 91 76 145 184 145c94 0 175 -54 180 -150h-95c-3 51 -41 81 -88 81c-41 0 -88 -18 -88 -69c0 -43 40 -64 115 -81c108 -25 176 -70 176 -154
c0 -96 -85 -154 -195 -154c-92 0 -188 49 -193 162z" />
    <glyph glyph-name="afii10103" unicode="&#x456;" horiz-adv-x="229" 
d="M67 0v502h94v-502h-94zM53 661c0 36 26 61 61 61s62 -25 62 -61s-27 -60 -62 -60s-61 24 -61 60z" />
    <glyph glyph-name="afii10104" unicode="&#x457;" horiz-adv-x="228" 
d="M67 0v502h94v-502h-94zM-41 645c0 37 27 62 62 62s63 -25 63 -62s-28 -61 -63 -61s-62 24 -62 61zM144 645c0 37 27 62 62 62s63 -25 63 -62s-28 -61 -63 -61s-62 24 -62 61z" />
    <glyph glyph-name="afii10105" unicode="&#x458;" horiz-adv-x="233" 
d="M0 -193v71c48 0 72 15 72 86v538h94v-535c0 -59 -17 -164 -128 -164c-12 0 -26 1 -38 4zM57 661c0 36 26 61 61 61s62 -25 62 -61s-27 -60 -62 -60s-61 24 -61 60z" />
    <glyph glyph-name="afii10106" unicode="&#x459;" horiz-adv-x="665" 
d="M15 1v71c51 0 85 31 90 136l14 294h271v-199h38c99 0 207 -41 207 -146c0 -95 -77 -157 -210 -157h-129v428h-88l-10 -226c-5 -119 -45 -205 -144 -205c-12 0 -27 1 -39 4zM390 232v-160l38 1c72 1 111 34 111 81s-43 76 -108 77z" />
    <glyph glyph-name="afii10107" unicode="&#x45a;" horiz-adv-x="648" 
d="M373 303h38c99 0 207 -41 207 -146c0 -95 -77 -157 -210 -157h-130v230h-120v-230h-93v502h93v-198h120v198h95v-199zM373 232v-160l38 1c72 1 111 34 111 81s-43 76 -108 77z" />
    <glyph glyph-name="afii10108" unicode="&#x45b;" horiz-adv-x="591" 
d="M340 575h-147v-73v-29c0 -19 -1 -42 -1 -66h6c13 23 67 95 160 95c56 0 168 -29 168 -184v-318h-96v320c0 69 -31 110 -88 110c-70 0 -126 -64 -147 -147v-283h-95v575h-80v69h80v78h93v-78h147v-69z" />
    <glyph glyph-name="afii10109" unicode="&#x45c;" horiz-adv-x="500" 
d="M65 0v502h93v-238h6l208 238h120l-232 -248l240 -254h-119l-217 236h-6v-236h-93zM383 742l41 -73l-195 -106l-35 58z" />
    <glyph glyph-name="afii10110" unicode="&#x45e;" horiz-adv-x="510" 
d="M392 502h98c-165 -503 -179 -539 -203 -602c-31 -79 -81 -102 -142 -102c-21 0 -49 3 -66 10v80c15 -5 41 -9 54 -9c33 0 51 12 66 41c10 20 27 64 30 80c5 23 -9 35 -29 34l-180 468h104l140 -398h6zM254 634c81 0 90 69 90 88h55c3 -99 -52 -157 -145 -157
c-92 0 -147 58 -144 157h55c0 -19 7 -88 89 -88z" />
    <glyph glyph-name="afii10193" unicode="&#x45f;" horiz-adv-x="564" 
d="M237 -117l-1 117h-171v502h94v-423h247v423h93v-502h-171l-1 -117h-90z" />
    <glyph glyph-name="afii10050" unicode="&#x490;" horiz-adv-x="475" 
d="M70 0v722h286v132h95l4 -222l-285 1v-633h-100z" />
    <glyph glyph-name="afii10098" unicode="&#x491;" horiz-adv-x="401" 
d="M285 502v113h87l4 -193l-216 3v-425h-95v502h220z" />
    <glyph glyph-name="Wgrave" unicode="&#x1e80;" horiz-adv-x="960" 
d="M30 722h109l120 -585h6l157 585h121l156 -585h6l124 585h101l-170 -722h-119l-157 599h-6l-162 -599h-118zM315 853l34 75l196 -102l-30 -59z" />
    <glyph glyph-name="wgrave" unicode="&#x1e81;" horiz-adv-x="826" 
d="M707 502h99l-164 -502h-111l-119 415h-6l-125 -415h-108l-153 502h97l106 -400h6l122 400h122l111 -400h6zM248 669l41 73l189 -121l-35 -58z" />
    <glyph glyph-name="Wacute" unicode="&#x1e82;" horiz-adv-x="960" 
d="M30 722h109l120 -585h6l157 585h121l156 -585h6l124 585h101l-170 -722h-119l-157 599h-6l-162 -599h-118zM622 928l34 -75l-200 -86l-30 59z" />
    <glyph glyph-name="wacute" unicode="&#x1e83;" horiz-adv-x="826" 
d="M806 502h-99l-117 -400h-6l-111 400h-122l-122 -400h-6l-106 400h-97l153 -502h108l125 415h6l119 -415h111zM547 742l41 -73l-195 -106l-35 58z" />
    <glyph glyph-name="Wdieresis" unicode="&#x1e84;" horiz-adv-x="960" 
d="M30 722h109l120 -585h6l157 585h121l156 -585h6l124 585h101l-170 -722h-119l-157 599h-6l-162 -599h-118zM324 837c0 36 26 61 61 61s62 -25 62 -61s-27 -60 -62 -60s-61 24 -61 60zM515 837c0 36 26 61 61 61s62 -25 62 -61s-27 -60 -62 -60s-61 24 -61 60z" />
    <glyph glyph-name="wdieresis" unicode="&#x1e85;" horiz-adv-x="826" 
d="M806 502h-99l-117 -400h-6l-111 400h-122l-122 -400h-6l-106 400h-97l153 -502h108l125 415h6l119 -415h111zM254 645c0 37 27 62 62 62s63 -25 63 -62s-28 -61 -63 -61s-62 24 -62 61zM439 645c0 37 27 62 62 62s63 -25 63 -62s-28 -61 -63 -61s-62 24 -62 61z" />
    <glyph glyph-name="Ygrave" unicode="&#x1ef2;" horiz-adv-x="587" 
d="M347 266v-266h-101v266c0 10 -5 16 -14 18l-217 438h118l163 -366h6l160 366h110l-212 -438c-9 -3 -13 -9 -13 -18zM138 853l34 75l196 -102l-30 -59z" />
    <glyph glyph-name="ygrave" unicode="&#x1ef3;" horiz-adv-x="510" 
d="M392 502h98c-165 -503 -179 -539 -203 -602c-31 -79 -81 -102 -142 -102c-21 0 -49 3 -66 10v80c15 -5 41 -9 54 -9c33 0 51 12 66 41c10 20 27 64 30 80c5 23 -9 35 -29 34l-180 468h104l140 -398h6zM103 669l41 73l189 -121l-35 -58z" />
    <glyph glyph-name="endash" unicode="&#x2013;" horiz-adv-x="500" 
d="M0 222v81h500v-81h-500z" />
    <glyph glyph-name="emdash" unicode="&#x2014;" horiz-adv-x="1000" 
d="M30 222v81h940v-81h-940z" />
    <glyph glyph-name="quoteleft" unicode="&#x2018;" horiz-adv-x="275" 
d="M75 590c11 43 40 92 79 132h71c-44 -35 -69 -63 -88 -96c-4 -7 -1 -14 8 -14c39 0 68 -28 68 -68c0 -39 -32 -67 -71 -67c-37 0 -68 24 -71 67c-1 17 0 32 4 46z" />
    <glyph glyph-name="quoteright" unicode="&#x2019;" horiz-adv-x="275" 
d="M200 609c-11 -43 -40 -92 -79 -132h-71c44 35 69 63 88 96c4 7 1 14 -8 14c-39 0 -68 28 -68 68c0 39 32 67 71 67c37 0 68 -24 71 -67c1 -17 0 -32 -4 -46z" />
    <glyph glyph-name="quotesinglbase" unicode="&#x201a;" horiz-adv-x="275" 
d="M200 36c-11 -43 -40 -92 -79 -132h-71c44 35 69 63 88 96c4 7 1 14 -8 14c-39 0 -68 28 -68 68c0 39 32 67 71 67c37 0 68 -24 71 -67c1 -17 0 -32 -4 -46z" />
    <glyph glyph-name="quotedblleft" unicode="&#x201c;" horiz-adv-x="460" 
d="M260 590c11 43 40 92 79 132h71c-44 -35 -69 -63 -88 -96c-4 -7 -1 -14 8 -14c39 0 68 -28 68 -68c0 -39 -32 -67 -71 -67c-37 0 -68 24 -71 67c-1 17 0 32 4 46zM75 590c11 43 51 96 91 132h72c-44 -33 -79 -64 -98 -96c-4 -7 -1 -14 8 -14c35 0 65 -28 65 -68
c0 -39 -32 -67 -71 -67c-37 0 -68 24 -71 67c-1 15 0 31 4 46z" />
    <glyph glyph-name="quotedblright" unicode="&#x201d;" horiz-adv-x="460" 
d="M200 609c-11 -43 -40 -92 -79 -132h-71c44 35 69 63 88 96c4 7 1 14 -8 14c-39 0 -68 28 -68 68c0 39 32 67 71 67c37 0 68 -24 71 -67c1 -17 0 -32 -4 -46zM385 609c-11 -43 -51 -96 -91 -132h-72c44 33 79 64 98 96c4 7 1 14 -8 14c-35 0 -65 28 -65 68
c0 39 32 67 71 67c37 0 68 -24 71 -67c1 -15 0 -31 -4 -46z" />
    <glyph glyph-name="quotedblbase" unicode="&#x201e;" horiz-adv-x="460" 
d="M200 36c-11 -43 -40 -92 -79 -132h-71c44 35 69 63 88 96c4 7 1 14 -8 14c-39 0 -68 28 -68 68c0 39 32 67 71 67c37 0 68 -24 71 -67c1 -17 0 -32 -4 -46zM385 36c-11 -43 -51 -96 -91 -132h-72c44 33 79 64 98 96c4 7 1 14 -8 14c-35 0 -65 28 -65 68c0 39 32 67 71 67
c37 0 68 -24 71 -67c1 -15 0 -31 -4 -46z" />
    <glyph glyph-name="dagger" unicode="&#x2020;" horiz-adv-x="545" 
d="M480 553v-74l-168 2v-481h-79v481l-168 -2v74l168 -2v171h79v-171z" />
    <glyph glyph-name="daggerdbl" unicode="&#x2021;" horiz-adv-x="545" 
d="M480 243v-74l-168 2v-171h-79v171l-168 -2v74l168 -2v240l-168 -2v74l168 -2v171h79v-171l168 2v-74l-168 2v-240z" />
    <glyph glyph-name="bullet" unicode="&#x2022;" horiz-adv-x="471" 
d="M236 537c96 0 175 -80 175 -176s-78 -175 -175 -175c-96 0 -176 79 -176 175c0 99 80 176 176 176z" />
    <glyph glyph-name="ellipsis" unicode="&#x2026;" horiz-adv-x="1000" 
d="M100 71c0 41 33 72 72 72s72 -31 72 -72s-33 -71 -72 -71s-72 30 -72 71zM428 71c0 41 33 72 72 72s72 -31 72 -72s-33 -71 -72 -71s-72 30 -72 71zM756 71c0 41 33 72 72 72s72 -31 72 -72s-33 -71 -72 -71s-72 30 -72 71z" />
    <glyph glyph-name="perthousand" unicode="&#x2030;" horiz-adv-x="1000" 
d="M197 692c87 0 135 -75 135 -163c0 -94 -52 -162 -135 -162s-136 68 -136 162c0 88 49 163 136 163zM197 421c59 0 65 66 65 107c0 39 -8 112 -65 112c-56 0 -66 -73 -66 -112c0 -41 7 -107 66 -107zM150 -33h-68l461 755h69zM506 325c87 0 132 -75 132 -163
c0 -93 -49 -162 -132 -162s-135 68 -135 162c0 88 48 163 135 163zM506 54c59 0 65 66 65 107c0 39 -8 112 -65 112c-56 0 -66 -73 -66 -112c0 -41 7 -107 66 -107zM804 325c88 0 135 -75 135 -163c0 -94 -52 -162 -135 -162s-132 69 -132 162c0 88 45 163 132 163zM804 54
c59 0 66 66 66 107c0 39 -10 112 -66 112c-57 0 -65 -73 -65 -112c0 -41 7 -107 65 -107z" />
    <glyph glyph-name="guilsinglleft" unicode="&#x2039;" 
d="M285 53h-92l-138 200l138 198h91l-129 -198z" />
    <glyph glyph-name="guilsinglright" unicode="&#x203a;" 
d="M142 53h-92l130 200l-129 198h91l138 -198z" />
    <glyph glyph-name="interrobang" unicode="&#x203d;" horiz-adv-x="500" 
d="M132 519h-88c-8 155 107 212 207 212c113 0 204 -72 204 -189c0 -81 -44 -137 -113 -193c-48 -39 -63 -82 -60 -133l1 -18h-70l-14 448c-41 -16 -72 -55 -67 -127zM171 71c0 41 33 72 72 72s72 -31 72 -72s-33 -71 -72 -71s-72 30 -72 71zM363 537c0 56 -29 94 -68 109
l-9 -244h3c49 45 74 90 74 135z" />
    <glyph glyph-name="asterism" unicode="&#x2042;" horiz-adv-x="1000" 
d="M465 722h67l-17 -157l126 93l36 -59l-144 -61l142 -66l-33 -61l-127 96l13 -151h-66l20 154l-128 -93l-32 60l141 61l-142 63l33 60l128 -95zM212 366h67l-17 -157l126 93l36 -59l-144 -61l142 -66l-33 -61l-127 96l13 -151h-66l20 154l-128 -93l-32 60l141 61l-142 63
l33 60l128 -95zM721 366h67l-17 -157l126 93l36 -59l-144 -61l142 -66l-33 -61l-127 96l13 -151h-66l20 154l-128 -93l-32 60l141 61l-142 63l33 60l128 -95z" />
    <glyph glyph-name="fraction" unicode="&#x2044;" horiz-adv-x="217" 
d="M-130 0l416 722h61l-416 -722h-61z" />
    <glyph glyph-name="zero.sups" unicode="&#x2070;" 
d="M22 660c0 65 19 222 146 222c116 0 146 -131 146 -212c0 -93 -33 -222 -147 -222c-106 0 -145 120 -145 212zM85 663c0 -92 27 -165 82 -165c64 0 84 91 84 166c0 100 -31 170 -82 170c-69 0 -84 -95 -84 -171z" />
    <glyph glyph-name="four.sups" unicode="&#x2074;" 
d="M202 457v97h-190v65l51 73l119 183h83v-274h54v-48h-54v-96h-63zM63 601h142v216h-4l-94 -147l-44 -66v-3z" />
    <glyph glyph-name="five.sups" unicode="&#x2075;" 
d="M30 574h64c-3 -45 26 -75 66 -75c56 0 78 52 78 100c0 59 -26 98 -71 98c-37 0 -58 -19 -71 -50h-51l1 225h239v-47h-185l-2 -58c-1 -32 -3 -59 -3 -59h4c13 15 36 37 81 37c86 0 120 -71 120 -143c0 -85 -49 -154 -142 -154c-75 0 -127 54 -128 126z" />
    <glyph glyph-name="six.sups" unicode="&#x2076;" 
d="M302 773h-61c1 33 -14 60 -53 60c-53 0 -101 -57 -101 -165h4c13 19 45 54 100 54c63 0 121 -47 121 -135c0 -83 -55 -140 -135 -140c-97 0 -148 95 -148 200c0 91 41 233 161 233c90 0 117 -63 112 -107zM180 496c40 0 72 33 72 86c0 55 -27 91 -71 92
c-45 0 -82 -35 -82 -71c0 -54 26 -107 81 -107z" />
    <glyph glyph-name="seven.sups" unicode="&#x2077;" 
d="M26 822v50h279v-58c-39 -76 -81 -164 -116 -235l-58 -122h-69l64 125l61 119l62 117v4h-223z" />
    <glyph glyph-name="eight.sups" unicode="&#x2078;" 
d="M168 694c45 0 74 32 74 72c0 39 -27 69 -74 69s-74 -30 -74 -69c0 -40 29 -72 74 -72zM168 498c52 0 79 33 79 69c0 47 -32 76 -79 76s-79 -29 -79 -76c0 -36 27 -69 79 -69zM168 881c92 0 134 -63 134 -111c0 -41 -20 -79 -67 -98v-4c32 -11 74 -45 74 -101
c0 -57 -48 -118 -141 -118s-141 61 -141 118c0 56 42 90 74 101v4c-47 19 -67 57 -67 98c0 48 42 111 134 111z" />
    <glyph glyph-name="nine.sups" unicode="&#x2079;" 
d="M33 554h62c-1 -33 12 -60 52 -60c52 0 101 57 101 165h-4c-13 -19 -45 -54 -100 -54c-63 0 -121 47 -121 135c0 84 55 140 135 140c97 0 148 -95 148 -200c0 -91 -38 -233 -160 -233c-89 0 -116 63 -113 107zM154 833c-40 0 -72 -33 -72 -86c0 -55 27 -91 71 -92
c45 0 82 35 82 71c0 54 -26 107 -81 107z" />
    <glyph glyph-name="zero.sinf" unicode="&#x2080;" 
d="M22 10c0 65 19 222 146 222c116 0 146 -131 146 -212c0 -93 -33 -222 -147 -222c-106 0 -145 120 -145 212zM85 13c0 -92 27 -165 82 -165c64 0 84 91 84 166c0 100 -31 170 -82 170c-69 0 -84 -95 -84 -171z" />
    <glyph glyph-name="one.sinf" unicode="&#x2081;" 
d="M176 -193v355h-4c-18 -32 -92 -143 -132 -186v87c33 33 93 121 116 160h82v-416h-62z" />
    <glyph glyph-name="two.sinf" unicode="&#x2082;" 
d="M297 -193h-267c-1 5 -1 10 -1 15c0 9 0 19 1 28c8 77 47 114 99 141c21 11 44 25 67 40c25 19 43 41 43 80c0 36 -26 69 -71 69c-60 0 -76 -50 -71 -89h-61c-8 77 43 139 133 139c83 0 134 -54 134 -121c0 -55 -28 -93 -76 -125c-23 -16 -47 -28 -70 -39
c-31 -16 -73 -39 -70 -89h210v-49z" />
    <glyph glyph-name="three.sinf" unicode="&#x2083;" 
d="M21 -73h66c0 -47 28 -76 75 -76c43 0 70 27 70 66c0 59 -49 75 -97 78l-26 1v50l27 2c48 3 95 20 95 72c0 44 -32 63 -67 63s-68 -18 -69 -62h-63c5 90 89 112 131 112c88 0 133 -55 133 -111c0 -35 -17 -77 -80 -97v-3c61 -19 82 -65 82 -104c0 -62 -48 -118 -136 -118
c-79 0 -134 50 -141 127z" />
    <glyph glyph-name="four.sinf" unicode="&#x2084;" 
d="M202 -193v97h-190v65l51 73l119 183h83v-274h54v-48h-54v-96h-63zM63 -49h142v216h-4l-94 -147l-44 -66v-3z" />
    <glyph glyph-name="five.sinf" unicode="&#x2085;" 
d="M29 -76h64c-3 -45 26 -75 66 -75c56 0 78 52 78 100c0 59 -26 98 -71 98c-37 0 -58 -19 -71 -50h-51l1 225h239v-47h-185l-2 -58c-1 -32 -3 -59 -3 -59h4c13 15 36 37 81 37c86 0 120 -71 120 -143c0 -85 -49 -154 -142 -154c-75 0 -127 54 -128 126z" />
    <glyph glyph-name="six.sinf" unicode="&#x2086;" 
d="M302 124h-61c1 33 -14 60 -53 60c-53 0 -101 -57 -101 -165h4c13 19 45 54 100 54c63 0 121 -47 121 -135c0 -83 -55 -140 -135 -140c-97 0 -148 95 -148 200c0 91 41 233 161 233c90 0 117 -63 112 -107zM180 -153c40 0 72 33 72 86c0 55 -27 91 -71 92
c-45 0 -82 -35 -82 -71c0 -54 26 -107 81 -107z" />
    <glyph glyph-name="seven.sinf" unicode="&#x2087;" 
d="M26 171v50h279v-58c-39 -76 -81 -164 -116 -236l-58 -121h-69l64 125l61 119l62 117v4h-223z" />
    <glyph glyph-name="eight.sinf" unicode="&#x2088;" 
d="M168 43c45 0 74 32 74 72c0 39 -27 69 -74 69s-74 -30 -74 -69c0 -40 29 -72 74 -72zM168 -153c52 0 79 33 79 69c0 47 -32 76 -79 76s-79 -29 -79 -76c0 -36 27 -69 79 -69zM168 230c92 0 134 -63 134 -111c0 -41 -20 -79 -67 -98v-4c32 -11 74 -45 74 -101
c0 -57 -48 -118 -141 -118s-141 61 -141 118c0 56 42 90 74 101v4c-47 19 -67 57 -67 98c0 48 42 111 134 111z" />
    <glyph glyph-name="nine.sinf" unicode="&#x2089;" 
d="M33 -96h62c-1 -33 12 -60 52 -60c52 0 101 57 101 165h-4c-13 -19 -45 -54 -100 -54c-63 0 -121 47 -121 135c0 84 55 140 135 140c97 0 148 -95 148 -200c0 -91 -38 -233 -160 -233c-89 0 -116 63 -113 107zM154 183c-40 0 -72 -33 -72 -86c0 -55 27 -91 71 -92
c45 0 82 35 82 71c0 54 -26 107 -81 107z" />
    <glyph glyph-name="Euro" unicode="&#x20ac;" horiz-adv-x="550" 
d="M184 438h204v-62h-210v-8c-1 -5 -1 -13 -1 -21s0 -15 1 -22v-7h178v-62h-171c13 -97 52 -190 149 -190c35 0 110 10 113 125h93c-5 -131 -96 -203 -208 -203c-149 0 -222 130 -243 268h-69v62h63v9c-1 7 -1 13 -1 21c0 6 0 13 1 20v8h-63v62h69c21 139 95 269 246 269
c111 0 199 -73 204 -205h-92c-3 118 -78 130 -114 130c-100 0 -136 -99 -149 -194z" />
    <glyph glyph-name="afii61352" unicode="&#x2116;" horiz-adv-x="1024" 
d="M60 0v722h111l280 -554h6v554h89v-722h-109l-281 558h-6v-558h-90zM984 375c0 -116 -76 -209 -187 -209c-110 0 -186 95 -186 208c0 116 82 207 185 207c109 0 188 -89 188 -206zM704 377c0 -88 32 -136 93 -136s92 45 92 135c0 89 -36 134 -93 134
c-60 0 -92 -52 -92 -133zM952 0h-309v84c15 -1 32 -1 49 -1c31 -1 66 -2 105 -2c40 0 78 1 107 2c17 0 33 0 48 1v-84z" />
    <glyph glyph-name="trademark" unicode="&#x2122;" horiz-adv-x="800" 
d="M187 361h-57v307h-105v54h266v-54h-104v-307zM516 441l-92 281h-82l-33 -361h57l23 287h6l101 -298h46l102 298h6l23 -287h57l-33 361h-82l-93 -281h-6z" />
    <glyph glyph-name="uni2126" unicode="&#x2126;" horiz-adv-x="645" 
d="M323 647c-136 0 -218 -96 -218 -232c0 -108 61 -196 172 -223v-192h-256v80h180v65c-121 48 -179 150 -179 273c0 172 123 305 301 305s300 -133 300 -305c0 -123 -57 -225 -178 -273v-65h180v-80h-256v192c111 27 172 115 172 223c0 136 -82 232 -218 232z" />
    <glyph glyph-name="arrowleft" unicode="&#x2190;" horiz-adv-x="1000" 
d="M347 -1l-307 264l310 264l52 -65c-36 -29 -69 -54 -98 -77l-69 -55c-17 -13 -31 -23 -32 -23v-4h761v-80h-761v-4c3 0 51 -39 100 -77l96 -78z" />
    <glyph glyph-name="arrowup" unicode="&#x2191;" horiz-adv-x="600" 
d="M300 731l264 -307l-65 -52l-77 96l-55 69c-13 17 -23 30 -23 31h-4v-761h-80v761h-4c0 -3 -39 -52 -77 -101l-78 -98l-65 52z" />
    <glyph glyph-name="arrowright" unicode="&#x2192;" horiz-adv-x="1000" 
d="M964 263l-307 -264l-52 65l96 78l69 54c17 13 30 23 31 23v4h-761v80h761v4c-2 0 -53 38 -101 78c-29 23 -62 48 -98 77l52 65z" />
    <glyph glyph-name="arrowdown" unicode="&#x2193;" horiz-adv-x="600" 
d="M564 104l-264 -307l-264 310l65 52l78 -98l54 -69c13 -17 23 -31 23 -32h4v761h80v-761h4c0 3 38 52 78 100l77 96z" />
    <glyph glyph-name="partialdiff" unicode="&#x2202;" horiz-adv-x="575" 
d="M509 363c0 -162 -49 -375 -249 -375c-131 0 -211 108 -211 232c0 132 94 234 210 234c68 0 119 -33 158 -76h6c8 104 -33 270 -176 270c-47 0 -92 -26 -123 -59l-53 66c47 43 110 68 178 68c197 0 260 -192 260 -360zM415 291c-35 44 -87 86 -144 86
c-93 0 -136 -79 -136 -157c0 -77 46 -154 129 -154c109 0 151 130 151 225z" />
    <glyph glyph-name="uni2206" unicode="&#x2206;" horiz-adv-x="645" 
d="M635 0h-625l259 692h106zM319 612l-194 -532h394l-194 532h-6z" />
    <glyph glyph-name="product" unicode="&#x220f;" horiz-adv-x="645" 
d="M594 -193h-87v836h-369v-836h-87v915h543v-915z" />
    <glyph glyph-name="summation" unicode="&#x2211;" horiz-adv-x="645" 
d="M600 -193h-552v77l321 406l-308 356v76h532v-83l-410 1v-6l294 -344l-315 -394v-6l438 1v-84z" />
    <glyph glyph-name="minus" unicode="&#x2212;" horiz-adv-x="570" 
d="M540 212h-510v78h510v-78z" />
    <glyph glyph-name="radical" unicode="&#x221a;" horiz-adv-x="575" 
d="M555 722l-201 -915h-97l-146 307l-52 -26l-34 68l124 63l145 -316h6l173 819h82z" />
    <glyph glyph-name="infinity" unicode="&#x221e;" horiz-adv-x="730" 
d="M695 268c0 -93 -57 -164 -152 -164c-72 0 -126 49 -177 105c-54 -54 -101 -104 -176 -104c-96 0 -155 65 -155 160c0 93 58 163 152 163c74 0 128 -51 179 -110c48 56 105 111 176 111c94 0 153 -68 153 -161zM618 266c0 51 -26 87 -77 87c-52 0 -89 -53 -123 -90
c37 -40 67 -83 125 -83c49 0 75 38 75 86zM314 265c-34 37 -76 87 -127 87c-48 0 -74 -39 -74 -86c0 -51 27 -85 78 -85c53 0 90 48 123 84z" />
    <glyph glyph-name="integral" unicode="&#x222b;" horiz-adv-x="545" 
d="M245 -24c-8 161 -18 416 -21 565c-3 102 63 157 150 157c20 0 40 -2 61 -6v-71c-9 1 -38 3 -51 3c-61 0 -81 -37 -78 -86c4 -109 20 -438 24 -568c3 -102 -69 -153 -156 -153c-19 0 -39 1 -60 6v71c9 -1 39 -3 52 -3c60 0 82 34 79 85z" />
    <glyph glyph-name="therefore" unicode="&#x2234;" horiz-adv-x="1000" 
d="M100 72c0 41 33 71 72 71s72 -30 72 -71s-33 -72 -72 -72s-72 31 -72 72zM428 651c0 41 33 71 72 71s72 -30 72 -71s-33 -72 -72 -72s-72 31 -72 72zM756 72c0 41 33 71 72 71s72 -30 72 -71s-33 -72 -72 -72s-72 31 -72 72z" />
    <glyph glyph-name="because" unicode="&#x2235;" horiz-adv-x="1000" 
d="M100 650c0 41 33 72 72 72s72 -31 72 -72s-33 -71 -72 -71s-72 30 -72 71zM428 71c0 41 33 72 72 72s72 -31 72 -72s-33 -71 -72 -71s-72 30 -72 71zM756 650c0 41 33 72 72 72s72 -31 72 -72s-33 -71 -72 -71s-72 30 -72 71z" />
    <glyph glyph-name="approxequal" unicode="&#x2248;" horiz-adv-x="570" 
d="M80 288h-62c8 71 37 153 138 153c33 0 65 -6 140 -36c68 -27 98 -38 122 -38c31 0 61 12 72 69h62c-8 -71 -36 -156 -138 -156c-33 0 -71 6 -146 39c-63 27 -92 37 -116 37c-29 0 -61 -11 -72 -68zM80 79h-62c8 71 37 153 138 153c33 0 65 -6 140 -36
c68 -27 98 -38 122 -38c31 0 61 12 72 69h62c-8 -71 -36 -156 -138 -156c-33 0 -71 6 -146 39c-63 27 -92 37 -116 37c-29 0 -61 -11 -72 -68z" />
    <glyph glyph-name="notequal" unicode="&#x2260;" horiz-adv-x="570" 
d="M30 315v77h286l62 110h86l-62 -110h138v-77h-181l-70 -125h251v-77h-295l-63 -113h-85l63 113h-130v77h173l70 125h-243z" />
    <glyph glyph-name="lessequal" unicode="&#x2264;" horiz-adv-x="570" 
d="M540 121l-510 175v89l510 180v-86c-76 -25 -144 -48 -204 -67l-145 -47c-36 -12 -62 -20 -63 -20v-6c3 0 104 -32 208 -64l204 -64v-90zM540 0h-510v78h510v-78z" />
    <glyph glyph-name="greaterequal" unicode="&#x2265;" horiz-adv-x="570" 
d="M540 296l-510 -175v90l205 64l144 45c36 11 62 19 63 19v6c-2 0 -106 32 -207 67c-61 19 -129 42 -205 67v86l510 -180v-89zM540 0h-510v78h510v-78z" />
    <glyph glyph-name="lozenge" unicode="&#x25ca;" horiz-adv-x="575" 
d="M523 358l-193 -358h-85l-193 358l193 364h85zM431 358l-141 280h-6l-140 -280l140 -274h6z" />
    <glyph glyph-name="commaaccent" unicode="&#xf6c3;" horiz-adv-x="280" 
d="M149 -246h-58c27 23 45 45 54 64c3 7 0 12 -7 12c-31 0 -57 23 -57 56c0 32 26 56 58 56s58 -21 59 -56c3 -43 -21 -93 -49 -132z" />
    <glyph glyph-name="Adieresis.ss01" horiz-adv-x="635" 
d="M453 183h-274l-58 -183h-101l238 722h110l247 -722h-101zM204 264h222l-110 344h-6zM168 784v106h98v-106h-98zM360 784v106h98v-106h-98z" />
    <glyph glyph-name="Cdotaccent.ss01" horiz-adv-x="700" 
d="M654 502h-103c-3 71 -57 147 -168 147c-152 0 -242 -125 -242 -291c0 -147 79 -282 242 -282c114 0 177 75 180 149h102c-16 -142 -137 -237 -283 -237c-248 0 -342 213 -342 369c0 176 107 375 342 375c145 0 261 -91 272 -230zM315 784v107h110v-107h-110z" />
    <glyph glyph-name="Edieresis.ss01" horiz-adv-x="538" 
d="M70 0v722h417v-85h-318v-225h304v-84h-303v-240h328v-88h-428zM124 784v106h98v-106h-98zM316 784v106h98v-106h-98z" />
    <glyph glyph-name="Edotaccent.ss01" horiz-adv-x="538" 
d="M70 0v722h417v-85h-318v-225h304v-84h-303v-240h328v-88h-428zM234 784v107h110v-107h-110z" />
    <glyph glyph-name="G.ss01" horiz-adv-x="738" 
d="M385 733c149 0 270 -96 278 -231h-107c-3 84 -67 153 -170 153c-160 0 -243 -130 -243 -294c0 -176 66 -296 228 -296c119 0 214 87 214 204l-279 -27v98h372v-340h-72l-8 115h-8c-48 -79 -126 -131 -234 -131c-216 0 -316 178 -316 375c0 200 123 374 345 374z" />
    <glyph glyph-name="Gbreve.ss01" horiz-adv-x="738" 
d="M385 733c149 0 270 -96 278 -231h-107c-3 84 -67 153 -170 153c-160 0 -243 -130 -243 -294c0 -176 66 -296 228 -296c119 0 214 87 214 204l-279 -27v98h372v-340h-72l-8 115h-8c-48 -79 -126 -131 -234 -131c-216 0 -316 178 -316 375c0 200 123 374 345 374zM390 831
c76 0 90 59 90 78h55c3 -88 -52 -147 -145 -147c-92 0 -147 59 -144 147h55c0 -19 12 -78 89 -78z" />
    <glyph glyph-name="Gcircumflex.ss01" horiz-adv-x="738" 
d="M385 733c149 0 270 -96 278 -231h-107c-3 84 -67 153 -170 153c-160 0 -243 -130 -243 -294c0 -176 66 -296 228 -296c119 0 214 87 214 204l-279 -27v98h372v-340h-72l-8 115h-8c-48 -79 -126 -131 -234 -131c-216 0 -316 178 -316 375c0 200 123 374 345 374zM377 934
l158 -159h-95l-60 60h-6l-62 -60h-95z" />
    <glyph glyph-name="Gcommaaccent.ss01" horiz-adv-x="738" 
d="M385 733c149 0 270 -96 278 -231h-107c-3 84 -67 153 -170 153c-160 0 -243 -130 -243 -294c0 -176 66 -296 228 -296c119 0 214 87 214 204l-279 -27v98h372v-340h-72l-8 115h-8c-48 -79 -126 -131 -234 -131c-216 0 -316 178 -316 375c0 200 123 374 345 374zM320 -164
v102h106v-90c-15 -37 -33 -68 -56 -94h-63c27 21 47 44 64 68c4 7 1 14 -7 14h-44z" />
    <glyph glyph-name="Gdotaccent.ss01" horiz-adv-x="738" 
d="M385 733c149 0 270 -96 278 -231h-107c-3 84 -67 153 -170 153c-160 0 -243 -130 -243 -294c0 -176 66 -296 228 -296c119 0 214 87 214 204l-279 -27v98h372v-340h-72l-8 115h-8c-48 -79 -126 -131 -234 -131c-216 0 -316 178 -316 375c0 200 123 374 345 374zM328 784
v107h110v-107h-110z" />
    <glyph glyph-name="Idieresis.ss01" horiz-adv-x="240" 
d="M70 0v722h100v-722h-100zM-25 784v106h98v-106h-98zM167 784v106h98v-106h-98z" />
    <glyph glyph-name="Idotaccent.ss01" horiz-adv-x="240" 
d="M70 0v722h100v-722h-100zM65 784v107h110v-107h-110z" />
    <glyph glyph-name="Kcommaaccent.ss01" horiz-adv-x="610" 
d="M70 0v722h99v-340h6l275 340h123l-297 -350l324 -372h-126l-299 349h-6v-349h-99zM258 -164v102h106v-90c-15 -37 -33 -68 -56 -94h-63c27 21 47 44 64 68c4 7 1 14 -7 14h-44z" />
    <glyph glyph-name="Lcaron.ss01" horiz-adv-x="485" 
d="M70 0v722h99v-633l296 1v-90h-395zM230 604v118h112v-106c-16 -39 -35 -71 -62 -103h-65c31 26 54 51 71 76c5 7 1 15 -8 15h-48z" />
    <glyph glyph-name="Lcommaaccent.ss01" horiz-adv-x="485" 
d="M70 0v722h99v-633l296 1v-90h-395zM214 -164v102h106v-90c-15 -37 -33 -68 -56 -94h-63c27 21 47 44 64 68c4 7 1 14 -7 14h-44z" />
    <glyph glyph-name="Ldot.ss01" horiz-adv-x="485" 
d="M291 280v132h124v-132h-124zM70 0v722h99v-633l296 1v-90h-395z" />
    <glyph glyph-name="M.ss01" horiz-adv-x="910" 
d="M840 722v-722h-99l1 576h-6l-243 -589h-72l-248 588h-6l1 -575h-98v722h139l247 -588h6l238 588h140z" />
    <glyph glyph-name="Ncommaaccent.ss01" horiz-adv-x="750" 
d="M70 0v722h99l413 -566h6v566h92v-722h-100l-413 569h-6v-569h-91zM318 -164v102h106v-90c-15 -37 -33 -68 -56 -94h-63c27 21 47 44 64 68c4 7 1 14 -7 14h-44z" />
    <glyph glyph-name="Odieresis.ss01" horiz-adv-x="796" 
d="M756 362c0 -237 -167 -379 -360 -379s-356 151 -356 383c0 196 138 375 357 375s359 -174 359 -379zM652 363c0 179 -108 294 -256 294c-155 0 -252 -133 -252 -293c0 -170 97 -296 252 -296c167 0 256 135 256 295zM253 784v106h98v-106h-98zM445 784v106h98v-106h-98z
" />
    <glyph glyph-name="RP" horiz-adv-x="810" 
d="M361 433l-140 246l6 4l140 -247zM590 679l-140 -246l-6 3l140 247zM221 51l140 246l6 -3l-140 -247zM450 297l140 -246l-6 -4l-140 247zM108 155l230 164l4 -5l-230 -165zM703 575l-230 -164l-4 5l230 165zM338 411l-230 164l4 6l230 -165zM473 319l230 -164l-4 -6
l-230 165zM377 441l-87 269l7 2l86 -269zM290 20l87 269l6 -2l-86 -269zM521 710l-87 -269l-6 2l86 269zM434 289l87 -269l-7 -2l-86 269zM159 97l190 210l5 -4l-190 -211zM349 423l-190 210l5 5l190 -211zM652 633l-190 -210l-5 4l190 211zM462 307l190 -210l-5 -5
l-190 211zM70 221l260 114l3 -6l-260 -114zM741 509l-260 -114l-3 6l260 114zM481 335l260 -114l-3 -6l-260 114zM330 395l-260 114l3 6l260 -114zM325 379l-277 57l2 7l276 -58zM48 294l277 57l1 -6l-276 -58zM763 436l-277 -57l-1 6l276 58zM486 351l277 -57l-2 -7
l-276 58zM363 4l31 281l6 -1l-30 -281zM448 726l-31 -281l-6 1l30 281zM417 285l31 -281l-7 -1l-30 281zM394 445l-31 281l7 1l30 -281zM40 368h284v-6h-284v6zM487 368h283v-6h-283v6zM623 657l-133 -181l-6 4l133 182zM321 476l-133 181l6 5l133 -182zM188 73l133 181
l6 -4l-133 -182zM490 254l133 -181l-6 -5l-133 182zM373 501l-46 219l7 2l46 -220zM327 10l46 219l7 -1l-46 -220zM484 720l-46 -219l-7 1l46 220zM438 229l46 -219l-7 -2l-46 220zM402 0v225h7v-225h-7zM402 505v225h7v-225h-7zM528 299l196 -112l-3 -6l-197 112zM87 187
l196 112l4 -6l-197 -112zM283 431l-196 112l3 6l197 -112zM724 543l-196 -112l-4 6l197 112zM540 325l214 -68l-2 -7l-214 69zM754 473l-214 -68l-2 6l214 69zM57 257l214 68l2 -6l-214 -69zM271 405l-214 68l2 7l214 -69zM674 611l5 -5l-168 -151l-4 5zM132 606l5 5
l167 -151l-4 -5zM679 124l-5 -5l-167 151l4 5zM137 119l-5 5l168 151l4 -5zM347 491l-92 206l6 3l92 -206zM556 697l-92 -206l-6 3l92 206zM464 239l92 -206l-6 -3l-92 206zM255 33l92 206l6 -3l-92 -206zM769 331l-1 -7l-224 24l1 6zM42 399l1 7l224 -24l-1 -6zM768 406
l1 -7l-224 -23l-1 6zM43 324l-1 7l224 23l1 -6z" />
    <glyph glyph-name="Rcommaaccent.ss01" horiz-adv-x="598" 
d="M70 0v722h170c139 0 268 -65 268 -201c0 -109 -89 -174 -193 -193l283 -328h-125l-267 316h-37v-316h-99zM167 638v-238l75 1c77 0 163 31 163 117c0 91 -89 119 -164 119zM260 -164v102h106v-90c-15 -37 -33 -68 -56 -94h-63c27 21 47 44 64 68c4 7 1 14 -7 14h-44z" />
    <glyph glyph-name="Udieresis.ss01" horiz-adv-x="673" 
d="M70 722h100v-454c0 -141 70 -194 167 -194c164 0 169 143 169 195v453h97v-451c0 -213 -124 -286 -266 -286c-157 0 -267 89 -267 284v453zM191 784v106h98v-106h-98zM383 784v106h98v-106h-98z" />
    <glyph glyph-name="Wdieresis.ss01" horiz-adv-x="960" 
d="M30 722h109l120 -585h6l157 585h121l156 -585h6l124 585h101l-170 -722h-119l-157 599h-6l-162 -599h-118zM335 784v106h98v-106h-98zM527 784v106h98v-106h-98z" />
    <glyph glyph-name="Ydieresis.ss01" horiz-adv-x="587" 
d="M347 266v-266h-101v266c0 10 -5 16 -14 18l-217 438h118l163 -366h6l160 366h110l-212 -438c-9 -3 -13 -9 -13 -18zM154 784v106h98v-106h-98zM346 784v106h98v-106h-98z" />
    <glyph glyph-name="Zdotaccent.ss01" horiz-adv-x="542" 
d="M30 0v98l376 530v6h-356v88h462v-103l-373 -525v-6h367v-88h-476zM235 784v107h110v-107h-110z" />
    <glyph glyph-name="acute.case" horiz-adv-x="330" 
d="M246 928l34 -75l-200 -86l-30 59z" />
    <glyph glyph-name="adieresis.ss01" horiz-adv-x="523" 
d="M372 0h95c-7 27 -6 60 -6 83v250c0 125 -86 183 -199 183c-118 0 -188 -72 -207 -160h101c-3 47 34 89 106 89s111 -40 111 -112v-54c-44 13 -92 23 -152 22c-107 -3 -176 -68 -176 -161c0 -88 58 -153 157 -153c67 0 126 32 169 77h5c0 -12 -1 -26 -2 -41zM371 222v-89
c-24 -27 -77 -74 -137 -74c-64 0 -97 31 -97 86c0 53 38 90 103 91c45 1 92 -6 131 -14zM119 597v110h100v-110h-100zM303 597v110h100v-110h-100z" />
    <glyph glyph-name="afii10017.BULgrave" horiz-adv-x="635" 
d="M453 183h-274l-58 -183h-101l238 722h110l247 -722h-101zM204 264h222l-110 344h-6zM132 853l34 75l196 -102l-30 -59z" />
    <glyph glyph-name="afii10021.BUL" horiz-adv-x="760" 
d="M634 88h91l-4 -227h-97v139h-488v-139h-97l-4 227h90l195 634h125zM387 619h-6l-156 -533h309z" />
    <glyph glyph-name="afii10022.BULgrave" horiz-adv-x="538" 
d="M70 0v722h417v-85h-318v-225h304v-84h-303v-240h328v-88h-428zM154 853l34 75l196 -102l-30 -59z" />
    <glyph glyph-name="afii10023.ss01" horiz-adv-x="538" 
d="M70 0v722h417v-85h-318v-225h304v-84h-303v-240h328v-88h-428zM134 784v106h98v-106h-98zM326 784v106h98v-106h-98z" />
    <glyph glyph-name="afii10026.BULgrave" horiz-adv-x="750" 
d="M680 722v-722h-92v579h-6l-412 -579h-100v722h93v-575h6l412 575h99zM260 853l34 75l196 -102l-30 -59z" />
    <glyph glyph-name="afii10029.BUL" horiz-adv-x="690" 
d="M412 722l247 -722h-105l-199 618h-6l-210 -618h-109l261 722h121z" />
    <glyph glyph-name="afii10030.ss01" horiz-adv-x="910" 
d="M840 722v-722h-99l1 576h-6l-243 -589h-72l-248 588h-6l1 -575h-98v722h139l247 -588h6l238 588h140z" />
    <glyph glyph-name="afii10032.BULgrave" horiz-adv-x="796" 
d="M756 362c0 -237 -167 -379 -360 -379s-356 151 -356 383c0 196 138 375 357 375s359 -174 359 -379zM652 363c0 179 -108 294 -256 294c-155 0 -252 -133 -252 -293c0 -170 97 -296 252 -296c167 0 256 135 256 295zM283 853l34 75l196 -102l-30 -59z" />
    <glyph glyph-name="afii10037.BULgrave" horiz-adv-x="584" 
d="M569 722l-248 -615c-35 -85 -85 -113 -157 -113c-24 0 -57 7 -74 15v80c15 -5 46 -9 65 -9c36 0 60 16 73 48l35 84c11 28 -9 52 -38 47l-210 463h114l171 -411h6l154 411h109zM177 853l34 75l196 -102l-30 -59z" />
    <glyph glyph-name="afii10038.BUL" horiz-adv-x="813" 
d="M456 -105h-99v171c-176 16 -322 123 -322 292c0 165 142 278 322 294v162h99v-161c200 -19 322 -143 322 -295s-125 -273 -322 -292v-171zM677 358c0 123 -90 195 -221 208v-412c137 15 221 88 221 204zM136 358c0 -118 90 -189 221 -205v413
c-145 -15 -221 -95 -221 -208z" />
    <glyph glyph-name="afii10044.BULgrave" horiz-adv-x="672" 
d="M180 634l-160 -2v90h259v-286h83c146 0 275 -66 275 -213c0 -152 -136 -223 -285 -223h-172v634zM279 354v-270l74 1c67 0 179 21 179 137c0 109 -109 131 -167 131zM42 853l34 75l196 -102l-30 -59z" />
    <glyph glyph-name="afii10045.BULgrave" horiz-adv-x="770" 
d="M70 0v722h99v-286h60c141 0 267 -69 267 -213c0 -151 -132 -223 -277 -223h-149zM169 354v-270l51 1c67 0 172 23 172 137c0 109 -102 131 -160 131zM600 0v722h100v-722h-100zM270 853l34 75l196 -102l-30 -59z" />
    <glyph glyph-name="afii10047.BULgrave" horiz-adv-x="670" 
d="M143 502h-99c13 140 120 229 268 229c221 0 318 -199 318 -374c0 -159 -86 -369 -318 -369c-146 0 -261 92 -277 234h100c5 -75 64 -147 176 -147c142 0 209 117 217 252l-275 -1v84l274 -1c-13 140 -88 241 -217 241c-113 0 -162 -76 -167 -148zM180 853l34 75l196 -102
l-30 -59z" />
    <glyph glyph-name="afii10048.BULgrave" horiz-adv-x="965" 
d="M925 362c0 -238 -146 -378 -318 -378c-165 0 -298 133 -311 345h-117l1 -329h-100v722h100l-1 -307h118c19 175 130 324 311 324c196 0 317 -172 317 -377zM822 363c0 179 -82 292 -215 292c-139 0 -210 -131 -210 -291c0 -171 73 -295 210 -295c150 0 215 135 215 294z
M367 853l34 75l196 -102l-30 -59z" />
    <glyph glyph-name="afii10049.BULgrave" horiz-adv-x="598" 
d="M528 722v-722h-99v311h-46l-252 -311h-126l276 323c-103 18 -192 84 -192 193c0 136 130 206 269 206h170zM431 396v242l-74 -1c-75 0 -164 -31 -164 -122c0 -85 86 -118 163 -118zM224 853l34 75l196 -102l-30 -59z" />
    <glyph glyph-name="afii10056.ss01" horiz-adv-x="240" 
d="M70 0v722h100v-722h-100zM-25 784v106h98v-106h-98zM167 784v106h98v-106h-98z" />
    <glyph glyph-name="afii10065.BULgrave" horiz-adv-x="523" 
d="M467 0h-95l2 23c1 15 2 29 2 41h-5c-43 -45 -102 -77 -169 -77c-99 0 -157 69 -157 154c0 93 69 157 176 160c60 1 108 -9 152 -22v54c0 72 -39 112 -111 112s-109 -42 -106 -89h-101c19 88 89 160 207 160c113 0 199 -58 199 -183v-250c0 -23 -1 -56 6 -83zM371 133v89
c-39 8 -86 15 -131 14c-65 -1 -103 -38 -103 -91c0 -55 33 -86 97 -86c60 0 113 47 137 74zM136 669l41 73l189 -121l-35 -58z" />
    <glyph glyph-name="afii10067.BUL" horiz-adv-x="535" 
d="M151 535c-3 -108 -3 -216 0 -344c1 -79 52 -131 132 -131s130 48 130 124c0 88 -51 137 -140 144c-24 3 -43 3 -70 3v70c21 0 42 1 63 3c84 8 137 48 137 133c0 72 -49 114 -120 114c-70 0 -132 -47 -132 -116zM62 197c-3 136 -3 213 0 333s104 192 221 192
c121 0 208 -69 208 -184c0 -71 -41 -130 -122 -165v-6c88 -31 136 -99 136 -178c0 -120 -85 -202 -225 -202c-136 0 -215 90 -218 210z" />
    <glyph glyph-name="afii10068.BUL" horiz-adv-x="463" 
d="M323 149h97c-5 -113 -98 -162 -191 -162c-110 0 -192 58 -192 154c0 84 64 129 172 154c75 17 112 38 112 81c0 51 -45 69 -86 69c-47 0 -89 -30 -92 -81h-95c5 96 90 150 184 150c108 0 182 -53 182 -145c0 -83 -71 -126 -176 -153c-72 -19 -105 -41 -105 -84
c0 -44 36 -74 92 -74c71 0 98 50 98 91z" />
    <glyph glyph-name="afii10069.BUL" horiz-adv-x="564" 
d="M136 262c0 -113 53 -182 138 -182c70 0 121 65 126 117v123c-3 55 -54 122 -128 122c-95 0 -136 -80 -136 -180zM494 376v-359c0 -147 -93 -218 -216 -218c-147 0 -199 98 -207 165h95c5 -56 45 -100 113 -100c83 0 123 52 123 145c0 20 0 39 1 54v25h-6
c-27 -48 -80 -80 -140 -80c-141 0 -217 112 -217 248c0 145 86 253 214 253c90 0 131 -52 144 -75h6c3 19 5 43 10 68h90c-8 -37 -10 -90 -10 -126z" />
    <glyph glyph-name="afii10070.BULgrave" horiz-adv-x="533" 
d="M491 238h-358c0 -104 51 -180 147 -180c63 0 108 40 120 97h92c-11 -83 -86 -170 -217 -170c-141 0 -235 107 -235 270c0 140 88 260 229 260c183 0 235 -159 222 -277zM137 306l261 2c0 48 -25 139 -127 139c-68 0 -125 -49 -134 -141zM131 669l41 73l189 -121l-35 -58z
" />
    <glyph glyph-name="afii10071.ss01" horiz-adv-x="533" 
d="M491 238h-358c0 -104 51 -180 147 -180c63 0 108 40 120 97h92c-11 -83 -86 -170 -217 -170c-141 0 -235 107 -235 270c0 140 88 260 229 260c183 0 235 -159 222 -277zM137 306l261 2c0 48 -25 139 -127 139c-68 0 -125 -49 -134 -141zM124 597v110h100v-110h-100z
M308 597v110h100v-110h-100z" />
    <glyph glyph-name="afii10072.BUL" horiz-adv-x="719" 
d="M315 260l-1 462h91l-1 -462h6l165 243h108l-181 -252l207 -251h-112l-187 231h-6l1 -231h-91l1 231h-6l-187 -231h-112l207 252l-181 251h108l165 -243h6z" />
    <glyph glyph-name="afii10073.BUL" horiz-adv-x="468" 
d="M432 112c1 -35 1 -62 0 -97c-3 -146 -94 -208 -216 -208c-152 0 -202 108 -210 175h98c5 -59 48 -105 112 -105c79 0 118 41 121 134c1 37 1 65 0 102c-2 64 -40 99 -115 106c-35 3 -65 3 -85 3v71c19 0 47 0 78 3c73 5 113 29 113 76c0 44 -37 72 -97 72
c-56 0 -92 -25 -107 -73h-96c19 88 98 144 203 144c111 0 193 -50 193 -136c0 -49 -37 -92 -108 -116v-6c76 -19 113 -73 116 -145z" />
    <glyph glyph-name="afii10074.BUL" horiz-adv-x="574" 
d="M397 502h112v-502h-90l1 384h-6l-239 -384h-110v502h90l-1 -383h6z" />
    <glyph glyph-name="afii10074.BULgrave" horiz-adv-x="574" 
d="M397 502h112v-502h-90l1 384h-6l-239 -384h-110v502h90l-1 -383h6zM172 669l41 73l189 -121l-35 -58z" />
    <glyph glyph-name="afii10075.BUL" horiz-adv-x="563" 
d="M399 502h97v-416c0 -25 2 -59 7 -86h-97c-3 21 -2 58 -1 87h-6c-11 -21 -63 -94 -163 -94c-67 0 -171 37 -171 189v320h96v-321c0 -67 30 -112 95 -112c68 0 127 59 143 147v286zM136 594v71h290v-71h-290z" />
    <glyph glyph-name="afii10076.BUL" horiz-adv-x="500" 
d="M65 0v722h93v-458h6l208 238h120l-232 -248l240 -254h-119l-217 236h-6v-236h-93z" />
    <glyph glyph-name="afii10077.BUL" horiz-adv-x="556" 
d="M21 0l202 502h121l191 -502h-99l-150 415h-6l-159 -415h-100z" />
    <glyph glyph-name="afii10078.ss01" horiz-adv-x="726" 
d="M65 502h130l167 -399h6l163 399h130v-502h-88l1 385h-6l-172 -399h-65l-173 398h-6l2 -384h-89v502z" />
    <glyph glyph-name="afii10080.BULgrave" horiz-adv-x="578" 
d="M40 251c0 116 78 264 251 264c172 0 247 -152 247 -265c0 -133 -87 -267 -247 -267c-159 0 -251 127 -251 268zM138 251c0 -103 47 -197 152 -197c77 0 150 61 150 198c0 128 -69 192 -150 192c-65 0 -152 -42 -152 -193zM144 669l41 73l189 -121l-35 -58z" />
    <glyph glyph-name="afii10081.BUL" horiz-adv-x="554" 
d="M60 0v502h92v-86h6c13 23 73 96 166 96c60 0 170 -33 170 -185v-327h-96v329c0 69 -35 110 -92 110c-70 0 -130 -64 -151 -147v-292h-95z" />
    <glyph glyph-name="afii10084.BUL" horiz-adv-x="851" 
d="M380 0v343c0 67 -35 97 -80 97c-63 0 -128 -64 -144 -151v-289h-95v350v104c-1 17 -1 33 -1 48h93c1 -9 1 -18 1 -27v-62h6c11 21 57 102 158 102c54 0 113 -20 139 -102h6c21 36 62 102 160 102c66 0 168 -33 168 -180v-335h-95v345c0 67 -38 96 -85 96
c-57 0 -111 -52 -136 -140v-301h-95z" />
    <glyph glyph-name="afii10085.BULgrave" horiz-adv-x="510" 
d="M392 502h98c-165 -503 -179 -539 -203 -602c-31 -79 -81 -102 -142 -102c-21 0 -49 3 -66 10v80c15 -5 41 -9 54 -9c33 0 51 12 66 41c10 20 27 64 30 80c5 23 -9 35 -29 34l-180 468h104l140 -398h6zM110 669l41 73l189 -121l-35 -58z" />
    <glyph glyph-name="afii10088.BUL" horiz-adv-x="611" 
d="M395 502h95v-421h91l-4 -198h-88v117h-85c-1 20 -2 52 -2 87h-6c-11 -21 -61 -94 -162 -94c-67 0 -169 39 -169 188v321h95v-322c0 -67 29 -111 94 -111c68 0 125 59 141 147v286z" />
    <glyph glyph-name="afii10090.BUL" horiz-adv-x="850" 
d="M471 502v-343c0 -67 33 -97 78 -97c63 0 125 64 141 151v289h95v-350c0 -37 0 -75 1 -104v-48h-93c-1 9 -1 18 -1 27v62h-6c-11 -21 -54 -102 -155 -102c-57 0 -108 20 -137 102h-6c-22 -36 -57 -102 -157 -102c-67 0 -166 33 -166 180v335h95v-345c0 -67 36 -96 83 -96
c57 0 108 52 133 140v301h95z" />
    <glyph glyph-name="afii10091.BUL" horiz-adv-x="894" 
d="M465 502v-343c0 -67 29 -97 74 -97c64 0 123 64 139 151v289h94v-421h92l-4 -198h-88v117h-91c-1 9 -1 18 -1 27v62h-6c-11 -21 -57 -102 -153 -102c-55 0 -104 20 -133 102h-6c-22 -36 -61 -102 -155 -102c-67 0 -162 32 -162 178v337h95v-345c0 -67 32 -96 79 -96
c57 0 106 52 131 140v301h95z" />
    <glyph glyph-name="afii10092.BUL" horiz-adv-x="560" 
d="M20 422v80h210v-194v-37c-1 -6 -1 -11 -1 -16h6c24 23 71 51 132 51c96 0 166 -66 166 -155c0 -92 -77 -164 -200 -164c-93 0 -197 49 -197 174v264zM230 176v-23c0 -65 53 -93 104 -93c72 0 106 39 106 88s-36 86 -103 86c-41 0 -87 -27 -107 -58z" />
    <glyph glyph-name="afii10092.BULgrave" horiz-adv-x="547" 
d="M235 303h68c101 0 214 -40 214 -146c0 -96 -80 -157 -217 -157h-159v425l-121 -3v80h215v-199zM235 232v-160l69 1c76 1 117 34 117 81s-43 76 -114 77zM8 669l41 73l189 -121l-35 -58z" />
    <glyph glyph-name="afii10093.BULgrave" horiz-adv-x="642" 
d="M160 232v-160l38 1c72 1 111 34 111 81s-43 76 -108 77zM160 303h38c99 0 207 -41 207 -146c0 -95 -77 -157 -210 -157h-130v502h95v-199zM478 0v502h94v-502h-94zM206 669l41 73l189 -121l-35 -58z" />
    <glyph glyph-name="afii10094.BUL" horiz-adv-x="490" 
d="M159 176v-23c0 -65 53 -93 104 -93c72 0 106 39 106 88s-36 86 -103 86c-41 0 -86 -27 -107 -58zM158 255h6c24 23 71 51 132 51c96 0 166 -66 166 -155c0 -92 -77 -164 -200 -164c-93 0 -197 49 -197 174v341h94v-194v-37c-1 -6 -1 -11 -1 -16z" />
    <glyph glyph-name="afii10095.BULgrave" horiz-adv-x="521" 
d="M132 343h-95c11 99 98 172 206 172c133 0 238 -102 238 -266c0 -149 -90 -263 -237 -263c-123 0 -198 83 -214 179h96c11 -51 47 -103 118 -103c84 0 133 70 141 160h-178v75l176 -2c-11 84 -58 147 -138 147c-76 0 -110 -63 -113 -99zM115 669l41 73l189 -121l-35 -58z
" />
    <glyph glyph-name="afii10096.BUL" horiz-adv-x="740" 
d="M472 515c165 0 228 -152 228 -265c0 -132 -73 -266 -228 -266c-143 0 -222 108 -230 239h-84l1 -223h-94v722h94v-220l-1 -203h86c16 104 87 216 228 216zM337 251c0 -100 36 -195 133 -195c76 0 132 63 132 196c0 125 -56 192 -133 192c-63 0 -132 -46 -132 -193z" />
    <glyph glyph-name="afii10096.BULgrave" horiz-adv-x="740" 
d="M472 515c165 0 228 -152 228 -265c0 -132 -73 -266 -228 -266c-143 0 -222 108 -230 239h-84l1 -223h-94v502h94l-1 -203h86c16 104 87 216 228 216zM337 251c0 -100 36 -195 133 -195c76 0 132 63 132 196c0 125 -56 192 -133 192c-63 0 -132 -46 -132 -193zM255 669
l41 73l189 -121l-35 -58z" />
    <glyph glyph-name="afii10097.BULgrave" horiz-adv-x="497" 
d="M339 280v152l-81 -1c-76 -1 -118 -31 -118 -76c0 -44 47 -73 118 -74zM126 0h-116l180 222c-63 8 -146 50 -146 133c0 88 81 147 218 147h170v-502h-93v209h-56zM143 669l41 73l189 -121l-35 -58z" />
    <glyph glyph-name="afii10103.ss01" horiz-adv-x="224" 
d="M65 0v502h94v-502h-94zM61 612v110h101v-110h-101z" />
    <glyph glyph-name="afii10104.ss01" horiz-adv-x="224" 
d="M65 0v502h94v-502h-94zM-30 597v110h100v-110h-100zM154 597v110h100v-110h-100z" />
    <glyph glyph-name="afii10105.ss01" horiz-adv-x="233" 
d="M0 -193v71c48 0 72 15 72 86v538h94v-535c0 -59 -17 -164 -128 -164c-12 0 -26 1 -38 4zM68 612v110h101v-110h-101z" />
    <glyph glyph-name="ampersand.ss03" horiz-adv-x="822" 
d="M303 452l222 -219c8 26 7 100 -6 149h247v-95l-153 21c1 -51 -11 -109 -23 -137l177 -171h-126l-93 96c-55 -72 -125 -112 -224 -112c-151 0 -235 100 -235 216c0 98 66 173 142 211c-39 31 -87 91 -87 161c0 92 75 163 192 163c118 0 190 -84 193 -184h-98
c0 65 -38 112 -98 112c-56 0 -97 -33 -97 -90c0 -45 24 -78 67 -121zM485 151l-202 198c-67 -27 -101 -88 -101 -145c0 -92 72 -141 146 -141c86 0 131 49 157 88z" />
    <glyph glyph-name="at.case" horiz-adv-x="862" 
d="M609 487v67c0 73 -43 112 -119 112c-174 0 -327 -125 -327 -320s153 -299 326 -299c136 0 218 54 286 125l48 -61c-81 -77 -191 -135 -335 -135c-213 0 -406 133 -406 369c0 240 203 387 408 387c116 0 203 -59 203 -179v-264c0 -17 1 -34 1 -49c0 -8 0 -16 1 -23h-88
l2 62h-6c-40 -43 -95 -77 -159 -77c-96 0 -149 63 -149 150c0 91 65 150 168 153c56 1 103 -7 146 -18zM608 344v86c-39 7 -85 13 -128 12c-64 0 -96 -38 -96 -85c0 -51 32 -86 96 -85c57 0 104 45 128 72z" />
    <glyph glyph-name="because.ss01" horiz-adv-x="1000" 
d="M107 590v132h122v-132h-122zM439 0v132h122v-132h-122zM771 590v132h122v-132h-122z" />
    <glyph glyph-name="breve.case" horiz-adv-x="391" 
d="M195 831c76 0 90 59 90 78h55c3 -88 -52 -147 -145 -147c-92 0 -147 59 -144 147h55c0 -19 12 -78 89 -78z" />
    <glyph glyph-name="caron.case" horiz-adv-x="418" 
d="M368 921l-158 -159l-160 159h95l62 -60h6l60 60h95z" />
    <glyph glyph-name="caron.salt" horiz-adv-x="280" 
d="M148 513h-61c24 21 47 47 59 72c4 8 -1 14 -9 14c-35 0 -63 24 -63 60s27 63 63 63c35 0 62 -22 65 -61c1 -15 0 -29 -3 -43c-8 -31 -27 -73 -51 -105z" />
    <glyph glyph-name="caron.salt..ss01" horiz-adv-x="280" 
d="M88 604v118h112v-106c-16 -39 -35 -71 -62 -103h-65c31 26 54 51 71 76c5 7 1 15 -8 15h-48z" />
    <glyph glyph-name="cdotaccent.ss01" horiz-adv-x="521" 
d="M486 341h-97c-3 37 -36 101 -111 101c-93 0 -139 -85 -139 -192c0 -103 49 -188 140 -188c70 0 109 55 117 106h95c-16 -97 -88 -181 -212 -181c-144 0 -239 113 -239 262c0 164 106 266 240 266c108 0 195 -75 206 -174zM224 597v110h101v-110h-101z" />
    <glyph glyph-name="circumflex.case" horiz-adv-x="418" 
d="M210 934l158 -159h-95l-60 60h-6l-62 -60h-95z" />
    <glyph glyph-name="colon.ss01" horiz-adv-x="280" 
d="M78 370v132h124v-132h-124zM78 0v132h124v-132h-124z" />
    <glyph glyph-name="comma.ss01" horiz-adv-x="280" 
d="M81 15v132h124v-127c-17 -37 -47 -84 -79 -119h-73c43 35 70 68 90 99c4 7 1 15 -8 15h-54z" />
    <glyph glyph-name="commaaccent.ss01" horiz-adv-x="280" 
d="M92 -164v102h106v-90c-15 -37 -33 -68 -56 -94h-63c27 21 47 44 64 68c4 7 1 14 -7 14h-44z" />
    <glyph glyph-name="dcaron.ss01" horiz-adv-x="641" 
d="M402 502v220h94v-648c0 -21 -1 -54 2 -74h-85c-1 21 -1 51 -1 74h-6c-35 -52 -82 -83 -149 -83c-141 0 -217 123 -217 262c0 145 77 262 209 262c91 0 134 -59 148 -81h6v21c-1 15 -1 30 -1 47zM138 253c0 -113 46 -189 138 -189c69 0 123 72 126 124v122
c-3 55 -52 133 -131 133c-92 0 -133 -86 -133 -190zM536 604v118h112v-106c-16 -39 -35 -71 -62 -103h-65c31 26 54 51 71 76c5 7 1 15 -8 15h-48z" />
    <glyph glyph-name="dieresis.case" horiz-adv-x="414" 
d="M50 837c0 36 26 61 61 61s62 -25 62 -61s-27 -60 -62 -60s-61 24 -61 60zM241 837c0 36 26 61 61 61s62 -25 62 -61s-27 -60 -62 -60s-61 24 -61 60z" />
    <glyph glyph-name="dieresis.case.ss01" horiz-adv-x="390" 
d="M50 784v106h98v-106h-98zM242 784v106h98v-106h-98z" />
    <glyph glyph-name="dieresis.ss01" horiz-adv-x="384" 
d="M50 597v110h100v-110h-100zM234 597v110h100v-110h-100z" />
    <glyph glyph-name="divide.ss01" horiz-adv-x="570" 
d="M540 212h-510v78h510v-78zM226 373v129h120v-129h-120zM226 0v129h120v-129h-120z" />
    <glyph glyph-name="dotaccent.case" horiz-adv-x="280" 
d="M78 837c0 36 26 61 61 61s62 -25 62 -61s-27 -60 -62 -60s-61 24 -61 60z" />
    <glyph glyph-name="dotaccent.case.ss01" horiz-adv-x="198" 
d="M44 784v107h110v-107h-110z" />
    <glyph glyph-name="dotaccent.ss01" horiz-adv-x="201" 
d="M50 597v110h101v-110h-101z" />
    <glyph glyph-name="edieresis.ss01" horiz-adv-x="533" 
d="M491 238h-358c0 -104 51 -180 147 -180c63 0 108 40 120 97h92c-11 -83 -86 -170 -217 -170c-141 0 -235 107 -235 270c0 140 88 260 229 260c183 0 235 -159 222 -277zM137 306l261 2c0 48 -25 139 -127 139c-68 0 -125 -49 -134 -141zM124 597v110h100v-110h-100z
M308 597v110h100v-110h-100z" />
    <glyph glyph-name="edotaccent.ss01" horiz-adv-x="533" 
d="M491 238h-358c0 -104 51 -180 147 -180c63 0 108 40 120 97h92c-11 -83 -86 -170 -217 -170c-141 0 -235 107 -235 270c0 140 88 260 229 260c183 0 235 -159 222 -277zM137 306l261 2c0 48 -25 139 -127 139c-68 0 -125 -49 -134 -141zM218 597v110h101v-110h-101z" />
    <glyph glyph-name="eight.dnom" 
d="M168 237c45 0 74 32 74 72c0 39 -27 69 -74 69s-74 -30 -74 -69c0 -40 29 -72 74 -72zM168 41c52 0 79 33 79 69c0 47 -32 76 -79 76s-79 -29 -79 -76c0 -36 27 -69 79 -69zM168 424c92 0 134 -63 134 -111c0 -41 -20 -79 -67 -98v-4c32 -11 74 -45 74 -101
c0 -57 -48 -118 -141 -118s-141 61 -141 118c0 56 42 90 74 101v4c-47 19 -67 57 -67 98c0 48 42 111 134 111z" />
    <glyph glyph-name="eight.numr" 
d="M168 514c45 0 74 32 74 72c0 39 -27 69 -74 69s-74 -30 -74 -69c0 -40 29 -72 74 -72zM168 318c52 0 79 33 79 69c0 47 -32 76 -79 76s-79 -29 -79 -76c0 -36 27 -69 79 -69zM168 701c92 0 134 -63 134 -111c0 -41 -20 -79 -67 -98v-4c32 -11 74 -45 74 -101
c0 -57 -48 -118 -141 -118s-141 61 -141 118c0 56 42 90 74 101v4c-47 19 -67 57 -67 98c0 48 42 111 134 111z" />
    <glyph glyph-name="ellipsis.ss01" horiz-adv-x="1000" 
d="M107 0v132h122v-132h-122zM439 0v132h122v-132h-122zM771 0v132h122v-132h-122z" />
    <glyph glyph-name="exclam.ss01" horiz-adv-x="373" 
d="M244 722l-21 -524h-73l-17 524h111zM125 0v129h122v-129h-122z" />
    <glyph glyph-name="exclamdown.ss01" horiz-adv-x="373" 
d="M223 304l21 -524h-111l17 524h73zM125 373v129h122v-129h-122z" />
    <glyph glyph-name="f_f.ss01" horiz-adv-x="590" 
d="M555 725v-74c-60 11 -82 -28 -82 -73v-76h92v-73h-92v-429h-93v429h-179v-429h-93v429h-83v73h83v73c0 92 49 154 140 154c13 0 25 -1 36 -4v-73c-60 11 -83 -28 -83 -73v-77h179v73c0 92 44 154 140 154c15 0 26 -1 35 -4z" />
    <glyph glyph-name="f_f_i.ss01" horiz-adv-x="815" 
d="M556 725v-74c-60 11 -82 -28 -82 -73v-76h97v-73h-97v-429h-93v429h-180v-429h-93v429h-83v73h83v73c0 92 49 154 140 154c13 0 25 -1 36 -4v-73c-60 11 -83 -28 -83 -73v-77h180v73c0 92 44 154 140 154c15 0 26 -1 35 -4zM653 0v502h94v-502h-94zM649 612v110h101v-110
h-101z" />
    <glyph glyph-name="f_f_l.ss01" horiz-adv-x="810" 
d="M556 725v-74c-60 11 -82 -28 -82 -73v-76h102v-73h-102v-429h-93v429h-180v-429h-93v429h-83v73h83v73c0 92 49 154 140 154c13 0 25 -1 36 -4v-73c-60 11 -83 -28 -83 -73v-77h180v73c0 92 44 154 140 154c15 0 26 -1 35 -4zM653 0v519l10 203h82v-722h-92z" />
    <glyph glyph-name="f_i.ss01" horiz-adv-x="542" 
d="M284 725v-73c-60 11 -83 -28 -83 -73v-77h97v-73h-97v-429h-93v429h-83v73h83v73c0 92 49 154 140 154c13 0 25 -1 36 -4zM380 0v502h94v-502h-94zM376 612v110h101v-110h-101z" />
    <glyph glyph-name="f_l.ss01" horiz-adv-x="537" 
d="M284 725v-73c-60 11 -83 -28 -83 -73v-77h102v-73h-102v-429h-93v429h-83v73h83v73c0 92 49 154 140 154c13 0 25 -1 36 -4zM380 0v519l10 203h82v-722h-92z" />
    <glyph glyph-name="five.dnom" 
d="M30 117h64c-3 -45 26 -75 66 -75c56 0 78 52 78 100c0 59 -26 98 -71 98c-37 0 -58 -19 -71 -50h-51l1 225h239v-47h-185l-2 -58c-1 -32 -3 -59 -3 -59h4c13 15 36 37 81 37c86 0 120 -71 120 -143c0 -85 -49 -154 -142 -154c-75 0 -127 54 -128 126z" />
    <glyph glyph-name="five.numr" 
d="M30 394h64c-3 -45 26 -75 66 -75c56 0 78 52 78 100c0 59 -26 98 -71 98c-37 0 -58 -19 -71 -50h-51l1 225h239v-47h-185l-2 -58c-1 -32 -3 -59 -3 -59h4c13 15 36 37 81 37c86 0 120 -71 120 -143c0 -85 -49 -154 -142 -154c-75 0 -127 54 -128 126z" />
    <glyph glyph-name="four.dnom" 
d="M202 0v97h-190v65l51 73l119 183h83v-274h54v-48h-54v-96h-63zM63 144h142v216h-4l-94 -147l-44 -66v-3z" />
    <glyph glyph-name="four.numr" 
d="M202 277v97h-190v65l51 73l119 183h83v-274h54v-48h-54v-96h-63zM63 421h142v216h-4l-94 -147l-44 -66v-3z" />
    <glyph glyph-name="gcommaaccent.ss01" horiz-adv-x="564" 
d="M136 262c0 100 41 180 136 180c74 0 125 -67 128 -122v-123c-5 -52 -56 -117 -126 -117c-85 0 -138 69 -138 182zM494 17v359c0 36 2 89 10 126h-90c-5 -25 -7 -49 -10 -68h-6c-13 23 -54 75 -144 75c-128 0 -214 -108 -214 -253c0 -136 76 -248 217 -248
c60 0 113 32 140 80h6v-25c-1 -15 -1 -34 -1 -54c0 -93 -40 -145 -123 -145c-68 0 -108 44 -113 100h-95c8 -67 60 -165 207 -165c123 0 216 71 216 218zM326 662v-102h-106v90c15 37 33 68 56 94h63c-27 -21 -47 -44 -64 -68c-4 -7 -1 -14 7 -14h44z" />
    <glyph glyph-name="gdotaccent.ss01" horiz-adv-x="564" 
d="M136 262c0 100 41 180 136 180c74 0 125 -67 128 -122v-123c-5 -52 -56 -117 -126 -117c-85 0 -138 69 -138 182zM494 17v359c0 36 2 89 10 126h-90c-5 -25 -7 -49 -10 -68h-6c-13 23 -54 75 -144 75c-128 0 -214 -108 -214 -253c0 -136 76 -248 217 -248
c60 0 113 32 140 80h6v-25c-1 -15 -1 -34 -1 -54c0 -93 -40 -145 -123 -145c-68 0 -108 44 -113 100h-95c8 -67 60 -165 207 -165c123 0 216 71 216 218zM220 597v110h101v-110h-101z" />
    <glyph glyph-name="grave.case" horiz-adv-x="330" 
d="M50 853l34 75l196 -102l-30 -59z" />
    <glyph glyph-name="hungarumlaut.case" horiz-adv-x="467" 
d="M200 935l43 -61l-155 -107l-38 50zM374 934l43 -61l-155 -106l-38 49z" />
    <glyph glyph-name="i.ss01" horiz-adv-x="224" 
d="M65 0v502h94v-502h-94zM61 612v110h101v-110h-101z" />
    <glyph glyph-name="idieresis.ss01" horiz-adv-x="228" 
d="M67 0v502h94v-502h-94zM-28 597v110h100v-110h-100zM156 597v110h100v-110h-100z" />
    <glyph glyph-name="interfinity" horiz-adv-x="500" 
d="M251 731c107 0 198 -54 198 -151c0 -74 -58 -115 -121 -152c43 -31 77 -67 77 -123c0 -73 -72 -114 -155 -114c-82 0 -157 41 -157 114c0 56 34 92 77 121c-61 37 -119 79 -119 153c0 94 91 152 200 152zM253 657c-64 0 -106 -34 -106 -78c0 -49 48 -73 104 -105
c56 32 104 56 104 105c0 47 -37 78 -102 78zM179 71c0 41 33 72 72 72s72 -31 72 -72s-33 -71 -72 -71s-72 30 -72 71zM314 310c0 35 -36 55 -67 74c-31 -19 -66 -42 -66 -74c0 -27 24 -50 67 -50s66 23 66 50z" />
    <glyph glyph-name="interfinity.ss01" horiz-adv-x="500" 
d="M251 731c107 0 198 -54 198 -151c0 -74 -58 -115 -121 -152c43 -31 77 -67 77 -123c0 -73 -72 -114 -155 -114c-82 0 -157 41 -157 114c0 56 34 92 77 121c-61 37 -119 79 -119 153c0 94 91 152 200 152zM253 657c-64 0 -106 -34 -106 -78c0 -49 48 -73 104 -105
c56 32 104 56 104 105c0 47 -37 78 -102 78zM191 0v129h122v-129h-122zM314 310c0 35 -36 55 -67 74c-31 -19 -66 -42 -66 -74c0 -27 24 -50 67 -50s66 23 66 50z" />
    <glyph glyph-name="interrobang.ss01" horiz-adv-x="500" 
d="M184 0v129h122v-129h-122zM132 519h-88c-8 155 107 212 207 212c113 0 204 -72 204 -189c0 -81 -44 -137 -113 -193c-48 -39 -63 -82 -60 -133l1 -18h-70l-14 448c-41 -16 -72 -55 -67 -127zM363 537c0 56 -29 94 -68 109l-9 -244h3c49 45 74 90 74 135z" />
    <glyph glyph-name="iogonek.ss01" horiz-adv-x="224" 
d="M65 0v502h94v-502c-40 -27 -96 -66 -96 -104c0 -31 23 -40 50 -40c23 0 48 10 59 15v-44c-23 -12 -50 -25 -95 -25c-66 0 -88 41 -88 72c0 56 51 95 116 126h-40zM61 612v110h101v-110h-101z" />
    <glyph glyph-name="j.ss01" horiz-adv-x="233" 
d="M0 -193v71c48 0 72 15 72 86v538h94v-535c0 -59 -17 -164 -128 -164c-12 0 -26 1 -38 4zM68 612v110h101v-110h-101z" />
    <glyph glyph-name="kcommaaccent.ss01" horiz-adv-x="500" 
d="M65 0v722h93v-443h6l208 224h120l-232 -235l240 -268h-119l-217 251h-6v-251h-93zM213 -164v102h106v-90c-15 -37 -33 -68 -56 -94h-63c27 21 47 44 64 68c4 7 1 14 -7 14h-44z" />
    <glyph glyph-name="lcaron.ss01" horiz-adv-x="304" 
d="M159 519v-519h-94v722h84zM204 604v118h112v-106c-16 -39 -35 -71 -62 -103h-65c31 26 54 51 71 76c5 7 1 15 -8 15h-48z" />
    <glyph glyph-name="lcommaaccent.ss01" horiz-adv-x="224" 
d="M159 519v-519h-94v722h84zM58 -164v102h106v-90c-15 -37 -33 -68 -56 -94h-63c27 21 47 44 64 68c4 7 1 14 -7 14h-44z" />
    <glyph glyph-name="ldot.ss01" horiz-adv-x="384" 
d="M240 280v132h124v-132h-124zM159 519v-519h-94v722h84z" />
    <glyph glyph-name="macron.case" horiz-adv-x="400" 
d="M50 787v76h300v-76h-300z" />
    <glyph glyph-name="ncommaaccent.ss01" horiz-adv-x="551" 
d="M65 0v416c0 25 -1 57 -5 86h97v-86h6c13 23 68 96 162 96c60 0 166 -33 166 -185v-327h-96v329c0 69 -31 110 -88 110c-70 0 -126 -64 -147 -147v-292h-95zM224 -164v102h106v-90c-15 -37 -33 -68 -56 -94h-63c27 21 47 44 64 68c4 7 1 14 -7 14h-44z" />
    <glyph glyph-name="nine.dnom" 
d="M33 97h62c-1 -33 12 -60 52 -60c52 0 101 57 101 165h-4c-13 -19 -45 -54 -100 -54c-63 0 -121 47 -121 135c0 84 55 140 135 140c97 0 148 -95 148 -200c0 -91 -38 -233 -160 -233c-89 0 -116 63 -113 107zM154 376c-40 0 -72 -33 -72 -86c0 -55 27 -91 71 -92
c45 0 82 35 82 71c0 54 -26 107 -81 107z" />
    <glyph glyph-name="nine.numr" 
d="M33 374h62c-1 -33 12 -60 52 -60c52 0 101 57 101 165h-4c-13 -19 -45 -54 -100 -54c-63 0 -121 47 -121 135c0 84 55 140 135 140c97 0 148 -95 148 -200c0 -91 -38 -233 -160 -233c-89 0 -116 63 -113 107zM154 653c-40 0 -72 -33 -72 -86c0 -55 27 -91 71 -92
c45 0 82 35 82 71c0 54 -26 107 -81 107z" />
    <glyph glyph-name="odieresis.ss01" horiz-adv-x="578" 
d="M40 251c0 116 78 264 251 264c172 0 247 -152 247 -265c0 -133 -87 -267 -247 -267c-159 0 -251 127 -251 268zM138 251c0 -103 47 -197 152 -197c77 0 150 61 150 198c0 128 -69 192 -150 192c-65 0 -152 -42 -152 -193zM147 597v110h100v-110h-100zM331 597v110h100
v-110h-100z" />
    <glyph glyph-name="one.dnom" 
d="M176 0v355h-4c-18 -32 -92 -143 -132 -186v87c33 33 93 121 116 160h82v-416h-62z" />
    <glyph glyph-name="one.dnom..ss02" 
d="M58 49h104v304h-4c-11 -24 -79 -146 -116 -185v79c29 34 84 133 100 169h81v-367h102v-49h-267v49z" />
    <glyph glyph-name="one.numr" 
d="M176 277v355h-4c-18 -32 -92 -143 -132 -186v87c33 33 93 121 116 160h82v-416h-62z" />
    <glyph glyph-name="one.numr..ss02" 
d="M58 326h104v304h-4c-11 -24 -79 -146 -116 -185v79c29 34 84 133 100 169h81v-367h102v-49h-267v49z" />
    <glyph glyph-name="one.sinf..ss02" 
d="M58 -131h104v304h-4c-11 -24 -79 -146 -116 -185v79c29 34 84 133 100 169h81v-367h102v-49h-267v49z" />
    <glyph glyph-name="one.ss02" horiz-adv-x="510" 
d="M83 81h159v518h-6c-29 -57 -133 -242 -191 -310v132c47 58 139 213 168 271h121v-611h151v-81h-402v81z" />
    <glyph glyph-name="one.sups..ss02" 
d="M58 506h104v304h-4c-11 -24 -79 -146 -116 -185v79c29 34 84 133 100 169h81v-367h102v-49h-267v49z" />
    <glyph glyph-name="onehalf.ss02" horiz-adv-x="835" 
d="M184 0l416 722h61l-416 -722h-61zM758 0h-267c-1 5 -1 10 -1 15c0 9 0 19 1 28c8 77 47 115 99 142c23 12 43 24 67 40c25 19 43 42 43 79c0 36 -26 69 -71 69c-60 0 -76 -50 -71 -89h-61c-8 77 43 139 133 139c83 0 134 -54 134 -121c0 -51 -21 -87 -68 -119
c-23 -16 -53 -33 -76 -45c-30 -16 -73 -38 -70 -89h208v-49zM47 326h104v304h-4c-11 -24 -79 -146 -116 -185v79c29 34 84 133 100 169h81v-367h102v-49h-267v49z" />
    <glyph glyph-name="onequarter.ss02" horiz-adv-x="835" 
d="M197 0l416 722h61l-416 -722h-61zM642 0v97h-190v65l51 73l119 183h83v-274h54v-48h-54v-96h-63zM503 144h142v216h-4l-94 -147l-44 -66v-3zM47 326h104v304h-4c-11 -24 -79 -146 -116 -185v79c29 34 84 133 100 169h81v-367h102v-49h-267v49z" />
    <glyph glyph-name="period.ss01" horiz-adv-x="280" 
d="M78 0v132h124v-132h-124z" />
    <glyph glyph-name="periodcentered.ss01" horiz-adv-x="280" 
d="M78 280v132h124v-132h-124z" />
    <glyph glyph-name="question.ss01" horiz-adv-x="500" 
d="M182 0v129h122v-129h-122zM145 519h-94c-8 153 104 212 203 212c111 0 201 -75 201 -190c0 -84 -47 -139 -116 -195c-51 -40 -60 -81 -57 -130l1 -18h-83l-1 20c-5 92 28 135 87 191c48 44 73 78 73 129c0 73 -47 114 -106 114c-60 0 -119 -40 -108 -133z" />
    <glyph glyph-name="questiondown.ss01" horiz-adv-x="500" 
d="M318 502v-129h-122v129h122zM355 -17h94c8 -153 -104 -212 -203 -212c-111 0 -201 75 -201 190c0 84 47 139 116 195c51 40 60 81 57 130l-1 18h83l1 -20c5 -92 -29 -135 -87 -191c-48 -44 -73 -78 -73 -129c0 -73 47 -114 106 -114c60 0 119 40 108 133z" />
    <glyph glyph-name="quotedblbase.ss01" horiz-adv-x="460" 
d="M261 15v126h119v-117c-17 -41 -54 -85 -87 -120h-73c45 35 79 65 99 96c4 7 1 15 -8 15h-50zM82 15v126h119v-118c-17 -37 -48 -84 -80 -119h-71c43 35 71 65 91 96c4 7 1 15 -8 15h-51z" />
    <glyph glyph-name="quotedblleft.ss01" horiz-adv-x="460" 
d="M261 596v126h119v-117c-17 -41 -54 -85 -87 -120h-73c45 35 79 65 99 96c4 7 1 15 -8 15h-50zM82 596v126h119v-118c-17 -37 -48 -84 -80 -119h-71c43 35 71 65 91 96c4 7 1 15 -8 15h-51z" />
    <glyph glyph-name="quotedblright.ss01" horiz-adv-x="460" 
d="M169 611v-126h-119v117c17 41 54 85 87 120h73c-45 -35 -79 -65 -99 -96c-4 -7 -1 -15 8 -15h50zM348 611v-126h-119v118c17 37 48 84 80 119h71c-43 -35 -71 -65 -91 -96c-4 -7 -1 -15 8 -15h51z" />
    <glyph glyph-name="quoteleft.ss01" horiz-adv-x="275" 
d="M201 611v-126h-119v118c17 37 48 84 80 119h71c-43 -35 -71 -65 -91 -96c-4 -7 -1 -15 8 -15h51z" />
    <glyph glyph-name="quoteright.ss01" horiz-adv-x="275" 
d="M74 596v126h119v-118c-17 -37 -48 -84 -80 -119h-71c43 35 71 65 91 96c4 7 1 15 -8 15h-51z" />
    <glyph glyph-name="quotesinglbase.ss01" horiz-adv-x="275" 
d="M74 15v126h119v-118c-17 -37 -48 -84 -80 -119h-71c43 35 71 65 91 96c4 7 1 15 -8 15h-51z" />
    <glyph glyph-name="rcommaaccent.ss01" horiz-adv-x="375" 
d="M65 0v371c0 45 -1 88 -6 131h90l5 -131h6c16 65 74 139 146 139c28 0 49 -7 64 -14v-86c-15 7 -36 13 -56 13c-95 0 -149 -94 -154 -200v-223h-95zM59 -164v102h106v-90c-15 -37 -33 -68 -56 -94h-63c27 21 47 44 64 68c4 7 1 14 -7 14h-44z" />
    <glyph glyph-name="ring.case" horiz-adv-x="280" 
d="M50 849c0 51 39 86 90 86s90 -35 90 -86s-39 -87 -90 -87s-90 36 -90 87zM94 849c0 -25 21 -45 46 -45c24 0 46 20 46 45s-22 45 -46 45c-25 0 -46 -20 -46 -45z" />
    <glyph glyph-name="semicolon.ss01" horiz-adv-x="280" 
d="M78 15v132h124v-127c-17 -37 -47 -84 -79 -119h-73c43 35 70 68 90 99c4 7 1 15 -8 15h-54zM78 370v132h124v-132h-124z" />
    <glyph glyph-name="seven.dnom" 
d="M26 365v50h279v-58c-39 -76 -81 -164 -116 -235l-58 -122h-69l64 125l61 119l62 117v4h-223z" />
    <glyph glyph-name="seven.numr" 
d="M26 642v50h279v-58c-39 -76 -81 -164 -116 -235l-58 -122h-69l64 125l61 119l62 117v4h-223z" />
    <glyph glyph-name="six.dnom" 
d="M302 316h-61c1 33 -14 60 -53 60c-53 0 -101 -57 -101 -165h4c13 19 45 54 100 54c63 0 121 -47 121 -135c0 -83 -55 -140 -135 -140c-97 0 -148 95 -148 200c0 91 41 233 161 233c90 0 117 -63 112 -107zM180 39c40 0 72 33 72 86c0 55 -27 91 -71 92
c-45 0 -82 -35 -82 -71c0 -54 26 -107 81 -107z" />
    <glyph glyph-name="six.numr" 
d="M302 593h-61c1 33 -14 60 -53 60c-53 0 -101 -57 -101 -165h4c13 19 45 54 100 54c63 0 121 -47 121 -135c0 -83 -55 -140 -135 -140c-97 0 -148 95 -148 200c0 91 41 233 161 233c90 0 117 -63 112 -107zM180 316c40 0 72 33 72 86c0 55 -27 91 -71 92
c-45 0 -82 -35 -82 -71c0 -54 26 -107 81 -107z" />
    <glyph glyph-name="tcaron.ss01" horiz-adv-x="355" 
d="M20 430v72h82l17 150h74v-150h142v-72h-142v-283c0 -45 22 -72 69 -72c28 0 58 8 73 15v-74c-17 -12 -49 -25 -84 -25c-97 0 -151 58 -151 155v284h-80zM259 643v118h112v-106c-16 -39 -35 -71 -62 -103h-65c31 26 54 51 71 76c5 7 1 15 -8 15h-48z" />
    <glyph glyph-name="therefore.ss01" horiz-adv-x="1000" 
d="M107 0v132h122v-132h-122zM439 590v132h122v-132h-122zM771 0v132h122v-132h-122z" />
    <glyph glyph-name="three.dnom" 
d="M21 119h66c0 -47 28 -76 75 -76c43 0 70 27 70 66c0 59 -49 75 -97 78l-26 1v50l27 2c48 3 95 20 95 72c0 44 -32 63 -67 63s-68 -18 -69 -62h-63c5 90 89 112 131 112c88 0 133 -55 133 -111c0 -35 -17 -77 -80 -97v-3c61 -19 82 -65 82 -104c0 -62 -48 -118 -136 -118
c-79 0 -134 50 -141 127z" />
    <glyph glyph-name="three.numr" 
d="M21 396h66c0 -47 28 -76 75 -76c43 0 70 27 70 66c0 59 -49 75 -97 78l-26 1v50l27 2c48 3 95 20 95 72c0 44 -32 63 -67 63s-68 -18 -69 -62h-63c5 90 89 112 131 112c88 0 133 -55 133 -111c0 -35 -17 -77 -80 -97v-3c61 -19 82 -65 82 -104c0 -62 -48 -118 -136 -118
c-79 0 -134 50 -141 127z" />
    <glyph glyph-name="tilde.case" horiz-adv-x="409" 
d="M101 776h-50c-3 85 47 112 89 112c25 0 46 -8 67 -15c23 -7 39 -15 58 -15s40 10 43 38h50c3 -85 -47 -112 -89 -112c-25 0 -46 8 -67 15c-23 7 -39 15 -58 15s-40 -10 -43 -38z" />
    <glyph glyph-name="trademark.ss01" horiz-adv-x="800" 
d="M187 361h-57v307h-105v54h266v-54h-104v-307zM525 435l-107 287h-86v-361h56l-2 290h6l112 -301h44l113 301h6l-2 -290h55v361h-84l-105 -287h-6z" />
    <glyph glyph-name="two.dnom" 
d="M297 0h-267c-1 5 -1 10 -1 15c0 9 0 19 1 28c8 77 47 114 99 141c21 11 44 25 67 40c25 19 43 41 43 80c0 36 -26 69 -71 69c-60 0 -76 -50 -71 -89h-61c-8 77 43 139 133 139c83 0 134 -54 134 -121c0 -55 -28 -93 -76 -125c-23 -16 -47 -28 -70 -39
c-31 -15 -73 -37 -70 -89h210v-49z" />
    <glyph glyph-name="two.numr" 
d="M297 277h-267c-1 5 -1 10 -1 15c0 9 0 19 1 28c8 77 47 114 99 141c21 11 44 25 67 40c25 19 43 41 43 80c0 36 -26 69 -71 69c-60 0 -76 -50 -71 -89h-61c-8 77 43 139 133 139c83 0 134 -54 134 -121c0 -55 -28 -93 -76 -125c-23 -16 -47 -28 -70 -39
c-31 -15 -73 -37 -70 -89h210v-49z" />
    <glyph glyph-name="udieresis.ss01" horiz-adv-x="563" 
d="M399 502h97v-416c0 -25 2 -59 7 -86h-97c-3 21 -2 58 -1 87h-6c-11 -21 -63 -94 -163 -94c-67 0 -171 37 -171 189v320h96v-321c0 -67 30 -112 95 -112c68 0 127 59 143 147v286zM139 597v110h100v-110h-100zM323 597v110h100v-110h-100z" />
    <glyph glyph-name="uni0218.ss01" horiz-adv-x="596" 
d="M40 218h104c0 -53 27 -150 159 -150c118 0 151 72 151 117c0 78 -55 104 -172 131c-128 29 -231 93 -231 214c0 135 108 210 241 210c132 0 236 -73 244 -210h-103c-5 91 -71 127 -143 127c-84 0 -139 -54 -139 -122c0 -80 76 -108 173 -130c140 -32 232 -86 232 -209
c0 -126 -98 -213 -261 -213c-114 0 -252 56 -255 235zM251 -164v102h106v-90c-15 -37 -33 -68 -56 -94h-63c27 21 47 44 64 68c4 7 1 14 -7 14h-44z" />
    <glyph glyph-name="uni0219.ss01" horiz-adv-x="463" 
d="M40 149h97c0 -41 28 -91 100 -91c56 0 94 29 94 74c0 43 -36 65 -108 84c-105 27 -179 70 -179 153c0 91 76 145 184 145c94 0 175 -54 180 -150h-95c-3 51 -41 81 -88 81c-41 0 -88 -18 -88 -69c0 -43 40 -64 115 -81c108 -25 176 -70 176 -154
c0 -96 -85 -154 -195 -154c-92 0 -188 49 -193 162zM182 -164v102h106v-90c-15 -37 -33 -68 -56 -94h-63c27 21 47 44 64 68c4 7 1 14 -7 14h-44z" />
    <glyph glyph-name="uni021A.ss01" horiz-adv-x="565" 
d="M333 0h-99v637h-214v85h525v-85h-212v-637zM231 -164v102h106v-90c-15 -37 -33 -68 -56 -94h-63c27 21 47 44 64 68c4 7 1 14 -7 14h-44z" />
    <glyph glyph-name="uni021B.ss01" horiz-adv-x="355" 
d="M20 430v72h82l17 150h74v-150h142v-72h-142v-283c0 -45 22 -72 69 -72c28 0 58 8 73 15v-74c-17 -12 -49 -25 -84 -25c-97 0 -151 58 -151 155v284h-80zM176 -164v102h106v-90c-15 -37 -33 -68 -56 -94h-63c27 21 47 44 64 68c4 7 1 14 -7 14h-44z" />
    <glyph glyph-name="wdieresis.ss01" horiz-adv-x="826" 
d="M806 502h-99l-117 -400h-6l-111 400h-122l-122 -400h-6l-106 400h-97l153 -502h108l125 415h6l119 -415h111zM267 597v110h100v-110h-100zM451 597v110h100v-110h-100z" />
    <glyph glyph-name="ydieresis.ss01" horiz-adv-x="510" 
d="M392 502h98c-165 -503 -179 -539 -203 -602c-31 -79 -81 -102 -142 -102c-21 0 -49 3 -66 10v80c15 -5 41 -9 54 -9c33 0 51 12 66 41c10 20 27 64 30 80c5 23 -9 35 -29 34l-180 468h104l140 -398h6zM122 597v110h100v-110h-100zM306 597v110h100v-110h-100z" />
    <glyph glyph-name="zdotaccent.ss01" horiz-adv-x="455" 
d="M30 0v89l293 336v6h-285v71h387v-82l-298 -341v-6h298v-73h-395zM189 597v110h101v-110h-101z" />
    <glyph glyph-name="zero.dnom" 
d="M22 203c0 65 19 222 146 222c116 0 146 -131 146 -212c0 -93 -33 -222 -147 -222c-106 0 -145 120 -145 212zM85 206c0 -92 27 -165 82 -165c64 0 84 91 84 166c0 100 -31 170 -82 170c-69 0 -84 -95 -84 -171z" />
    <glyph glyph-name="zero.numr" 
d="M22 480c0 65 19 222 146 222c116 0 146 -131 146 -212c0 -93 -33 -222 -147 -222c-106 0 -145 120 -145 212zM85 483c0 -92 27 -165 82 -165c64 0 84 91 84 166c0 100 -31 170 -82 170c-69 0 -84 -95 -84 -171z" />
    </font>
</defs>
</svg>
